<?xml version="1.0" encoding="utf-8"?>
<!-- Generator: Adobe Illustrator 21.0.0, SVG Export Plug-In . SVG Version: 6.00 Build 0)  -->
<svg version="1.1" id="Слой_1" xmlns="http://www.w3.org/2000/svg" xmlns:xlink="http://www.w3.org/1999/xlink" x="0px" y="0px"
	 viewBox="0 0 78 161" style="enable-background:new 0 0 78 161;" xml:space="preserve">
<style type="text/css">
	.st0{fill:#95C8B1;}
</style>
<path class="st0" d="M73.8,1.1C61.5,6.3,49.4,12,41.9,23.5c-8,12.3-13,27.3-17.5,41.2c-8.1,25.2-12.8,51.3-14.2,77.7
	c-1.5-3.9-2.8-7.8-3.9-11.8c-0.9-3.4-6-2.4-5.4,1.1c1.5,8.7,4.5,16.9,9.1,24.5c0.1,0.1,0.1,0.2,0.2,0.2c0.5,1,1,2,1.5,3
	c0.9,1.7,3.4,1.5,4.5,0.2c4.4-5.3,8.9-10.5,13.4-15.7c2.5-2.9-2-6.8-4.5-3.9c-3.1,3.8-6.3,7.6-9.4,11.3c0.7-27.7,5.3-55.2,13.7-81.5
	c4.2-13.1,9-26.3,15.3-38.6c6.7-13,17.9-19.1,30.9-24.7C79,5.1,77.2-0.3,73.8,1.1z"/>
</svg>
