<svg id="Слой_1" data-name="Слой 1" xmlns="http://www.w3.org/2000/svg" viewBox="0 0 20 16"><defs><style>.cls-1{fill:#263238;}</style></defs><title>create_bar</title><path class="cls-1" d="M18.33,2c-.94,0-1.24.53-1.85,1.11-1.55,1.5-6.42.6-8.71,1.38-3.17,1.07-6,3.65-6,7.26a6.88,6.88,0,0,0,.1,1.18c0,.23.33.83.33.93,0,.66-2.21,1.58-2.21,2.76a.88.88,0,0,0,.18.5c.3.52.51.87,1.22.87,1,0,1.64-2.32,2.2-2.32a12.81,12.81,0,0,1,2.05.9,9.87,9.87,0,0,0,3.19.53,10.81,10.81,0,0,0,4.89-1.23c3.1-1.57,5.34-3.86,6-7.4A11.24,11.24,0,0,0,20,6.29C20,5.33,19.59,2,18.33,2Zm-3.86,8.56a.83.83,0,0,1-.08.26.37.37,0,0,1-.12.14.29.29,0,0,1-.15,0H11.36v2.88a.27.27,0,0,1,0,.15.35.35,0,0,1-.15.11,1.16,1.16,0,0,1-.28.07,3.26,3.26,0,0,1-.44,0,3.22,3.22,0,0,1-.44,0,1.15,1.15,0,0,1-.28-.07A.38.38,0,0,1,9.57,14a.23.23,0,0,1,0-.15V11H6.78a.26.26,0,0,1-.15,0,.36.36,0,0,1-.12-.14.84.84,0,0,1-.08-.26,2.15,2.15,0,0,1,0-.4,2.5,2.5,0,0,1,0-.39A.88.88,0,0,1,6.5,9.5a.36.36,0,0,1,.11-.14.24.24,0,0,1,.14,0H9.52V6.45a.27.27,0,0,1,0-.16.36.36,0,0,1,.15-.12A1.16,1.16,0,0,1,10,6.11a3.23,3.23,0,0,1,.44,0,3.27,3.27,0,0,1,.44,0,1.17,1.17,0,0,1,.28.07.33.33,0,0,1,.15.12.31.31,0,0,1,0,.16V9.32h2.77a.25.25,0,0,1,.14,0,.36.36,0,0,1,.11.14,1,1,0,0,1,.08.26,3,3,0,0,1,0,.79Z" transform="translate(0 -2)"/></svg>