<svg id="Слой_1" data-name="Слой 1" xmlns="http://www.w3.org/2000/svg" viewBox="0 0 15 24"><defs><style>.cls-1{fill:gray;}</style></defs><title>doc_top</title><path class="cls-1" d="M15,6.07v10a.92.92,0,0,1-.94.91H.94A.92.92,0,0,1,0,16.09V.91A.92.92,0,0,1,.94,0H8.75V5.16a.92.92,0,0,0,.94.91ZM11.25,7.59a.3.3,0,0,0-.31-.3H4.06a.3.3,0,0,0-.31.3V8.2a.3.3,0,0,0,.31.3h6.87a.3.3,0,0,0,.31-.3Zm0,2.43a.3.3,0,0,0-.31-.3H4.06a.3.3,0,0,0-.31.3v.61a.3.3,0,0,0,.31.3h6.87a.3.3,0,0,0,.31-.3Zm0,2.43a.3.3,0,0,0-.31-.3H4.06a.3.3,0,0,0-.31.3v.61a.3.3,0,0,0,.31.3h6.87a.3.3,0,0,0,.31-.3Zm3.36-7.59H10V.38a2,2,0,0,1,.35.27l4,3.87A2,2,0,0,1,14.61,4.86Z"/><path class="cls-1" d="M0,24H15V21H0Z"/></svg>