<svg id="Слой_1" data-name="Слой 1" xmlns="http://www.w3.org/2000/svg" xmlns:xlink="http://www.w3.org/1999/xlink" viewBox="0 0 38 27"><defs><style>.cls-1{fill:url(#linear-gradient);}.cls-2{fill:url(#linear-gradient-2);}.cls-3{fill:url(#linear-gradient-3);}.cls-4{fill:#ec2227;}.cls-5{fill:#fbb03b;}.cls-6{fill:#95c8b1;}</style><linearGradient id="linear-gradient" x1="2" y1="19.76" x2="2" y2="0.42" gradientUnits="userSpaceOnUse"><stop offset="0" stop-color="#cdcccb"/><stop offset="1" stop-color="#fff"/></linearGradient><linearGradient id="linear-gradient-2" x1="14.5" y1="19.76" x2="14.5" y2="0.28" xlink:href="#linear-gradient"/><linearGradient id="linear-gradient-3" x1="30.92" y1="19.76" x2="30.92" y2="0.28" gradientUnits="userSpaceOnUse"><stop offset="0" stop-color="#cdcccb"/><stop offset="0.21" stop-color="#e3e2e1"/><stop offset="0.43" stop-color="#f2f2f2"/><stop offset="0.68" stop-color="#fcfcfc"/><stop offset="1" stop-color="#fff"/></linearGradient></defs><title>logo_mini</title><path class="cls-1" d="M0,0H4V3H0ZM0,5H4V20H0Z"/><path class="cls-2" d="M7,0h7.16C19,0,22,2.46,22,6.83v6.34C22,17.6,19,20,14.16,20H7Zm7.16,15.72c2.15,0,3.09-1.32,3.09-2.43V6.72c0-1.14-.94-2.43-3.09-2.43h-2.4V15.72Z"/><path class="cls-3" d="M24,0h8c3.4,0,5.36,2.23,5.36,5.8,0,3.26-1.67,5.23-4.39,5.66l4.85,8.2V20H37l-5-8.4H24.91V20H24Zm7.77,10.74c2.89,0,4.68-1.8,4.68-4.94S34.77.86,31.91.86h-7v9.88Z"/><rect class="cls-4" y="24" width="4" height="3"/><rect class="cls-5" x="7" y="24" width="5" height="3"/><rect class="cls-6" x="14" y="24" width="24" height="3"/></svg>