<svg id="Слой_1" data-name="Слой 1" xmlns="http://www.w3.org/2000/svg" viewBox="0 0 20 20"><defs><style>.cls-1{fill:#263238;}</style></defs><title>practice_bar</title><path class="cls-1" d="M3,13.6,0,9l.79-.79a2.8,2.8,0,0,1,1.83-.79H7.33A4.08,4.08,0,0,0,10,6.4l4.39-3.09L6,11.65a6.63,6.63,0,0,0-2.76,1.72Zm3.74,3.34-1,1-.52-.52L4.68,18c-.15.15-.56,0-.92-.39a2.14,2.14,0,0,1-.34-.46c-.65.62-1.23,1-1.36.85s.24-.71.85-1.36a2.14,2.14,0,0,1-.46-.35c-.36-.36-.54-.77-.39-.92l.52-.52-.52-.53,1-1.05a6.27,6.27,0,0,1,2.72-1.67l9.11-9.13,1.79-1.27c1.83-1.31,2.88-1.31,3.14-1s.26,1.31-1,3.15l-1.27,1.8L8.44,14.22A6.29,6.29,0,0,1,6.77,16.94Zm10-11.32L13.73,10a4.11,4.11,0,0,0-1,2.63v4.73a2.87,2.87,0,0,1-.78,1.84l-.79.79L6.55,17l.24-.24A6.67,6.67,0,0,0,8.5,14Zm-.08-2.34A1.32,1.32,0,0,1,17,4.48l.91-.42a1.76,1.76,0,0,0-.44-1.56A1.75,1.75,0,0,0,16,2.06L15.53,3A1.31,1.31,0,0,1,16.72,3.29Z" transform="translate(0 0)"/></svg>