<?xml version="1.0" encoding="utf-8"?>
<!-- Generator: Adobe Illustrator 20.0.0, SVG Export Plug-In . SVG Version: 6.00 Build 0)  -->
<svg version="1.1" id="Слой_1" xmlns="http://www.w3.org/2000/svg" xmlns:xlink="http://www.w3.org/1999/xlink" x="0px" y="0px"
	 viewBox="0 0 14.7 20.1" style="enable-background:new 0 0 14.7 20.1;" xml:space="preserve">
<style type="text/css">
	.st0{fill:#333333;}
</style>
<g>
	<path class="st0" d="M14,10.3c0,1.1-0.2,2-0.5,2.9s-0.9,1.7-1.5,2.3l2.8,2.8l-1.9,1.7l-3.1-3c-0.4,0.2-0.9,0.3-1.3,0.4
		s-1,0.1-1.5,0.1c-2,0-3.7-0.7-5-2.1S0,12.4,0,10.3V7.2c0-2.1,0.6-3.8,1.9-5.2S4.9,0,6.9,0C9,0,10.7,0.7,12,2.1s2,3.1,2,5.2V10.3z
		 M11.1,7.2c0-1.4-0.4-2.6-1.1-3.5S8.2,2.3,6.9,2.3c-1.3,0-2.2,0.5-3,1.4S2.8,5.8,2.8,7.2v3.1c0,1.4,0.4,2.6,1.1,3.5s1.7,1.4,3,1.4
		c1.3,0,2.3-0.5,3.1-1.4s1.1-2.1,1.1-3.5V7.2z"/>
</g>
</svg>
