<svg id="Слой_1" data-name="Слой 1" xmlns="http://www.w3.org/2000/svg" viewBox="0 0 16 23"><defs><style>.cls-1{fill:#fff;}</style></defs><title>recall_top</title><path class="cls-1" d="M15.82,5.27a8.44,8.44,0,0,1-4.84,6,8.54,8.54,0,0,1-3.91,1,7.78,7.78,0,0,1-2.55-.43,10.16,10.16,0,0,0-1.64-.73c-.45,0-1,1.88-1.76,1.88-.56,0-.73-.29-1-.71A.71.71,0,0,1,0,11.88c0-1,1.77-1.71,1.77-2.24,0-.08-.23-.57-.27-.76a5.73,5.73,0,0,1-.08-1c0-2.94,2.26-5,4.79-5.9,1.83-.63,5.72.1,7-1.12.49-.47.73-.9,1.48-.9C15.67,0,16,2.7,16,3.49A9.34,9.34,0,0,1,15.82,5.27Zm-5-.55c-3.16,0-5.2,1.37-7.26,3.72a.6.6,0,0,0-.17.42A.59.59,0,0,0,4,9.45a.56.56,0,0,0,.4-.18c.44-.41.83-.85,1.26-1.27a6.8,6.8,0,0,1,5.2-2.1.59.59,0,0,0,0-1.18Z"/><path class="cls-1" d="M0,23H16V20H0Z"/></svg>