<svg id="Layer_1" data-name="Layer 1" xmlns="http://www.w3.org/2000/svg" viewBox="0 0 38 40"><defs><style>.cls-1{fill:#263238;}</style></defs><title>docМонтажная область 132</title><path class="cls-1" d="M38,37.14A2.91,2.91,0,0,1,35.08,40H2.92A2.91,2.91,0,0,1,0,37.14V8.57A2.68,2.68,0,0,1,2.92,6H6V3.57A3.62,3.62,0,0,1,9.65,0h1.69A3.62,3.62,0,0,1,15,3.57V6h8V3.57A3.62,3.62,0,0,1,26.65,0h1.69A3.62,3.62,0,0,1,32,3.57V6h3.08A2.68,2.68,0,0,1,38,8.57ZM9,21V15H2v6Zm0,8V23H2v6Zm0,8V31H2v6ZM12,3.86a.74.74,0,0,0-.73-.71H9.81A.82.82,0,0,0,9,3.86v6.43a.82.82,0,0,0,.81.71h1.46a.74.74,0,0,0,.73-.71ZM18,21V15H11v6Zm0,8V23H11v6Zm0,8V31H11v6Zm9-16V15H20v6Zm0,8V23H20v6Zm0,8V31H20v6ZM28.92,3.86a.74.74,0,0,0-.73-.71H26.73a.74.74,0,0,0-.73.71v6.43a.74.74,0,0,0,.73.71h1.46a.74.74,0,0,0,.73-.71ZM36,21V15H29v6Zm0,8V23H29v6Zm0,8V31H29v6Z"/></svg>