<svg id="Layer_1" data-name="Layer 1" xmlns="http://www.w3.org/2000/svg" viewBox="0 0 40 40"><defs><style>.cls-1{fill:#95c8b1;}</style></defs><title>Artboard 78 copy 3</title><path class="cls-1" d="M36.65,4c-1.88,0-2.48,1.07-3.71,2.23-3.1,3-12.83,1.2-17.41,2.75-6.34,2.14-12,7.3-12,14.52a13.76,13.76,0,0,0,.2,2.36c.09.46.67,1.66.67,1.86C4.42,29,0,30.89,0,33.25a1.75,1.75,0,0,0,.36,1c.6,1,1,1.75,2.43,1.75,1.94,0,3.28-4.64,4.4-4.64.89,0,3,1.43,4.11,1.8a19.75,19.75,0,0,0,6.39,1.07,21.62,21.62,0,0,0,9.78-2.45C33.66,28.64,38.13,24,39.56,17A22.48,22.48,0,0,0,40,12.59C40,10.66,39.17,4,36.65,4ZM28.93,21.12a1.66,1.66,0,0,1-.16.52.73.73,0,0,1-.25.28.58.58,0,0,1-.3.08H22.73v5.75a.53.53,0,0,1-.09.3.7.7,0,0,1-.3.22,2.31,2.31,0,0,1-.56.14,6.51,6.51,0,0,1-.88.05,6.44,6.44,0,0,1-.88-.05,2.29,2.29,0,0,1-.57-.14.77.77,0,0,1-.31-.22.47.47,0,0,1-.1-.3V22H13.56a.53.53,0,0,1-.29-.08.72.72,0,0,1-.24-.28,1.67,1.67,0,0,1-.17-.52,4.3,4.3,0,0,1-.06-.8,5,5,0,0,1,.05-.79A1.76,1.76,0,0,1,13,19a.71.71,0,0,1,.22-.28.48.48,0,0,1,.28-.09H19V12.91a.55.55,0,0,1,.1-.31.72.72,0,0,1,.31-.24,2.32,2.32,0,0,1,.57-.14,6.46,6.46,0,0,1,.88-.05,6.54,6.54,0,0,1,.88.05,2.35,2.35,0,0,1,.56.14.66.66,0,0,1,.3.24.62.62,0,0,1,.09.31v5.73h5.54a.51.51,0,0,1,.28.09.73.73,0,0,1,.23.28,1.9,1.9,0,0,1,.15.53,6,6,0,0,1,0,1.59Z"/></svg>