<svg id="Layer_1" data-name="Layer 1" xmlns="http://www.w3.org/2000/svg" viewBox="0 0 34 59"><defs><style>.cls-1{fill:#fff;}</style></defs><title>docМонтажная область 131</title><path class="cls-1" d="M34,14V37.86A1.92,1.92,0,0,1,32.14,40h-30A2.14,2.14,0,0,1,0,37.86V2.14A2.14,2.14,0,0,1,2.14,0H20V12.14A1.92,1.92,0,0,0,22.15,14Zm-8,4a1.28,1.28,0,0,0-1-1H9a1.28,1.28,0,0,0-1,1v1a1.28,1.28,0,0,0,1,1H25a1.28,1.28,0,0,0,1-1Zm0,6a1.28,1.28,0,0,0-1-1H9a1.28,1.28,0,0,0-1,1v1a1.28,1.28,0,0,0,1,1H25a1.28,1.28,0,0,0,1-1Zm0,6a1.28,1.28,0,0,0-1-1H9a1.28,1.28,0,0,0-1,1v1a1.28,1.28,0,0,0,1,1H25a1.28,1.28,0,0,0,1-1Zm8-19H23V1Z"/><path class="cls-1" d="M0,59H34V54H0Z"/></svg>