<svg id="Layer_1" data-name="Layer 1" xmlns="http://www.w3.org/2000/svg" viewBox="0 0 62 90"><defs><style>.cls-1{fill:#263238;}.cls-2{fill:#95c8b1;}</style></defs><title>Монтажная область 143 копия</title><rect class="cls-1" y="31" width="62" height="59"/><polygon class="cls-1" points="0 33.02 0 0 24.51 33.02 0 33.02"/><path class="cls-2" d="M43.26,43.74c-1.63,0-2.15.91-3.22,1.89-2.69,2.55-11.14,1-15.11,2.34-5.5,1.81-10.4,6.2-10.4,12.34a11.46,11.46,0,0,0,.17,2c.08.39.58,1.41.58,1.58,0,1.12-3.83,2.69-3.83,4.69a1.47,1.47,0,0,0,.31.85c.52.89.89,1.49,2.11,1.49,1.68,0,2.85-3.94,3.82-3.94.77,0,2.63,1.22,3.56,1.52a17.47,17.47,0,0,0,5.54.91,19.08,19.08,0,0,0,8.48-2.08c5.38-2.66,9.26-6.57,10.5-12.57A18.71,18.71,0,0,0,46.17,51C46.17,49.4,45.45,43.74,43.26,43.74ZM36.39,58.19a1.49,1.49,0,0,1-.13.45.64.64,0,0,1-.21.25.48.48,0,0,1-.25.07H31.15v5a.48.48,0,0,1-.07.26.6.6,0,0,1-.25.19,1.9,1.9,0,0,1-.48.13,5.32,5.32,0,0,1-.75,0,5.26,5.26,0,0,1-.74,0,1.88,1.88,0,0,1-.48-.13.65.65,0,0,1-.26-.19A.42.42,0,0,1,28,64V59H23.42a.43.43,0,0,1-.25-.07.62.62,0,0,1-.2-.25,1.5,1.5,0,0,1-.14-.45,3.9,3.9,0,0,1-.05-.7,4.55,4.55,0,0,1,0-.69,1.58,1.58,0,0,1,.13-.46.62.62,0,0,1,.19-.24.4.4,0,0,1,.24-.07H28V51a.49.49,0,0,1,.08-.28.61.61,0,0,1,.26-.21,1.9,1.9,0,0,1,.48-.13,5.24,5.24,0,0,1,.74,0,5.3,5.3,0,0,1,.75,0,1.91,1.91,0,0,1,.48.13.5.5,0,0,1,.33.48v5h4.68a.42.42,0,0,1,.23.07.63.63,0,0,1,.19.24,1.71,1.71,0,0,1,.13.46,5.43,5.43,0,0,1,0,1.39Z"/></svg>