<svg id="Layer_1" data-name="Layer 1" xmlns="http://www.w3.org/2000/svg" xmlns:xlink="http://www.w3.org/1999/xlink" viewBox="0 0 217 60"><defs><style>.cls-1{fill:url(#linear-gradient);}.cls-2{fill:url(#linear-gradient-2);}.cls-3{fill:url(#linear-gradient-3);}.cls-4{fill:url(#linear-gradient-4);}.cls-5{fill:url(#linear-gradient-5);}.cls-6{fill:url(#linear-gradient-6);}.cls-7{fill:url(#linear-gradient-7);}.cls-8{fill:url(#linear-gradient-8);}.cls-9{fill:url(#linear-gradient-9);}.cls-10{fill:#ec2227;}.cls-11{fill:#fbb03b;}.cls-12{fill:#95c8b1;}</style><linearGradient id="linear-gradient" x1="4.5" y1="40.52" x2="4.5" y2="0.86" gradientUnits="userSpaceOnUse"><stop offset="0" stop-color="#ccc"/><stop offset="1" stop-color="#fff"/></linearGradient><linearGradient id="linear-gradient-2" x1="30" y1="40.51" x2="30" y2="0.58" xlink:href="#linear-gradient"/><linearGradient id="linear-gradient-3" x1="62.5" y1="40.82" x2="62.5" y2="1.37" xlink:href="#linear-gradient"/><linearGradient id="linear-gradient-4" x1="95.31" y1="40.51" x2="95.31" y2="0.58" gradientUnits="userSpaceOnUse"><stop offset="0" stop-color="#ccc"/><stop offset="0.2" stop-color="#e1e1e1"/><stop offset="0.43" stop-color="#f2f2f2"/><stop offset="0.68" stop-color="#fcfcfc"/><stop offset="1" stop-color="#fff"/></linearGradient><linearGradient id="linear-gradient-5" x1="123.88" y1="40.76" x2="123.88" y2="0.87" xlink:href="#linear-gradient"/><linearGradient id="linear-gradient-6" x1="150.94" y1="40.76" x2="150.94" y2="0.87" xlink:href="#linear-gradient"/><linearGradient id="linear-gradient-7" x1="178.64" y1="40.76" x2="178.64" y2="0.87" xlink:href="#linear-gradient"/><linearGradient id="linear-gradient-8" x1="199" y1="40.52" x2="199" y2="0.86" xlink:href="#linear-gradient"/><linearGradient id="linear-gradient-9" x1="212.5" y1="40.52" x2="212.5" y2="0.86" xlink:href="#linear-gradient"/></defs><title>logoМонтажная область 131</title><path class="cls-1" d="M0,0H9V6H0ZM0,10H9V41H0Z"/><path class="cls-2" d="M14,0H29.43C39.72,0,46,5.33,46,14.28v13C46,36.33,39.72,41,29.43,41H14ZM29.43,32C34,32,36,29.78,36,27.5V14c0-2.34-2-5-6.57-5H24V32Z"/><path class="cls-3" d="M49,30.48V21c0-6.38,4.17-11,13.36-11S76,14.63,76,21v9.48C76,37,71.43,42,62.36,42S49,37,49,30.48Zm18-.29V21.48C67,19.54,65.35,18,62.36,18,59.09,18,58,19.67,58,21.48v8.72C58,31.95,59.09,34,62.36,34,65.35,34,67,32.06,67,30.19Z"/><path class="cls-4" d="M81,0H97.59c7,0,11.41,4.86,11.41,12.17,0,6.67-3.8,10.71-9.42,11.59l10,16.79V41h-1.76L97.53,24H83V41H81Zm16,22c6,0,10-3.39,10-9.83S103.27,2,97.36,2H83V22Z"/><path class="cls-5" d="M112,31V21.82c0-6.43,4.13-11.06,11.86-11.06s11.88,4.51,11.88,11l0,5.23H115v4c0,4.74,3.06,8,8.86,8,5.32,0,8-3.16,8.49-7h3.16C135,37.73,131,42,123.86,42,116.13,42,112,37.45,112,31Zm20.58-6.32V21.77c0-4.62-2.93-8.07-8.84-8.07-5.68,0-8.78,3.39-8.78,8.07v2.87Z"/><path class="cls-6" d="M139,31.15V22c0-6.67,4-11.54,11.77-11.54,7.43,0,12.11,4.15,12.11,10.77V22H158.2v-.82c0-3.75-2.69-6.44-7.43-6.44-5,0-7.77,2.81-7.77,6.79v9.36c0,4,2.74,6.79,7.77,6.79,4.8,0,7.43-2.75,7.43-6.55V31h4.68v.07c0,6.55-4.74,10.88-12.11,10.88C143,42,139,37.82,139,31.15Z"/><path class="cls-7" d="M165.28,32.82c0-6.32,4.42-9.82,12.72-9.82h6V20.95c0-2.64-1.52-4.15-4.91-4.15S174,18,174,20h-7c0-6,3.66-10.11,12.09-10.11S192,14,192,20.17V41h-5l-2-2.73A12.74,12.74,0,0,1,175.58,42C170.08,42,165.28,38.85,165.28,32.82ZM184,32.06V29h-6c-4,0-5.11,1.54-5.11,2.83,0,2,1.52,3.22,4.27,3.22A8.62,8.62,0,0,0,184,32.06Z"/><path class="cls-8" d="M195,0h8V41h-8Z"/><path class="cls-9" d="M208,0h9V41h-9Z"/><rect class="cls-10" y="55" width="9" height="5"/><path class="cls-11" d="M14,60H76V55H14Z"/><path class="cls-12" d="M81,60H217V55H81Z"/></svg>