<svg id="Layer_1" data-name="Layer 1" xmlns="http://www.w3.org/2000/svg" viewBox="0 0 40 40"><defs><style>.cls-1{fill:#263238;}</style></defs><title>docМонтажная область 131</title><path class="cls-1" d="M6.07,27.2,0,18.06l1.57-1.58a5.6,5.6,0,0,1,3.66-1.57h9.43a8.16,8.16,0,0,0,5.24-2.1l8.77-6.17L12.06,23.29a13.26,13.26,0,0,0-5.52,3.43Zm7.47,6.69L11.45,36l-1-1-1,1c-.3.3-1.11-.06-1.83-.79a4.29,4.29,0,0,1-.69-.92c-1.29,1.23-2.46,2-2.72,1.71s.47-1.43,1.7-2.72a4.29,4.29,0,0,1-.92-.69c-.72-.72-1.08-1.54-.79-1.84l1-1-1-1.05,2.09-2.1a12.54,12.54,0,0,1,5.43-3.35L29.86,4.92c1.42-1,2.7-1.92,3.59-2.54C37.11-.25,39.2-.25,39.73.28s.52,2.62-2.09,6.3c-.62.89-1.54,2.17-2.54,3.6L16.88,28.44A12.57,12.57,0,0,1,13.54,33.88ZM33.61,11.25,27.45,20a8.21,8.21,0,0,0-2.1,5.25v9.46a5.74,5.74,0,0,1-1.57,3.67L22.22,40,13.1,33.91l.48-.48A13.34,13.34,0,0,0,17,27.91Zm-.16-4.67A2.64,2.64,0,0,1,34.08,9l1.82-.83A3.53,3.53,0,0,0,35,5a3.5,3.5,0,0,0-3.11-.89l-.83,1.82A2.63,2.63,0,0,1,33.44,6.58Z"/></svg>