<svg id="Layer_1" data-name="Layer 1" xmlns="http://www.w3.org/2000/svg" viewBox="0 0 36.95 50.3"><defs><style>.cls-1{fill:#333;}</style></defs><title>docМонтажная область 132</title><path class="cls-1" d="M35,25.87a19.82,19.82,0,0,1-1.35,7.38,17.12,17.12,0,0,1-3.82,5.88L37,46,32.19,50.3l-7.88-7.53a16.23,16.23,0,0,1-3.35,1,21.1,21.1,0,0,1-3.65.31A16.31,16.31,0,0,1,4.81,38.88,18.34,18.34,0,0,1,0,25.87v-7.7a18.35,18.35,0,0,1,4.81-13A16.25,16.25,0,0,1,17.29,0,16.88,16.88,0,0,1,30.07,5.17a18.07,18.07,0,0,1,4.94,13ZM27.9,18.11A13.27,13.27,0,0,0,25,9.32a9.56,9.56,0,0,0-7.75-3.44A9,9,0,0,0,9.85,9.32a13.69,13.69,0,0,0-2.73,8.79v7.76a13.85,13.85,0,0,0,2.73,8.86,9,9,0,0,0,7.47,3.45,9.5,9.5,0,0,0,7.75-3.44,13.5,13.5,0,0,0,2.84-8.88Z"/></svg>