<svg id="Layer_1" data-name="Layer 1" xmlns="http://www.w3.org/2000/svg" viewBox="0 0 40 50"><defs><style>.cls-1{fill:#fff;}</style></defs><title>recallМонтажная область 131</title><path class="cls-1" d="M39.55,12.57c-1.43,6.85-5.89,11.29-12.1,14.33a22.16,22.16,0,0,1-9.78,2.38,20.29,20.29,0,0,1-6.38-1c-1.07-.35-3.21-1.74-4.11-1.74C6.07,26.51,4.73,31,2.79,31,1.38,31,1,30.32.36,29.3a1.65,1.65,0,0,1-.36-1C0,26,4.42,24.26,4.42,23c0-.2-.58-1.36-.67-1.81a13,13,0,0,1-.2-2.29c0-7,5.64-12,12-14.07,4.58-1.5,14.31.24,17.41-2.66C34.17,1,34.78,0,36.65,0,39.17,0,40,6.45,40,8.32A21.28,21.28,0,0,1,39.55,12.57Zm-12.41-1.3c-7.9,0-13,3.26-18.15,8.87a1.39,1.39,0,0,0-.42,1,1.43,1.43,0,0,0,2.43,1c1.09-1,2.07-2,3.15-3,4-3.59,7.5-5,13-5a1.41,1.41,0,1,0,0-2.82Z"/><path class="cls-1" d="M0,50H40V45H0Z"/></svg>