<svg id="Layer_1" data-name="Layer 1" xmlns="http://www.w3.org/2000/svg" viewBox="0 0 40 32"><defs><style>.cls-1{fill:#d1d3d4;}</style></defs><title>docМонтажная область 131</title><path class="cls-1" d="M39.55,13C38.12,20,33.66,24.64,27.45,27.77a21.59,21.59,0,0,1-9.78,2.45,19.78,19.78,0,0,1-6.38-1.07c-1.07-.36-3.21-1.8-4.11-1.8C6.07,27.36,4.73,32,2.79,32,1.38,32,1,31.3.36,30.25a1.74,1.74,0,0,1-.36-1C0,26.89,4.42,25,4.42,23.73c0-.21-.58-1.41-.67-1.87a13.82,13.82,0,0,1-.2-2.36c0-7.23,5.65-12.39,12-14.52,4.58-1.54,14.31.25,17.41-2.75C34.17,1.07,34.78,0,36.65,0,39.17,0,40,6.66,40,8.59A22.37,22.37,0,0,1,39.55,13ZM27.14,11.64c-7.9,0-13,3.36-18.15,9.16a1.45,1.45,0,0,0,1,2.48,1.41,1.41,0,0,0,1-.43c1.09-1,2.07-2.09,3.15-3.11,4-3.71,7.5-5.18,13-5.18a1.45,1.45,0,0,0,0-2.91Z"/></svg>