<svg xmlns="http://www.w3.org/2000/svg" viewBox="0 0 20.43 20.43" fill="#a7c8b2"><title>Asset 1icon</title><g id="Layer_2" data-name="Layer 2"><g id="Layer_1-2" data-name="Layer 1"><circle cx="10.21" cy="10.21" r="1.78"/><path d="M14.38,7.06a1.77,1.77,0,0,0-1-1,3,3,0,0,0-1-.18c-.56,0-.73,0-2.16,0s-1.6,0-2.16,0a3,3,0,0,0-1,.18,1.77,1.77,0,0,0-1,1,3,3,0,0,0-.18,1c0,.56,0,.73,0,2.16s0,1.6,0,2.16a3,3,0,0,0,.18,1,1.77,1.77,0,0,0,1,1,3,3,0,0,0,1,.18c.56,0,.73,0,2.16,0s1.6,0,2.16,0a3,3,0,0,0,1-.18,1.77,1.77,0,0,0,1-1,3,3,0,0,0,.18-1c0-.56,0-.73,0-2.16s0-1.6,0-2.16A3,3,0,0,0,14.38,7.06ZM10.21,13A2.74,2.74,0,1,1,13,10.21,2.74,2.74,0,0,1,10.21,13Zm2.85-5a.64.64,0,1,1,.64-.64A.64.64,0,0,1,13.07,8Z"/><path d="M10.21,0A10.21,10.21,0,1,0,20.43,10.21,10.21,10.21,0,0,0,10.21,0Zm5.31,12.42a3.92,3.92,0,0,1-.25,1.3,2.73,2.73,0,0,1-1.56,1.56,3.93,3.93,0,0,1-1.3.25c-.57,0-.75,0-2.2,0s-1.63,0-2.2,0a3.93,3.93,0,0,1-1.3-.25,2.73,2.73,0,0,1-1.56-1.56,3.92,3.92,0,0,1-.25-1.3c0-.57,0-.75,0-2.2s0-1.63,0-2.2a3.92,3.92,0,0,1,.25-1.3A2.73,2.73,0,0,1,6.71,5.15,3.93,3.93,0,0,1,8,4.9c.57,0,.75,0,2.2,0s1.63,0,2.2,0a3.93,3.93,0,0,1,1.3.25,2.73,2.73,0,0,1,1.56,1.56A3.92,3.92,0,0,1,15.53,8c0,.57,0,.75,0,2.2S15.55,11.85,15.53,12.42Z"/></g></g></svg>