<svg xmlns="http://www.w3.org/2000/svg" viewBox="0 0 20.43 20.43" fill="#a7c8b2"><title>Asset 2icon</title><g id="Layer_2" data-name="Layer 2"><g id="Layer_1-2" data-name="Layer 1"><path d="M10.21,0A10.21,10.21,0,1,0,20.43,10.21,10.21,10.21,0,0,0,10.21,0Zm4,8.19c0,.09,0,.17,0,.26a5.8,5.8,0,0,1-8.93,4.88l.49,0a4.09,4.09,0,0,0,2.53-.87,2,2,0,0,1-1.9-1.42,2,2,0,0,0,.38,0A2,2,0,0,0,7.28,11,2,2,0,0,1,5.64,9V9a2.07,2.07,0,0,0,.92.25,2,2,0,0,1-.63-2.72,5.79,5.79,0,0,0,4.2,2.13,2,2,0,0,1,2-2.5,2,2,0,0,1,1.49.64,4,4,0,0,0,1.3-.5A2,2,0,0,1,14,7.45a4.13,4.13,0,0,0,1.17-.32A4.12,4.12,0,0,1,14.16,8.19Z"/></g></g></svg>