<svg xmlns="http://www.w3.org/2000/svg" xmlns:xlink="http://www.w3.org/1999/xlink" viewBox="0 0 120.19 33.21"><defs><style>.cls-1{fill:url(#linear-gradient);}.cls-2{fill:url(#linear-gradient-2);}.cls-3{fill:url(#linear-gradient-3);}.cls-4{fill:url(#linear-gradient-4);}.cls-5{fill:url(#linear-gradient-5);}.cls-6{fill:url(#linear-gradient-6);}.cls-7{fill:url(#linear-gradient-7);}.cls-8{fill:url(#linear-gradient-8);}.cls-9{fill:url(#linear-gradient-9);}.cls-10{fill:#ec2227;}.cls-11{fill:#fbb03b;}.cls-12{fill:#95c8b1;}</style><linearGradient id="linear-gradient" x1="2.56" y1="22.56" x2="2.56" y2="0.32" gradientUnits="userSpaceOnUse"><stop offset="0" stop-color="#cdcccb"/><stop offset="1" stop-color="#fff"/></linearGradient><linearGradient id="linear-gradient-2" x1="16.69" y1="22.56" x2="16.69" y2="0.48" xlink:href="#linear-gradient"/><linearGradient id="linear-gradient-3" x1="34.48" y1="23.01" x2="34.48" y2="5.56" xlink:href="#linear-gradient"/><linearGradient id="linear-gradient-4" x1="52.75" y1="22.56" x2="52.75" y2="0.48" xlink:href="#linear-gradient"/><linearGradient id="linear-gradient-5" x1="68.5" y1="23.01" x2="68.5" y2="6.2" xlink:href="#linear-gradient"/><linearGradient id="linear-gradient-6" x1="83.39" y1="23.01" x2="83.39" y2="6.04" xlink:href="#linear-gradient"/><linearGradient id="linear-gradient-7" x1="98.2" y1="23.01" x2="98.2" y2="5.72" xlink:href="#linear-gradient"/><linearGradient id="linear-gradient-8" x1="110.21" y1="22.56" x2="110.21" y2="0.32" xlink:href="#linear-gradient"/><linearGradient id="linear-gradient-9" x1="117.56" y1="22.56" x2="117.56" y2="0.32" xlink:href="#linear-gradient"/></defs><title>Asset 1</title><g id="Layer_2" data-name="Layer 2"><g id="Layer_1_copy" data-name="Layer 1 copy"><path class="cls-1" d="M0,0H5.12V3.73H0ZM0,5.7H5.12V22.83H0Z"/><path class="cls-2" d="M7.9.16h8.39c5.7,0,9.19,2.79,9.19,7.74v7.19c0,5-3.5,7.74-9.19,7.74H7.9ZM16.29,18c2.53,0,3.63-1.49,3.63-2.75V7.77c0-1.29-1.1-2.75-3.63-2.75H13.47V18Z"/><path class="cls-3" d="M26.87,16.87V11.62c0-3.53,2.56-6.31,7.64-6.31s7.58,2.79,7.58,6.31v5.25c0,3.59-2.56,6.35-7.58,6.35S26.87,20.46,26.87,16.87ZM37,16.71V11.89c0-1.07-.81-2-2.46-2-1.81,0-2.52,1-2.52,2v4.82c0,1,.71,1.91,2.52,1.91C36.16,18.62,37,17.75,37,16.71Z"/><path class="cls-4" d="M44.85.16H54c3.89,0,6.12,2.53,6.12,6.57,0,3.69-1.91,5.92-5,6.41l5.54,9.29v.39h-1L54,13.31H45.88v9.52h-1Zm8.87,12.17c3.3,0,5.34-2,5.34-5.6s-1.91-5.6-5.18-5.6h-8v11.2Z"/><path class="cls-5" d="M61.88,17.13V12.08c0-3.56,2.4-6.12,6.67-6.12S75.12,8.45,75.12,12v3.14H63.62V17.1c0,2.62,1.72,4.5,4.92,4.5,2.95,0,4.4-1.52,4.7-3.66H75c-.26,3.17-2.49,5.28-6.44,5.28C64.27,23.22,61.88,20.72,61.88,17.13Zm11.5-3.5V12c0-2.56-1.62-4.47-4.89-4.47S63.62,9.46,63.62,12v1.59Z"/><path class="cls-6" d="M76.64,17V12c0-3.69,2.53-6.18,6.8-6.18,4.11,0,6.7,2.3,6.7,6v.16H87.55v-.19c0-2.07-1.49-3.56-4.11-3.56-2.78,0-4.21,1.55-4.21,3.76V17.1c0,2.2,1.43,3.76,4.21,3.76s4.11-1.52,4.11-3.63V17h2.59v.19c0,3.63-2.62,6-6.7,6C79.17,23.22,76.64,20.72,76.64,17Z"/><path class="cls-7" d="M90.92,18.17c0-3.5,2.27-5.5,6.86-5.5h3.5V11.59c0-1.46-.84-2.3-2.72-2.3s-2.72.84-2.72,1.94H91.73c0-3.34,2.17-5.76,6.83-5.76s6.93,2.43,6.93,5.83V22.83h-2.43l-1.23-1.65a7.06,7.06,0,0,1-5.21,2C93.57,23.22,90.92,21.5,90.92,18.17Zm10.36-.42V15.87h-3.5c-2.2,0-2.65,1-2.65,1.75,0,1.13.84,1.78,2.36,1.78A4.77,4.77,0,0,0,101.28,17.75Z"/><path class="cls-8" d="M107.91,0h4.6V22.83h-4.6Z"/><path class="cls-9" d="M115,0h5.12V22.83H115Z"/><rect class="cls-10" x="0.01" y="30.45" width="5.11" height="2.76"/><path class="cls-11" d="M7.9,33.21H42.08V30.45H7.9Z"/><path class="cls-12" d="M44.81,33.21h75.38V30.45H44.81Z"/></g></g></svg>