<svg xmlns="http://www.w3.org/2000/svg" xmlns:xlink="http://www.w3.org/1999/xlink" viewBox="0 0 127.43 89.71"><defs><linearGradient id="31384d61-4ebc-441d-a503-2c2fd0b05dee" x1="7.49" y1="65.68" x2="7.49" y2="1.4" gradientUnits="userSpaceOnUse"><stop offset="0" stop-color="#cdcccb"/><stop offset="1" stop-color="#fff"/></linearGradient><linearGradient id="9c4356f8-0d41-4323-a615-eafe1abdcf8d" x1="48.64" y1="65.68" x2="48.64" y2="1.4" xlink:href="#31384d61-4ebc-441d-a503-2c2fd0b05dee"/><linearGradient id="32acdbc2-e28f-4ce2-8e05-1275da70a377" x1="104.33" y1="65.68" x2="104.33" y2="1.4" gradientUnits="userSpaceOnUse"><stop offset="0" stop-color="#cdcccb"/><stop offset="0.21" stop-color="#e3e2e1"/><stop offset="0.43" stop-color="#f2f2f2"/><stop offset="0.68" stop-color="#fcfcfc"/><stop offset="1" stop-color="#fff"/></linearGradient></defs><title>Asset 30</title><g id="e467d684-088a-4740-8ba0-191e338e8ccd" data-name="Layer 2"><g id="83c94a5b-17ce-463d-934e-d40fe07a4209" data-name="Layer 1"><path d="M0,0h14.9V10.84H0ZM0,16.59h14.9V66.47H0Z" fill="url(#31384d61-4ebc-441d-a503-2c2fd0b05dee)"/><path d="M23,.47H47.47C64.06.47,74.24,8.58,74.24,23V43.94c0,14.6-10.18,22.52-26.77,22.52H23ZM47.47,52.33c7.35,0,10.55-4.34,10.55-8V22.63c0-3.78-3.2-8-10.55-8H39.26V52.33Z" fill="url(#9c4356f8-0d41-4323-a615-eafe1abdcf8d)"/><path d="M81.32.47H108c11.31,0,17.82,7.36,17.82,19.14,0,10.75-5.57,17.25-14.62,18.67l16.12,27v1.13H124.5L107.91,38.75H84.34V66.47h-3Zm25.83,35.45c9.61,0,15.56-5.93,15.56-16.3,0-10.18-5.56-16.31-15.09-16.31H84.34V35.92Z" fill="url(#32acdbc2-e28f-4ce2-8e05-1275da70a377)"/><rect y="81.68" width="14.88" height="8.03" fill="#ec2227"/><rect x="22.92" y="81.43" width="16.38" height="8.03" fill="#fbb03b"/><rect x="46.55" y="81.43" width="80.89" height="8.03" fill="#95c8b1"/></g></g></svg>