<?xml version="1.0" encoding="utf-8"?>
<!-- Generator: Adobe Illustrator 21.0.0, SVG Export Plug-In . SVG Version: 6.00 Build 0)  -->
<svg version="1.1" id="Слой_1" xmlns="http://www.w3.org/2000/svg" xmlns:xlink="http://www.w3.org/1999/xlink" x="0px" y="0px"
	 viewBox="0 0 519.3 380" style="enable-background:new 0 0 519.3 380;" xml:space="preserve">
<style type="text/css">
	.st0{opacity:0.05;}
	.st1{opacity:0.97;}
	.st2{fill:#FFFFFF;}
	.st3{fill:#E6E7E8;}
	.st4{fill:#A7A9AC;}
	.st5{fill:#BCBEC0;}
	.st6{fill:#F1F2F2;}
</style>
<g>
	<g>
		<g class="st0">
			<rect x="39.1" y="53.2" transform="matrix(0.9858 -0.1678 0.1678 0.9858 -22.0159 35.7535)" width="322.9" height="189.8"/>
			<path d="M395.6,228.8l-352.4,60L5.5,67.5l352.4-60L395.6,228.8z M71.4,248.9l284.3-48.4L329.7,47.4L45.4,95.8L71.4,248.9z"/>
			<path d="M134.8,118.3l13.3-2.3l1.6,9.7l-13.3,2.3L134.8,118.3z M137.3,133l13.3-2.3l7.6,44.4l-13.3,2.3L137.3,133z"/>
			<path d="M155.3,115.2l21.7-3.7c14.8-2.5,25.1,3.2,27.2,16l3.2,18.6c2.2,13-5.7,21.6-20.4,24.1l-21.7,3.7L155.3,115.2z
				 M184.9,157.7c6.5-1.1,8.7-5.5,8.2-8.7l-3.3-19.3c-0.6-3.4-4.1-6.7-10.6-5.5l-7.3,1.2l5.7,33.6L184.9,157.7z"/>
			<path d="M207.2,106.4l23.8-4c10.1-1.7,17,3.9,18.8,14.3c1.6,9.6-2.3,16.2-10.2,18.8l18.5,21.6l0.2,1l-2.5,0.4l-19-22.2l-21,3.6
				l4.2,24.7l-2.7,0.5L207.2,106.4z M235.6,134c8.6-1.5,13-7.6,11.4-16.9c-1.5-9.1-7.4-13.7-15.9-12.2l-20.7,3.5l4.9,29L235.6,134z"
				/>
			<rect x="147.6" y="189.8" transform="matrix(0.9858 -0.1678 0.1678 0.9858 -30.2672 28.644)" width="13.4" height="7.3"/>
			<rect x="168" y="186" transform="matrix(0.9858 -0.1678 0.1678 0.9858 -29.3297 32.1183)" width="14.8" height="7.3"/>
			<rect x="188.6" y="177.5" transform="matrix(0.9858 -0.1678 0.1678 0.9858 -27.204 40.3457)" width="73" height="7.3"/>
		</g>
		<g>
			<g>
				<g class="st1">

						<rect x="34.1" y="46.2" transform="matrix(0.9858 -0.1678 0.1678 0.9858 -20.9122 34.8153)" class="st2" width="322.9" height="189.8"/>
					<path class="st3" d="M390.6,221.8l-352.4,60L0.5,60.5l352.4-60L390.6,221.8z M66.4,241.9l284.3-48.4L324.7,40.4L40.4,88.8
						L66.4,241.9z"/>
				</g>
				<g>
					<path class="st4" d="M129.8,111.3l13.3-2.3l1.6,9.7l-13.3,2.3L129.8,111.3z M132.3,126l13.3-2.3l7.6,44.4l-13.3,2.3L132.3,126z
						"/>
					<path class="st4" d="M150.3,108.2l21.7-3.7c14.8-2.5,25.1,3.2,27.2,16l3.2,18.6c2.2,13-5.7,21.6-20.4,24.1l-21.7,3.7
						L150.3,108.2z M179.9,150.7c6.5-1.1,8.7-5.5,8.2-8.7l-3.3-19.3c-0.6-3.4-4.1-6.7-10.6-5.5l-7.3,1.2l5.7,33.6L179.9,150.7z"/>
					<path class="st4" d="M202.2,99.4l23.8-4c10.1-1.7,17,3.9,18.8,14.3c1.6,9.6-2.3,16.2-10.2,18.8l18.5,21.6l0.2,1l-2.5,0.4
						l-19-22.2l-21,3.6l4.2,24.7l-2.7,0.5L202.2,99.4z M230.6,127c8.6-1.5,13-7.6,11.4-16.9c-1.5-9.1-7.4-13.7-15.9-12.2l-20.7,3.5
						l4.9,29L230.6,127z"/>

						<rect x="142.6" y="182.8" transform="matrix(0.9858 -0.1678 0.1678 0.9858 -29.1635 27.7058)" class="st5" width="13.4" height="7.3"/>

						<rect x="163" y="179" transform="matrix(0.9858 -0.1678 0.1678 0.9858 -28.226 31.18)" class="st6" width="14.8" height="7.3"/>

						<rect x="183.6" y="170.5" transform="matrix(0.9858 -0.1678 0.1678 0.9858 -26.1003 39.4074)" class="st3" width="73" height="7.3"/>
				</g>
			</g>
		</g>
	</g>
	<g>
		<g class="st0">
			<rect x="199.6" y="-6.6" transform="matrix(0.1645 -0.9864 0.9864 0.1645 93.3115 419.8076)" width="189.8" height="322.9"/>
			<path d="M452.3,294.9L99.7,236.1l36.9-221.3l352.6,58.8L452.3,294.9z M139.5,207.7l284.5,47.5L449.5,102L165,54.5L139.5,207.7z"
				/>
			<path d="M242.1,105l13.3,2.2l-1.6,9.7l-13.3-2.2L242.1,105z M239.7,119.8l13.3,2.2l-7.4,44.4l-13.3-2.2L239.7,119.8z"/>
			<path d="M262.6,108.9l21.8,3.6c14.8,2.5,22.6,11.2,20.5,24.1l-3.1,18.6c-2.2,13-12.4,18.5-27.2,16.1l-21.8-3.6L262.6,108.9z
				 M276.6,158.7c6.5,1.1,10-2.3,10.6-5.6l3.2-19.3c0.6-3.4-1.7-7.6-8.2-8.7l-7.3-1.2l-5.6,33.6L276.6,158.7z"/>
			<path d="M314.5,117.5l23.8,4c10.1,1.7,14.8,9.2,13,19.7c-1.6,9.6-7.5,14.5-15.8,14.5l10.3,26.5l-0.2,1l-2.5-0.4l-10.7-27.2
				l-21-3.5l-4.1,24.7l-2.7-0.4L314.5,117.5z M332.2,152.9c8.6,1.4,14.7-3,16.3-12.2c1.5-9.1-2.5-15.4-11-16.8l-20.7-3.5l-4.8,29
				L332.2,152.9z"/>
			<rect x="232.4" y="175.7" transform="matrix(0.1645 -0.9864 0.9864 0.1645 17.2002 385.2084)" width="7.3" height="13.4"/>
			<rect x="253.5" y="178.3" transform="matrix(0.1645 -0.9864 0.9864 0.1645 31.5918 408.7882)" width="7.3" height="14.8"/>
			<rect x="303.3" y="157.5" transform="matrix(0.1645 -0.9864 0.9864 0.1645 64.9848 464.819)" width="7.3" height="73"/>
		</g>
		<g>
			<g>
				<g class="st1">

						<rect x="194.6" y="-13.6" transform="matrix(0.1645 -0.9864 0.9864 0.1645 96.0388 409.0275)" class="st2" width="189.8" height="322.9"/>
					<path class="st3" d="M447.3,287.9L94.7,229.1L131.6,7.8l352.6,58.8L447.3,287.9z M134.5,200.7l284.5,47.5L444.5,95L160,47.5
						L134.5,200.7z"/>
				</g>
				<g>
					<path class="st4" d="M237.1,98l13.3,2.2l-1.6,9.7l-13.3-2.2L237.1,98z M234.7,112.8l13.3,2.2l-7.4,44.4l-13.3-2.2L234.7,112.8z
						"/>
					<path class="st4" d="M257.6,101.9l21.8,3.6c14.8,2.5,22.6,11.2,20.5,24.1l-3.1,18.6c-2.2,13-12.4,18.5-27.2,16.1l-21.8-3.6
						L257.6,101.9z M271.6,151.7c6.5,1.1,10-2.3,10.6-5.6l3.2-19.3c0.6-3.4-1.7-7.6-8.2-8.7l-7.3-1.2l-5.6,33.6L271.6,151.7z"/>
					<path class="st4" d="M309.5,110.5l23.8,4c10.1,1.7,14.8,9.2,13,19.7c-1.6,9.6-7.5,14.5-15.8,14.5l10.3,26.5l-0.2,1l-2.5-0.4
						l-10.7-27.2l-21-3.5l-4.1,24.7l-2.7-0.4L309.5,110.5z M327.2,145.9c8.6,1.4,14.7-3,16.3-12.2c1.5-9.1-2.5-15.4-11-16.8
						l-20.7-3.5l-4.8,29L327.2,145.9z"/>

						<rect x="227.4" y="168.7" transform="matrix(0.1645 -0.9864 0.9864 0.1645 19.9275 374.4283)" class="st5" width="7.3" height="13.4"/>

						<rect x="248.5" y="171.3" transform="matrix(0.1645 -0.9864 0.9864 0.1645 34.3191 398.0082)" class="st6" width="7.3" height="14.8"/>

						<rect x="298.3" y="150.5" transform="matrix(0.1645 -0.9864 0.9864 0.1645 67.7122 454.0389)" class="st3" width="7.3" height="73"/>
				</g>
			</g>
		</g>
	</g>
	<g>
		<g class="st0">
			<rect x="229" y="76.7" transform="matrix(0.1715 -0.9852 0.9852 0.1715 33.7373 516.4771)" width="189.8" height="322.9"/>
			<path d="M480.8,379.4l-352.2-61.3L167.1,97l352.2,61.3L480.8,379.4z M168.6,290l284.1,49.4l26.6-153L195.2,137L168.6,290z"/>
			<path d="M271.9,188l13.3,2.3l-1.7,9.6l-13.3-2.3L271.9,188z M269.4,202.8l13.3,2.3l-7.7,44.4l-13.3-2.3L269.4,202.8z"/>
			<path d="M292.3,192l21.7,3.8c14.8,2.6,22.6,11.4,20.3,24.2l-3.2,18.6c-2.3,13-12.5,18.5-27.3,15.9l-21.7-3.8L292.3,192z
				 M306,241.9c6.5,1.1,10.1-2.2,10.6-5.5l3.4-19.3c0.6-3.4-1.6-7.6-8.1-8.8l-7.3-1.3l-5.8,33.6L306,241.9z"/>
			<path d="M344.2,201l23.7,4.1c10.1,1.8,14.7,9.3,12.9,19.8c-1.7,9.6-7.6,14.5-15.9,14.3l10.2,26.6l-0.2,1l-2.5-0.4l-10.5-27.2
				l-21-3.6l-4.3,24.7l-2.7-0.5L344.2,201z M361.7,236.6c8.6,1.5,14.8-2.9,16.4-12.1c1.6-9.1-2.4-15.4-10.9-16.8l-20.7-3.6l-5,29
				L361.7,236.6z"/>
			<rect x="261.6" y="258.7" transform="matrix(0.1715 -0.9852 0.9852 0.1715 -41.6922 481.2264)" width="7.3" height="13.4"/>
			<rect x="282.7" y="261.4" transform="matrix(0.1715 -0.9852 0.9852 0.1715 -27.608 504.8577)" width="7.3" height="14.8"/>
			<rect x="332.4" y="241" transform="matrix(0.1715 -0.9852 0.9852 0.1715 5.0583 561.0031)" width="7.3" height="73"/>
		</g>
		<g>
			<g>
				<g class="st1">

						<rect x="224" y="69.7" transform="matrix(0.1715 -0.9852 0.9852 0.1715 36.4909 505.7513)" class="st2" width="189.8" height="322.9"/>
					<path class="st3" d="M475.8,372.4l-352.2-61.3L162.1,90l352.2,61.3L475.8,372.4z M163.6,283l284.1,49.4l26.6-153L190.2,130
						L163.6,283z"/>
				</g>
				<g>
					<path class="st4" d="M266.9,181l13.3,2.3l-1.7,9.6l-13.3-2.3L266.9,181z M264.4,195.8l13.3,2.3l-7.7,44.4l-13.3-2.3
						L264.4,195.8z"/>
					<path class="st4" d="M287.3,185l21.7,3.8c14.8,2.6,22.6,11.4,20.3,24.2l-3.2,18.6c-2.3,13-12.5,18.5-27.3,15.9l-21.7-3.8
						L287.3,185z M301,234.9c6.5,1.1,10.1-2.2,10.6-5.5l3.4-19.3c0.6-3.4-1.6-7.6-8.1-8.8l-7.3-1.3l-5.8,33.6L301,234.9z"/>
					<path class="st4" d="M339.2,194l23.7,4.1c10.1,1.8,14.7,9.3,12.9,19.8c-1.7,9.6-7.6,14.5-15.9,14.3l10.2,26.6l-0.2,1l-2.5-0.4
						l-10.5-27.2l-21-3.6l-4.3,24.7l-2.7-0.5L339.2,194z M356.7,229.6c8.6,1.5,14.8-2.9,16.4-12.1c1.6-9.1-2.4-15.4-10.9-16.8
						l-20.7-3.6l-5,29L356.7,229.6z"/>

						<rect x="256.6" y="251.7" transform="matrix(0.1715 -0.9852 0.9852 0.1715 -38.9386 470.5006)" class="st5" width="7.3" height="13.4"/>

						<rect x="277.7" y="254.4" transform="matrix(0.1715 -0.9852 0.9852 0.1715 -24.8544 494.1319)" class="st6" width="7.3" height="14.8"/>

						<rect x="327.4" y="234" transform="matrix(0.1715 -0.9852 0.9852 0.1715 7.8119 550.2772)" class="st3" width="7.3" height="73"/>
				</g>
			</g>
		</g>
	</g>
	<g>
		<g class="st0">
			<rect x="159" y="-11.1" transform="matrix(7.598385e-03 -1 1 7.598385e-03 101.6079 403.1317)" width="189.8" height="322.9"/>
			<path d="M431.8,263.9l-357.5-2.7L76,36.8l357.5,2.7L431.8,263.9z M109.1,226.9l288.4,2.2l1.2-155.3l-288.4-2.2L109.1,226.9z"/>
			<path d="M194.4,109.4l13.5,0.1l-0.1,9.8l-13.5-0.1L194.4,109.4z M194.3,124.4l13.5,0.1l-0.3,45l-13.5-0.1L194.3,124.4z"/>
			<path d="M215.2,110l22.1,0.2c15,0.1,24.1,7.5,24,20.5l-0.1,18.9c-0.1,13.2-9.3,20.3-24.3,20.2l-22.1-0.2L215.2,110z M236.9,157
				c6.6,0.1,9.6-3.8,9.6-7.2l0.1-19.6c0-3.4-2.8-7.3-9.5-7.3l-7.4-0.1l-0.3,34.1L236.9,157z"/>
			<path d="M267.8,110.4l24.1,0.2c10.2,0.1,16,6.8,16,17.4c-0.1,9.7-5.1,15.5-13.3,16.8l14.4,24.5l0,1l-2.6,0l-14.8-25.1l-21.3-0.2
				l-0.2,25l-2.7,0L267.8,110.4z M290.9,142.6c8.7,0.1,14.1-5.2,14.2-14.6c0.1-9.2-4.9-14.8-13.5-14.8l-21-0.2l-0.2,29.4
				L290.9,142.6z"/>
			<rect x="196.9" y="180.1" transform="matrix(7.597363e-03 -1 1 7.597363e-03 12.1279 385.9123)" width="7.3" height="13.4"/>
			<rect x="218.2" y="179.4" transform="matrix(7.599780e-03 -1 1 7.599780e-03 33.3991 407.2202)" width="7.3" height="14.8"/>
			<rect x="268.7" y="150.6" transform="matrix(7.597624e-03 -1 1 7.597624e-03 83.0911 458.058)" width="7.3" height="73"/>
		</g>
		<g>
			<g>
				<g class="st1">

						<rect x="154" y="-18.1" transform="matrix(7.598385e-03 -1 1 7.598385e-03 103.6457 391.185)" class="st2" width="189.8" height="322.9"/>
					<path class="st3" d="M426.8,256.9l-357.5-2.7L71,29.8l357.5,2.7L426.8,256.9z M104.1,219.9l288.4,2.2l1.2-155.3l-288.4-2.2
						L104.1,219.9z"/>
				</g>
				<g>
					<path class="st4" d="M189.4,102.4l13.5,0.1l-0.1,9.8l-13.5-0.1L189.4,102.4z M189.3,117.4l13.5,0.1l-0.3,45l-13.5-0.1
						L189.3,117.4z"/>
					<path class="st4" d="M210.2,103l22.1,0.2c15,0.1,24.1,7.5,24,20.5l-0.1,18.9c-0.1,13.2-9.3,20.3-24.3,20.2l-22.1-0.2L210.2,103
						z M231.9,150c6.6,0.1,9.6-3.8,9.6-7.2l0.1-19.6c0-3.4-2.8-7.3-9.5-7.3l-7.4-0.1l-0.3,34.1L231.9,150z"/>
					<path class="st4" d="M262.8,103.4l24.1,0.2c10.2,0.1,16,6.8,16,17.4c-0.1,9.7-5.1,15.5-13.3,16.8l14.4,24.5l0,1l-2.6,0
						l-14.8-25.1l-21.3-0.2l-0.2,25l-2.7,0L262.8,103.4z M285.9,135.6c8.7,0.1,14.1-5.2,14.2-14.6c0.1-9.2-4.9-14.8-13.5-14.8
						l-21-0.2l-0.2,29.4L285.9,135.6z"/>

						<rect x="191.9" y="173.1" transform="matrix(7.597363e-03 -1 1 7.597363e-03 14.1657 373.9656)" class="st5" width="7.3" height="13.4"/>

						<rect x="213.2" y="172.4" transform="matrix(7.599780e-03 -1 1 7.599780e-03 35.4369 395.2736)" class="st6" width="7.3" height="14.8"/>

						<rect x="263.7" y="143.6" transform="matrix(7.597624e-03 -1 1 7.597624e-03 85.1289 446.1113)" class="st3" width="7.3" height="73"/>
				</g>
			</g>
		</g>
	</g>
</g>
</svg>
