<svg xmlns="http://www.w3.org/2000/svg" viewBox="0 0 159.78 76.56"><defs><style>.cls-1{fill:#95c8b1;}</style></defs><title>Asset 27arrow</title><g id="Layer_2" data-name="Layer 2"><g id="Layer_1-2" data-name="Layer 1"><path class="cls-1" d="M159.53,72.88C154.38,60.6,148.71,48.5,137.15,41c-12.32-8-27.34-13-41.24-17.5A306.23,306.23,0,0,0,18.2,9.35Q24,7.12,30,5.42c3.36-.95,2.44-6-1.07-5.36A70.22,70.22,0,0,0,4.45,9.2a2.92,2.92,0,0,0-.24.18c-1,.49-2,1-3,1.5-1.67.86-1.5,3.44-.24,4.51Q8.86,22,16.73,28.74c2.89,2.46,6.78-2,3.85-4.47L9.23,14.84A292.9,292.9,0,0,1,90.78,28.57c13.1,4.19,26.32,9,38.55,15.32,13,6.73,19.06,17.94,24.73,30.88C155.55,78.14,161,76.33,159.53,72.88Z"/></g></g></svg>