<svg xmlns="http://www.w3.org/2000/svg" viewBox="0 0 420.51 228.25"><defs><style>.cls-1{fill:none;}.cls-1,.cls-2,.cls-3,.cls-4,.cls-5{stroke:#263238;stroke-miterlimit:10;}.cls-1,.cls-3,.cls-4,.cls-5{stroke-width:7.05px;}.cls-2{fill:#fff;stroke-width:9.3px;}.cls-3{fill:#fbb03b;}.cls-4{fill:#ec2227;}.cls-5{fill:#95c8b1;}.cls-6{fill:#263238;}</style></defs><title>Asset 7iDR-illustration</title><g id="Layer_2" data-name="Layer 2"><g id="Layer_1_copy" data-name="Layer 1 copy"><line class="cls-1" x1="104.67" y1="188.94" x2="227.09" y2="120.38"/><line class="cls-1" x1="370.11" y1="73.51" x2="227.09" y2="120.38"/><line class="cls-1" x1="323.23" y1="163.64" x2="229.03" y2="120.38"/><line class="cls-1" x1="149.7" y1="39.31" x2="229.03" y2="120.38"/><line class="cls-1" x1="28.83" y1="50.27" x2="229.03" y2="120.38"/><line class="cls-1" x1="320.45" y1="163.95" x2="104.67" y2="188.94"/><circle class="cls-2" cx="227.34" cy="119.65" r="40.71"/><line class="cls-1" x1="30.97" y1="50.16" x2="104.67" y2="188.94"/><line class="cls-1" x1="104.67" y1="188.94" x2="149.7" y2="39.31"/><circle class="cls-3" cx="104.67" cy="188.94" r="35.78"/><line class="cls-1" x1="28.83" y1="50.27" x2="149.7" y2="39.31"/><line class="cls-1" x1="149.7" y1="39.31" x2="372.04" y2="73.51"/><circle class="cls-3" cx="149.7" cy="39.31" r="35.78"/><line class="cls-1" x1="323.23" y1="163.64" x2="370.11" y2="73.51"/><circle class="cls-3" cx="323.23" cy="163.64" r="25.3"/><circle class="cls-4" cx="28.83" cy="50.27" r="25.3"/><circle class="cls-5" cx="370.11" cy="73.51" r="46.87"/><path class="cls-6" d="M118.67,182.17l-3.8,3.8,3.78,16.44a.78.78,0,0,1-.28.78l-3,2.27a.72.72,0,0,1-.45.14.45.45,0,0,1-.17,0,.67.67,0,0,1-.5-.38l-6.59-12-6.12,6.12,1.25,4.58a.77.77,0,0,1-.19.73l-2.27,2.27a.79.79,0,0,1-.54.21h0a.76.76,0,0,1-.57-.31l-4.46-6-6-4.46a.72.72,0,0,1-.31-.54.79.79,0,0,1,.21-.59L90.92,193a.79.79,0,0,1,.54-.21.45.45,0,0,1,.19,0L96.23,194l6.12-6.12-12-6.59a.83.83,0,0,1-.4-.57.81.81,0,0,1,.21-.64l3-3a.79.79,0,0,1,.71-.19l15.7,3.75,3.78-3.78c2.27-2.27,6-3.78,7.56-2.27S120.94,179.91,118.67,182.17Z"/><path class="cls-6" d="M160.4,50.47H140.2a8.31,8.31,0,0,1-3.53-15.84c0-.26,0-.54,0-.8a9.51,9.51,0,0,1,18.3-3.6A4.61,4.61,0,0,1,158,29.08a4.76,4.76,0,0,1,4.75,4.75,4.68,4.68,0,0,1-.76,2.56,7.13,7.13,0,0,1-1.61,14.07Z"/><path class="cls-6" d="M248.48,135.56a2.27,2.27,0,0,1-2.27,2.27h-7.55a2.27,2.27,0,0,1-2.27-2.27V128a2.27,2.27,0,0,1,2.27-2.27h2.27v-4.53H228.85v4.53h2.27a2.27,2.27,0,0,1,2.27,2.27v7.55a2.27,2.27,0,0,1-2.27,2.27h-7.55a2.27,2.27,0,0,1-2.27-2.27V128a2.27,2.27,0,0,1,2.27-2.27h2.27v-4.53H213.75v4.53H216a2.27,2.27,0,0,1,2.27,2.27v7.55a2.27,2.27,0,0,1-2.27,2.27h-7.55a2.27,2.27,0,0,1-2.27-2.27V128a2.27,2.27,0,0,1,2.27-2.27h2.27v-4.53a3,3,0,0,1,3-3h12.08v-4.53h-2.27a2.27,2.27,0,0,1-2.27-2.27v-7.55a2.27,2.27,0,0,1,2.27-2.27h7.55a2.27,2.27,0,0,1,2.27,2.27v7.55a2.27,2.27,0,0,1-2.27,2.27h-2.27v4.53h12.08a3,3,0,0,1,3,3v4.53h2.27a2.27,2.27,0,0,1,2.27,2.27Z"/><path class="cls-6" d="M386.42,55.7l-6,36.27a1.52,1.52,0,0,1-.76,1.06,1.54,1.54,0,0,1-.73.19,1.61,1.61,0,0,1-.57-.12l-10.7-4.37-5.72,7a1.46,1.46,0,0,1-1.16.54,1.35,1.35,0,0,1-.52-.1,1.51,1.51,0,0,1-1-1.42V86.49l20.4-25L354.4,83.33l-9.33-3.83a1.5,1.5,0,0,1-.95-1.3,1.53,1.53,0,0,1,.76-1.39l39.3-22.67a1.46,1.46,0,0,1,.76-.21,1.51,1.51,0,0,1,.85.26A1.53,1.53,0,0,1,386.42,55.7Z"/><path class="cls-6" d="M37.9,43.79V54.37c0,2-2.26,3.7-5.09,3.77l2.52,2.39a.38.38,0,0,1-.26.65H22.59a.38.38,0,0,1-.26-.65l2.52-2.39c-2.83-.07-5.09-1.72-5.09-3.77V43.79C19.76,41.7,22.13,40,25,40h7.56C35.52,40,37.9,41.7,37.9,43.79ZM35.63,43H22v6h13.6ZM31.09,53.61a2.27,2.27,0,1,0-2.27,2.27A2.27,2.27,0,0,0,31.09,53.61Z"/><path class="cls-6" d="M332.55,171.15H331v1.55a1.55,1.55,0,1,1-3.1,0v-1.55h-9.31v1.55a1.55,1.55,0,1,1-3.1,0v-1.55h-1.55v-7.31a11.26,11.26,0,0,1,.3-2.7l1.25-5.5c.23-1.94,3.62-3.1,7.76-3.1s7.53,1.16,7.76,3.1l1.27,5.5a11.27,11.27,0,0,1,.28,2.7ZM317,165.72a1.55,1.55,0,1,0,1.55,1.55A1.55,1.55,0,0,0,317,165.72Zm12.54-7.91a.78.78,0,0,0-.76-.63H317.68a.78.78,0,0,0-.76.63l-.87,4.66a.78.78,0,0,0,.76.92h12.88a.78.78,0,0,0,.76-.92Zm-2.45-3.35h-7.76a.58.58,0,1,0,0,1.16h7.76a.58.58,0,1,0,0-1.16Zm2.33,11.25a1.55,1.55,0,1,0,1.55,1.55A1.55,1.55,0,0,0,329.45,165.72Z"/></g></g></svg>