<svg xmlns="http://www.w3.org/2000/svg" viewBox="0 0 188.02 188.02"><defs><style>.cls-1{fill:#fff;stroke:#263238;stroke-width:9.3px;}.cls-1,.cls-3,.cls-4,.cls-5{stroke-miterlimit:10;}.cls-2{fill:#263238;}.cls-3,.cls-4,.cls-5{fill:none;stroke-width:10.3px;}.cls-3{stroke:#95c8b1;}.cls-4{stroke:#fbb03b;}.cls-5{stroke:#ec2227;}</style></defs><title>Asset 6iDR-illustration</title><g id="Layer_2" data-name="Layer 2"><g id="Layer_1_copy" data-name="Layer 1 copy"><circle class="cls-1" cx="94.01" cy="94.01" r="80.22"/><path class="cls-2" d="M137.74,82.31,57.07,163a4.09,4.09,0,0,1-5.65,0L39,150.57a4.1,4.1,0,0,1,0-5.65l80.68-80.67a4.09,4.09,0,0,1,5.65,0l12.42,12.42a4.1,4.1,0,0,1,0,5.65ZM60.27,69.45l-6.15,1.88-1.88,6.15-1.88-6.15-6.15-1.88,6.15-1.88,1.88-6.15,1.88,6.15Zm28.1,12-12.3,3.76-3.76,12.3-3.76-12.3L56.25,81.5l12.3-3.76,3.76-12.3,3.76,12.3Zm12-12-6.15,1.88-1.88,6.15-1.88-6.15-6.15-1.88,6.15-1.88,1.88-6.15,1.88,6.15Zm28.79,10-6.71-6.71L104.12,91.16l6.71,6.71Zm11.36,30.11-6.15,1.88-1.88,6.15-1.88-6.15-6.15-1.88,6.15-1.88,1.88-6.15,1.88,6.15Z"/><path class="cls-3" d="M94,5.15A88.86,88.86,0,1,1,27.5,152.94"/><path class="cls-4" d="M5.15,94A88.86,88.86,0,0,1,94,5.15"/><path class="cls-5" d="M27.5,152.94A88.53,88.53,0,0,1,5.15,94"/></g></g></svg>