<svg xmlns="http://www.w3.org/2000/svg" viewBox="0 0 320.34 191.48"><defs><style>.cls-1,.cls-17{fill:#95c8b1;}.cls-2{fill:#ec2227;}.cls-10,.cls-11,.cls-12,.cls-16,.cls-3,.cls-4,.cls-9{fill:#fff;}.cls-17,.cls-3{fill-opacity:0.5;}.cls-10,.cls-11,.cls-12,.cls-14,.cls-15,.cls-16,.cls-17,.cls-18,.cls-19,.cls-3,.cls-4,.cls-6,.cls-9{stroke:#263238;}.cls-10,.cls-11,.cls-12,.cls-15,.cls-16,.cls-17,.cls-18,.cls-19,.cls-3,.cls-4,.cls-6,.cls-7,.cls-8,.cls-9{stroke-miterlimit:10;}.cls-11,.cls-12,.cls-3,.cls-4{stroke-width:4.57px;}.cls-4{fill-opacity:0.19;}.cls-5{fill:#263238;}.cls-14,.cls-18,.cls-19,.cls-6,.cls-7,.cls-8{fill:none;}.cls-14,.cls-6{stroke-width:1.52px;}.cls-6{stroke-dasharray:4.57 1.52;}.cls-7{stroke:#ec2227;stroke-linecap:round;stroke-width:4.42px;}.cls-8{stroke:#fbb03b;stroke-width:6.09px;}.cls-9{stroke-width:1.31px;}.cls-10{stroke-width:1.27px;}.cls-11,.cls-16{fill-opacity:0.85;}.cls-13{opacity:0.6;}.cls-15{stroke-width:1.91px;}.cls-16,.cls-17,.cls-18{stroke-width:4.16px;}.cls-19{stroke-width:2.77px;}</style></defs><title>Asset 3iDR-illustration</title><g id="Layer_2" data-name="Layer 2"><g id="Layer_1_copy" data-name="Layer 1 copy"><polygon class="cls-1" points="208.1 191.33 208.1 175.05 319.66 191.33 208.1 191.33"/><polygon class="cls-2" points="0.73 191.46 0.73 169.53 118.78 191.46 0.73 191.46"/><polygon class="cls-3" points="318.05 188.86 178.99 169.53 178.99 21.95 318.05 2.62 318.05 188.86"/><polygon class="cls-4" points="298.48 169.7 191.97 157.59 191.97 33.89 298.48 21.78 298.48 169.7"/><polygon class="cls-5" points="214.33 45.05 213.07 43.95 216.57 40.27 218.38 41.82 221.11 38.96 222.95 40.52 226.19 37.15 227.52 38.26 222.95 42.98 221.11 41.41 218.38 44.26 216.57 42.7 214.33 45.05"/><polygon class="cls-5" points="227.6 47.47 212.99 48.66 212.99 47.81 227.6 46.59 227.6 47.47"/><line class="cls-6" x1="192.76" y1="128.3" x2="297.12" y2="134.53"/><polyline class="cls-7" points="195.02 126.65 217.67 105.21 233.11 73.38 284.3 45.02 293.15 28.9"/><polyline class="cls-8" points="212.01 129.05 226.42 122.81 233.37 124.52 241.69 109.18 267.96 108.55 273.58 65.95"/><path class="cls-9" d="M277.89,65c0-2.09-2-3.68-4.46-3.54s-4.4,1.91-4.4,4,2,3.65,4.4,3.55S277.89,67.11,277.89,65Z"/><path class="cls-10" d="M216.47,128.7a3.63,3.63,0,0,0-3.51-3.48,3.16,3.16,0,0,0-3.46,3.07,3.63,3.63,0,0,0,3.46,3.48A3.16,3.16,0,0,0,216.47,128.7Z"/><polygon class="cls-11" points="205.92 188.86 66.86 169.53 66.86 21.95 205.92 2.62 205.92 188.86"/><polygon class="cls-12" points="186.34 169.7 79.83 157.59 79.83 33.89 186.34 21.78 186.34 169.7"/><path id="path26" class="cls-5" d="M154.74,54c-3.55.27-7.63,8.08-7.49,14.67A79.7,79.7,0,0,0,149,79.85c-6.46,6.22-13.71,12.41-13.71,20.31-.1,7.24,4.74,16.71,16.72,17.25a22.9,22.9,0,0,0,5.17-.31c1.16,5.63,1.93,10.08,1.93,12.11,0,8-11.7,7.63-12.25,3.1,2.41.14,4.35-1.41,4.35-3.55a4.66,4.66,0,0,0-4.51-4.29,4.38,4.38,0,0,0-3.36,1.13l-.06,0a3,3,0,0,0-.49.59,6,6,0,0,0-.84,3.35c0,6.44,18.74,12.65,18.74-.63,0-1.79-.85-6.38-2.13-12.15,14.32-3.8,10.63-22.36-2.36-22.4a13.39,13.39,0,0,0-2.81.32c-.71-3-1.39-5.91-2-8.58,4.73-4.24,9-9.77,8.85-19.71C160.31,59.29,157.59,53.84,154.74,54Zm.85,6.74c1.63-.28,2.94,1,2.94,3.9.13,5.05-3.89,9.68-8.58,14.27a40.9,40.9,0,0,1-.76-5.42C149.31,65.8,152.89,61.24,155.58,60.79Zm-5.05,26.15c.57,2.59,1.18,5.33,1.81,8.09-8,2.54-11.77,12.35-.51,17.2-6.94-5.52-3.55-11.68,1.51-12.73,1.29,5.72,2.56,11.4,3.6,16.33a16.59,16.59,0,0,1-4.9.45c-4.63-.23-13.57-3.23-13.57-12.9C138.46,95.28,144.68,91.93,150.53,86.94Zm4,12.39c.21,0,.43,0,.64,0,8.82.08,12.25,12.54,3.12,16.08C157.16,110.5,155.83,104.89,154.51,99.33Z"/><g class="cls-13"><line class="cls-14" x1="93.39" y1="84.04" x2="186.34" y2="82.09"/><line class="cls-14" x1="93.39" y1="89.43" x2="186.34" y2="88.37"/><line class="cls-14" x1="93.39" y1="94.81" x2="186.34" y2="94.65"/><line class="cls-14" x1="93.39" y1="100.19" x2="186.34" y2="100.93"/><line class="cls-14" x1="93.39" y1="105.57" x2="186.34" y2="107.21"/><polygon class="cls-15" points="97.3 106.13 93.39 106.06 93.39 83.56 97.3 83.47 97.3 106.13"/></g><g class="cls-13"><line class="cls-14" x1="93.39" y1="115.15" x2="186.34" y2="118.39"/><line class="cls-14" x1="93.39" y1="120.53" x2="186.34" y2="124.67"/><line class="cls-14" x1="93.39" y1="125.91" x2="186.34" y2="130.94"/><line class="cls-14" x1="93.39" y1="131.3" x2="186.34" y2="137.22"/><line class="cls-14" x1="93.39" y1="136.68" x2="186.34" y2="143.5"/><polygon class="cls-15" points="97.3 137.46 93.39 137.17 93.39 114.66 97.3 114.8 97.3 137.46"/></g><g class="cls-13"><line class="cls-14" x1="93.39" y1="52.94" x2="186.34" y2="45.8"/><line class="cls-14" x1="93.39" y1="58.32" x2="186.34" y2="52.08"/><line class="cls-14" x1="93.39" y1="63.7" x2="186.34" y2="58.36"/><line class="cls-14" x1="93.39" y1="69.08" x2="186.34" y2="64.64"/><line class="cls-14" x1="93.39" y1="74.46" x2="186.34" y2="70.92"/><polygon class="cls-15" points="97.3 74.81 93.39 74.95 93.39 52.45 97.3 52.15 97.3 74.81"/></g><polygon class="cls-16" points="117.38 188.86 2.08 168.36 2.08 23.12 117.38 2.62 117.38 188.86"/><polygon class="cls-17" points="100.92 169.53 12.68 156.7 12.68 34.78 100.92 21.95 100.92 169.53"/><path class="cls-18" d="M12.68,119c.41-3.45,3.43-6,8.76-7.52a15.22,15.22,0,0,0,2.23-2.11c1.6-2,2-4.93,2.84-7.53a20,20,0,0,1,10.2-12l1.67-7.91a3.48,3.48,0,0,0-.43-3,30.49,30.49,0,0,1-.72-24.08,9.89,9.89,0,0,1,4.36-5c2.91-1.56,6.12-2.75,9.28-2.49A8,8,0,0,1,58.11,53a16.06,16.06,0,0,1,.24,5q-1,19.6-.23,39.13"/><path class="cls-19" d="M39.06,50.71c0,3-.36,6,.71,8.69a2,2,0,0,1,.16.53,1.86,1.86,0,0,1-.06.58,15.23,15.23,0,0,0-.63,3.88,13.5,13.5,0,0,0,.92,4.6,16.59,16.59,0,0,0,4,5.85c4.14,4,9.88,1.13,12.64-3.54a9.75,9.75,0,0,0,1.56-4.17"/><path class="cls-18" d="M100.92,136.71C97.28,121.64,90.41,107.5,82.6,94.76,79,88.83,74.64,83,68.53,80.46L66,58.1c-.49-4.41-1-9-3.27-12.53a12.44,12.44,0,0,0-9.35-5.83,11.89,11.89,0,0,0-9.84,3.1C41.54,44.69,40,49,40,51.72"/><path class="cls-18" d="M46.94,76.92l-.15,5.17a.62.62,0,0,1,0,.26.55.55,0,0,1-.31.23,20.72,20.72,0,0,0-9.52,7.85,3.45,3.45,0,0,0-.49,1,7.54,7.54,0,0,0,.6,4.66c1.33,2.38,4.83,3.86,7.16,4.65a19,19,0,0,0,4.69,1,18.66,18.66,0,0,0,2.51,0,15.24,15.24,0,0,1,2.11-.12"/><path class="cls-18" d="M77.65,88.74c-4,1.58-7.85,3.44-11.6,5.32a87.14,87.14,0,0,0-11.43,6.56,32,32,0,0,0-8.76,9.25,33.2,33.2,0,0,0-4.94,17.07"/><path class="cls-18" d="M82.1,94.92A48.27,48.27,0,0,0,68.47,100a41,41,0,0,0-10.94,8.64,35.14,35.14,0,0,0-8.92,23.9"/><path class="cls-19" d="M76.93,108.71C65.26,110.66,61,123.83,59.22,134"/><path class="cls-18" d="M17.94,112.77a25.19,25.19,0,0,1,4.66-.56c2.09,0,4.38.94,6.45,1.67a16.81,16.81,0,0,1,6.5,4.08"/><path class="cls-19" d="M35,102.52a14.83,14.83,0,0,0-4.9,10"/><path class="cls-18" d="M13.58,135.06a13.26,13.26,0,0,0,7.27,2.14c1.3,0,2.57-.13,3.87-.22,1-.07,2.13.11,3.19,0,2.66-.36,5-1.89,7.35-3.4.2-.13,2.94,3.27,3.24,3.78,1.2,2.07,2.34,3.81,4.63,4.5a14.14,14.14,0,0,1,2.1,4.51"/><path class="cls-19" d="M28.29,122.23c-4.22,2-5.92,10-2.67,14.27"/><path class="cls-18" d="M60.57,145a23.49,23.49,0,0,0-6-8.59C51.91,134,48.71,133,45.85,131a45.65,45.65,0,0,0-5.8-3.42,29.35,29.35,0,0,0-4.52-1.77c-.66-.19-1.31-.54-1.85-.12a4.89,4.89,0,0,0-1.13,2,12.79,12.79,0,0,0-.61,6.5c0,.22.21.51.36.39l.1-1.32"/><path class="cls-19" d="M49.82,138.83a18.21,18.21,0,0,1,4.65,4.09,17.42,17.42,0,0,1,2.79,5.55"/><path class="cls-19" d="M46.32,140.38c1.71,1,5.18,4.7,4.72,7"/><path class="cls-18" d="M56,137.42a20.08,20.08,0,0,1,13.25-3.26,12.39,12.39,0,0,1,7.7,4,8.89,8.89,0,0,1,1.76,2.73"/><path class="cls-19" d="M38.22,137.69a13.52,13.52,0,0,0-5.37,2.66c-1.42,1.24-1,4.16-1,6"/><path class="cls-19" d="M40.51,140.73c-1.8.7-4.94,1.18-5.56,3.53a23.78,23.78,0,0,0-.22,4.35"/><path class="cls-19" d="M42.41,143.49a12.27,12.27,0,0,0-2.61,1.4c-1.12.86-1.52,2.09-2.18,3.34"/><path class="cls-19" d="M47.73,67.65q-.13-3.61.1-7.25a1.32,1.32,0,0,1,.13-.57,1.14,1.14,0,0,1,.72-.46c2-.6,3.63-.73,5.51.41"/><path class="cls-19" d="M44.73,59.74c-1.57-.14-3,.2-4.6.06"/><line class="cls-18" x1="34.79" y1="64.35" x2="12.89" y2="65.91"/><line class="cls-18" x1="99.18" y1="59.77" x2="66.47" y2="62.1"/></g></g></svg>