<svg xmlns="http://www.w3.org/2000/svg" xmlns:xlink="http://www.w3.org/1999/xlink" viewBox="0 0 386.4 811.28"><defs><style>.cls-1{fill:url(#linear-gradient);}.cls-2{fill:#b4b4b4;}.cls-3{fill:#f0f0f0;}.cls-4{fill:url(#linear-gradient-2);}.cls-5{fill:url(#linear-gradient-3);}.cls-6{fill:url(#linear-gradient-4);}.cls-7{fill:url(#linear-gradient-5);}.cls-8{fill:#010000;}.cls-9{fill:url(#linear-gradient-6);}.cls-10{fill:#c8c8c8;}.cls-11,.cls-20,.cls-34{fill:#fff;}.cls-12,.cls-22,.cls-25{fill:#263238;}.cls-13{fill:url(#linear-gradient-7);}.cls-14{fill:url(#linear-gradient-8);}.cls-15{fill:url(#linear-gradient-9);}.cls-16{fill:#ec2227;}.cls-17{fill:#fbb03b;}.cls-18,.cls-44,.cls-45,.cls-46,.cls-47,.cls-48{fill:#95c8b1;}.cls-19{font-size:17.48px;fill:#a7a9ac;}.cls-19,.cls-25{font-family:Roboto-Light, Roboto;}.cls-20,.cls-39{font-family:Roboto-Thin, Roboto;}.cls-21{fill:gray;}.cls-22,.cls-25{font-size:8.62px;}.cls-22,.cls-31,.cls-48{font-family:Roboto-Medium, Roboto;}.cls-23{letter-spacing:-0.02em;}.cls-24{letter-spacing:0em;}.cls-26{letter-spacing:-0.01em;}.cls-27{letter-spacing:-0.01em;}.cls-28{letter-spacing:-0.06em;}.cls-29{font-size:9.48px;font-family:Calibri, Calibri;}.cls-30{fill:#4c665a;}.cls-31{font-size:26.81px;}.cls-31,.cls-50,.cls-65,.cls-67{fill:#333;}.cls-32{opacity:0.3;}.cls-33,.cls-49,.cls-79{fill:none;stroke-miterlimit:10;}.cls-33{stroke:#ccc;stroke-width:2px;}.cls-34{font-size:15.67px;}.cls-34,.cls-41,.cls-50,.cls-67{font-family:Calibri-Light, Calibri;}.cls-35{letter-spacing:-0.02em;}.cls-36{letter-spacing:-0.01em;}.cls-37{letter-spacing:0em;}.cls-38{letter-spacing:0em;}.cls-39{font-size:12.76px;fill:#b3b3b3;}.cls-40{letter-spacing:-0.01em;}.cls-41,.cls-67{font-size:15.32px;}.cls-41{fill:#666;}.cls-42{letter-spacing:-0.01em;}.cls-43,.cls-44,.cls-45,.cls-46,.cls-47,.cls-60,.cls-61,.cls-62,.cls-63{font-family:Calibri-Bold, Calibri;font-weight:700;}.cls-44,.cls-71{letter-spacing:0em;}.cls-45{letter-spacing:-0.01em;}.cls-47,.cls-69{letter-spacing:0em;}.cls-48{font-size:18.19px;}.cls-49{stroke:#263238;}.cls-49,.cls-79{stroke-width:1.74px;}.cls-50{font-size:19.15px;}.cls-51{letter-spacing:-0.01em;}.cls-52{letter-spacing:-0.01em;}.cls-53{letter-spacing:-0.02em;}.cls-54,.cls-63{letter-spacing:0em;}.cls-55{letter-spacing:-0.01em;}.cls-56{letter-spacing:-0.02em;}.cls-57{letter-spacing:-0.01em;}.cls-58{letter-spacing:-0.02em;}.cls-59,.cls-60{letter-spacing:0em;}.cls-61{letter-spacing:-0.01em;}.cls-62{letter-spacing:-0.01em;}.cls-64{fill:#e6e6e6;}.cls-66{fill:#4d4d4d;}.cls-68{letter-spacing:-0.07em;}.cls-70{letter-spacing:-0.02em;}.cls-72{letter-spacing:-0.01em;}.cls-73{letter-spacing:0em;}.cls-74{letter-spacing:-0.01em;}.cls-75{letter-spacing:-0.02em;}.cls-76{letter-spacing:-0.01em;}.cls-77{letter-spacing:0em;}.cls-78{letter-spacing:-0.01em;}.cls-79{stroke:#fff;}</style><linearGradient id="linear-gradient" x1="259.88" y1="3.04" x2="324.09" y2="3.04" gradientUnits="userSpaceOnUse"><stop offset="0.01" stop-color="#d1d6d9"/><stop offset="0.5" stop-color="#eceef0"/><stop offset="1" stop-color="#d1d6d9"/></linearGradient><linearGradient id="linear-gradient-2" x1="196.5" y1="781.43" x2="196.5" y2="711.38" gradientUnits="userSpaceOnUse"><stop offset="0.01" stop-color="#fff"/><stop offset="1" stop-color="#e6e6e6"/></linearGradient><linearGradient id="linear-gradient-3" x1="3.75" y1="125.49" x2="3.75" y2="87.95" xlink:href="#linear-gradient"/><linearGradient id="linear-gradient-4" x1="3.75" y1="185.55" x2="3.75" y2="156.2" xlink:href="#linear-gradient"/><linearGradient id="linear-gradient-5" x1="3.75" y1="252.09" x2="3.75" y2="222.74" xlink:href="#linear-gradient"/><linearGradient id="linear-gradient-6" x1="5.73" y1="408.21" x2="386.4" y2="408.21" xlink:href="#linear-gradient"/><linearGradient id="linear-gradient-7" x1="37.62" y1="142.76" x2="37.62" y2="124.25" gradientUnits="userSpaceOnUse"><stop offset="0" stop-color="#cdcccb"/><stop offset="1" stop-color="#fff"/></linearGradient><linearGradient id="linear-gradient-8" x1="49.46" y1="142.76" x2="49.46" y2="124.25" xlink:href="#linear-gradient-7"/><linearGradient id="linear-gradient-9" x1="65.49" y1="142.76" x2="65.49" y2="124.25" gradientUnits="userSpaceOnUse"><stop offset="0" stop-color="#cdcccb"/><stop offset="0.21" stop-color="#e3e2e1"/><stop offset="0.43" stop-color="#f2f2f2"/><stop offset="0.68" stop-color="#fcfcfc"/><stop offset="1" stop-color="#fff"/></linearGradient></defs><title>Asset 11iDR-illustration</title><g id="Layer_2" data-name="Layer 2"><g id="Layer_1_copy" data-name="Layer 1 copy"><path class="cls-1" d="M324.09,6.09V3.15A3.16,3.16,0,0,0,320.95,0H263a3.16,3.16,0,0,0-3.15,3.15V6.09Z"/><path class="cls-2" d="M64.59,6.09A58,58,0,0,0,6.67,64v688.4a58,58,0,0,0,57.92,57.92H327.53a58,58,0,0,0,57.92-57.92V64A58,58,0,0,0,327.53,6.09Z"/><path class="cls-3" d="M64.59,11.76A52.31,52.31,0,0,0,12.34,64v688.4a52.31,52.31,0,0,0,52.25,52.26H327.53a52.31,52.31,0,0,0,52.25-52.26V64a52.31,52.31,0,0,0-52.25-52.25Z"/><circle class="cls-4" cx="196.5" cy="746.41" r="35.02"/><rect class="cls-5" y="87.95" width="7.51" height="37.54" rx="3.15" ry="3.15"/><rect class="cls-6" y="156.2" width="7.51" height="29.35" rx="3.15" ry="3.15"/><rect class="cls-7" y="222.74" width="7.51" height="29.35" rx="3.15" ry="3.15"/><rect class="cls-8" x="31.55" y="119.62" width="328.64" height="577.79" rx="2.09" ry="2.09"/><path class="cls-9" d="M64.59,9.56H327.53a54.53,54.53,0,0,1,54.38,51.58h4.41a58.94,58.94,0,0,0-58.8-56H64.59a58.94,58.94,0,0,0-58.79,56h4.41A54.53,54.53,0,0,1,64.59,9.56ZM10.14,64.92H5.73V715.49h4.41ZM382,752.41a54.52,54.52,0,0,1-54.46,54.46H64.59a54.52,54.52,0,0,1-54.46-54.46V719.27H5.73v33.14a58.93,58.93,0,0,0,58.87,58.87H327.53a58.93,58.93,0,0,0,58.87-58.87V719.27H382Zm0-687.5V715.49h4.41V64.92Z"/><path class="cls-10" d="M201.9,758.58H191.51a7.25,7.25,0,0,1-7.24-7.24V740.95a7.25,7.25,0,0,1,7.24-7.24H201.9a7.25,7.25,0,0,1,7.24,7.24v10.39A7.25,7.25,0,0,1,201.9,758.58Zm-10.39-23a5.36,5.36,0,0,0-5.35,5.35v10.39a5.36,5.36,0,0,0,5.35,5.35H201.9a5.36,5.36,0,0,0,5.35-5.35V740.95a5.36,5.36,0,0,0-5.35-5.35Z"/><rect class="cls-11" x="32.05" y="122.47" width="328.04" height="574.6"/><rect class="cls-12" x="31.56" y="120.99" width="328.87" height="31.86"/><path class="cls-13" d="M35.47,123.85h4.29V127H35.47Zm0,4.78h4.29V143H35.47Z"/><path class="cls-14" d="M42.1,124h7c4.78,0,7.71,2.33,7.71,6.49v6c0,4.2-2.93,6.48-7.71,6.48h-7Zm7,14.93c2.12,0,3-1.25,3-2.31v-6.24c0-1.09-.92-2.31-3-2.31H46.76v10.86Z"/><path class="cls-15" d="M58.87,124h7.68c3.26,0,5.13,2.12,5.13,5.51,0,3.09-1.6,5-4.21,5.37l4.64,7.79V143H71.3l-4.78-8H59.74v8h-.87Zm7.44,10.2c2.77,0,4.48-1.71,4.48-4.69s-1.6-4.7-4.34-4.7h-6.7v9.39Z"/><rect class="cls-16" x="35.46" y="147.36" width="4.28" height="2.31"/><rect class="cls-17" x="42.06" y="147.29" width="4.72" height="2.31"/><rect class="cls-18" x="48.86" y="147.29" width="23.28" height="2.31"/><text class="cls-19" transform="translate(104.85 141.86)"><tspan xml:space="preserve"> DOCS</tspan><tspan class="cls-20" x="49.19" y="0" xml:space="preserve">        </tspan><tspan class="cls-11" x="82.64" y="0">RECALLS </tspan></text><path class="cls-21" d="M103.51,132.82v9.77a.89.89,0,0,1-.89.89H90.19a.89.89,0,0,1-.89-.89v-14.8a.89.89,0,0,1,.89-.89h7.4v5a.89.89,0,0,0,.89.89ZM100,134.3a.29.29,0,0,0-.3-.3H93.15a.29.29,0,0,0-.3.3v.59a.29.29,0,0,0,.3.3h6.51a.29.29,0,0,0,.3-.3Zm0,2.37a.29.29,0,0,0-.3-.3H93.15a.29.29,0,0,0-.3.3v.59a.29.29,0,0,0,.3.3h6.51a.29.29,0,0,0,.3-.3Zm0,2.37a.29.29,0,0,0-.3-.3H93.15a.29.29,0,0,0-.3.3v.59a.29.29,0,0,0,.3.3h6.51a.29.29,0,0,0,.3-.3Zm3.18-7.4H98.78v-4.37a1.91,1.91,0,0,1,.33.26l3.78,3.78A2,2,0,0,1,103.14,131.64Z"/><path class="cls-11" d="M182.11,134.12a8.06,8.06,0,0,1-4.74,5.7,8.6,8.6,0,0,1-3.83.95,7.86,7.86,0,0,1-2.5-.41,10.13,10.13,0,0,0-1.61-.69c-.44,0-1,1.79-1.72,1.79-.55,0-.72-.27-1-.67a.66.66,0,0,1-.14-.39c0-.91,1.73-1.62,1.73-2.13,0-.08-.23-.54-.26-.72a5.26,5.26,0,0,1-.08-.91c0-2.78,2.21-4.77,4.7-5.59,1.79-.59,5.61.1,6.83-1.06.48-.45.72-.86,1.45-.86,1,0,1.31,2.56,1.31,3.31A8.57,8.57,0,0,1,182.11,134.12Zm-4.87-.52c-3.1,0-5.09,1.3-7.12,3.53a.56.56,0,0,0-.17.39.56.56,0,0,0,.56.56.56.56,0,0,0,.39-.17c.43-.38.81-.81,1.23-1.2a6.78,6.78,0,0,1,5.09-2,.56.56,0,1,0,0-1.12Z"/><path class="cls-11" d="M166.5,149.6H260v-2H166.5Z"/><path class="cls-21" d="M88.41,149.6h64.67v-2H88.41Z"/><rect class="cls-18" x="31.63" y="647.96" width="328.17" height="49.08"/><rect class="cls-12" x="321.06" y="659.91" width="20.46" height="2.61"/><rect class="cls-12" x="321.06" y="667.42" width="20.46" height="2.61"/><rect class="cls-12" x="321.06" y="674.93" width="20.46" height="2.61"/><path class="cls-12" d="M79.89,679.21l-6.8-6.81a9.22,9.22,0,1,0-1.32,1.41l6.76,6.76ZM58.1,666.88a7.65,7.65,0,1,1,7.65,7.65A7.66,7.66,0,0,1,58.1,666.88Z"/><text class="cls-22" transform="translate(50.19 690.91)">EXP<tspan class="cls-23" x="16.03" y="0">L</tspan><tspan class="cls-24" x="20.52" y="0">ORE</tspan></text><path class="cls-12" d="M189.69,672l-4.07-6.11,1.05-1.05a3.76,3.76,0,0,1,2.46-1.05h6.32a5.48,5.48,0,0,0,3.51-1.4l5.88-4.12-11.13,11.13a8.89,8.89,0,0,0-3.7,2.29Zm5.41,4.77-1.4,1.4-.7-.7-.7.7c-.2.2-.75,0-1.23-.53a2.87,2.87,0,0,1-.46-.61c-.87.82-1.65,1.32-1.82,1.14s.32-1,1.14-1.82a2.87,2.87,0,0,1-.61-.46c-.48-.48-.72-1-.53-1.23l.7-.7-.7-.7,1.4-1.4a8.41,8.41,0,0,1,3.64-2.24L206,657.38l2.4-1.7c2.46-1.75,3.86-1.75,4.21-1.4s.35,1.75-1.4,4.21l-1.7,2.4-12.2,12.21A8.4,8.4,0,0,1,195.1,676.73Zm13.6-14.65L204.57,668a5.48,5.48,0,0,0-1.4,3.51v6.32a3.83,3.83,0,0,1-1.05,2.46l-1.05,1.05L195,677.23l.32-.32a8.91,8.91,0,0,0,2.29-3.7Zm-.26-3.6a1.76,1.76,0,0,1,.43,1.59l1.22-.56a2.22,2.22,0,0,0-2.68-2.68l-.56,1.22A1.76,1.76,0,0,1,208.43,658.49Z"/><text class="cls-25" transform="translate(178.75 691.68)">PR<tspan class="cls-26" x="11" y="0">A</tspan><tspan class="cls-27" x="16.34" y="0">C</tspan><tspan x="21.74" y="0">TICE</tspan></text><polygon class="cls-12" points="255.56 672.35 253.13 669.92 259.85 663.2 263.28 666.63 268.44 661.48 271.87 664.91 277.88 658.9 280.31 661.33 271.87 669.77 268.44 666.34 263.28 671.49 259.85 668.06 255.56 672.35"/><rect class="cls-12" x="252.98" y="677.65" width="27.48" height="1.72"/><text class="cls-25" transform="translate(242.78 691.26)">PROGRESS</text><text class="cls-25" transform="translate(319.06 691.26)">MORE</text><text class="cls-25" transform="translate(118.01 690.73)">CRE<tspan class="cls-28" x="16.16" y="0">A</tspan><tspan x="21" y="0">TE</tspan></text><path class="cls-12" d="M146.16,657.17c-1.26,0-1.66.7-2.49,1.47-2.08,2-8.61.79-11.68,1.81-4.25,1.41-8,4.81-8,9.57a8.91,8.91,0,0,0,.13,1.56c.06.3.45,1.09.45,1.23,0,.87-3,2.08-3,3.64a1.14,1.14,0,0,0,.24.66c.4.69.69,1.15,1.63,1.15,1.3,0,2.2-3.05,2.95-3.05.6,0,2,.94,2.75,1.18a13.46,13.46,0,0,0,4.28.7,14.71,14.71,0,0,0,6.56-1.62c4.16-2.07,7.16-5.09,8.11-9.75a14.56,14.56,0,0,0,.3-2.89C148.41,661.55,147.85,657.17,146.16,657.17Zm-5.31,11.21a1.16,1.16,0,0,1-.1.35.49.49,0,0,1-.16.19.37.37,0,0,1-.2.06h-3.58v3.91a.37.37,0,0,1-.06.2.46.46,0,0,1-.2.15,1.46,1.46,0,0,1-.37.1,4.08,4.08,0,0,1-.58,0,4,4,0,0,1-.58,0,1.45,1.45,0,0,1-.37-.1.5.5,0,0,1-.2-.15.33.33,0,0,1-.06-.2V669h-3.57a.34.34,0,0,1-.19-.06.48.48,0,0,1-.15-.19,1.17,1.17,0,0,1-.11-.35,3,3,0,0,1,0-.54,3.53,3.53,0,0,1,0-.54,1.23,1.23,0,0,1,.1-.36.48.48,0,0,1,.14-.19.31.31,0,0,1,.18-.06h3.61V662.8a.38.38,0,0,1,.06-.21.47.47,0,0,1,.2-.16,1.47,1.47,0,0,1,.37-.1,4.05,4.05,0,0,1,.58,0,4.1,4.1,0,0,1,.58,0,1.48,1.48,0,0,1,.37.1.39.39,0,0,1,.25.38v3.89h3.62a.32.32,0,0,1,.18.06.49.49,0,0,1,.15.19,1.33,1.33,0,0,1,.1.36,4.21,4.21,0,0,1,0,1.08Z"/><circle class="cls-17" cx="212.38" cy="673.03" r="7.26"/><text class="cls-29" transform="translate(207.41 675.8)">78</text><rect class="cls-30" x="33" y="694.8" width="326.5" height="5.75"/><rect class="cls-11" x="32.04" y="694.88" width="67.71" height="5.67"/><text class="cls-31" transform="translate(55.86 234.17)">Q</text><text class="cls-31" transform="translate(55.86 286.8)">A</text><g class="cls-32"><circle class="cls-12" cx="343.58" cy="278.02" r="2.46"/><path class="cls-12" d="M347.61,273h-10.2v-1h-2.25v1.17a2.24,2.24,0,0,0-1.41,2.08v5.66a2.23,2.23,0,0,0,2.24,2.24h11.62a2.23,2.23,0,0,0,2.24-2.24v-5.66A2.24,2.24,0,0,0,347.61,273Zm-8.68,3.06h-3.6v-1.25h3.6Zm4.65,6.1a4.15,4.15,0,1,1,4.15-4.15A4.15,4.15,0,0,1,343.58,282.17Z"/></g><g class="cls-32"><circle class="cls-12" cx="343.58" cy="228.16" r="2.46"/><path class="cls-12" d="M347.61,223.15h-10.2v-1h-2.25v1.17a2.24,2.24,0,0,0-1.41,2.08V231a2.23,2.23,0,0,0,2.24,2.24h11.62a2.23,2.23,0,0,0,2.24-2.24v-5.66A2.24,2.24,0,0,0,347.61,223.15Zm-8.68,3.06h-3.6V225h3.6Zm4.65,6.1a4.15,4.15,0,1,1,4.15-4.15A4.15,4.15,0,0,1,343.58,232.31Z"/></g><rect class="cls-33" x="89.98" y="461.7" width="256" height="24"/><rect class="cls-18" x="96.51" y="465.32" width="49.67" height="17.2"/><rect class="cls-18" x="151.6" y="465.32" width="86.65" height="17.2"/><polygon class="cls-11" points="139.39 472.17 137.94 470.72 135.47 473.2 132.99 470.72 131.55 472.17 134.02 474.64 131.55 477.12 132.99 478.57 135.47 476.09 137.94 478.57 139.39 477.12 136.91 474.64 139.39 472.17"/><polygon class="cls-11" points="232.22 472.17 230.78 470.72 228.3 473.2 225.82 470.72 224.38 472.17 226.86 474.64 224.38 477.12 225.82 478.57 228.3 476.09 230.78 478.57 232.22 477.12 229.75 474.64 232.22 472.17"/><text class="cls-34" transform="translate(102.51 479.12)">CSS</text><text class="cls-34" transform="translate(156.23 479.12)">J<tspan class="cls-35" x="4.9" y="0">a</tspan><tspan class="cls-36" x="12" y="0">v</tspan><tspan x="18.66" y="0">ascri</tspan><tspan class="cls-37" x="47.62" y="0">p</tspan><tspan class="cls-38" x="55.68" y="0">t</tspan></text><text class="cls-39" transform="translate(246.23 478.41)">+ Add mo<tspan class="cls-40" x="53.27" y="0">r</tspan><tspan x="57.39" y="0">e tags</tspan></text><path class="cls-12" d="M64.32,463.17h-7.4v7.4l12.33,12.32,7.39-7.39Zm-2.47,7.39a2.46,2.46,0,1,1,2.47-2.46A2.46,2.46,0,0,1,61.85,470.57Z"/><text class="cls-41" transform="translate(88.33 525.86)">Sou<tspan class="cls-42" x="22.88" y="0">r</tspan><tspan x="27.94" y="0">ce:</tspan><tspan class="cls-43" x="46.05" y="0" xml:space="preserve">  </tspan><tspan class="cls-44" x="52.98" y="0">fl</tspan><tspan class="cls-45" x="61.47" y="0">at</tspan><tspan class="cls-46" x="68.89" y="0">i</tspan><tspan class="cls-47" x="77.86" y="0">c</tspan><tspan class="cls-46" x="84.2" y="0">on.</tspan><tspan class="cls-47" x="104.75" y="0">c</tspan><tspan class="cls-46" x="111.08" y="0">om</tspan></text><path class="cls-12" d="M74.65,521.1l-.73-.73a4.38,4.38,0,0,0-4.94-.83l-2-2a4.38,4.38,0,0,0-.83-4.94l-.73-.73a4.57,4.57,0,0,0-6.45,6.45l.73.73a4.37,4.37,0,0,0,4.79.89l-3.6-3.6a1.74,1.74,0,0,1,2.44-2.44l2.33,2.33c-.4-.35-1.23-.12-1.89.54s-.91,1.53-.52,1.92l4.68,4.68c.39.39,1.25.16,1.92-.52s.89-1.49.54-1.89l2.42,2.42a1.74,1.74,0,0,1-2.44,2.44L66.57,522a4.38,4.38,0,0,0,.89,4.79l.73.73a4.57,4.57,0,0,0,6.45-6.45Z"/><rect class="cls-12" x="31.46" y="597.21" width="328.87" height="49.08"/><text class="cls-48" transform="translate(259.04 628.95)">SAVE</text><text class="cls-48" transform="translate(85.81 628.95)">CANCEL</text><line class="cls-49" x1="297.9" y1="427.58" x2="297.9" y2="446.87"/><text class="cls-50" transform="translate(84.04 283.21)">In m<tspan class="cls-51" x="34.1" y="0">a</tspan><tspan x="42.93" y="0">them</tspan><tspan class="cls-52" x="83.78" y="0">a</tspan><tspan x="92.61" y="0">tics, a </tspan><tspan class="cls-53" x="140.89" y="0">r</tspan><tspan class="cls-52" x="147.12" y="0">at</tspan><tspan x="155.94" y="0">ional </tspan><tspan x="0" y="22.98">number is a</tspan><tspan class="cls-53" x="90.37" y="22.98">n</tspan><tspan x="99.94" y="22.98">y number th</tspan><tspan class="cls-52" x="194.35" y="22.98">a</tspan><tspan x="203.17" y="22.98">t </tspan><tspan class="cls-51" x="0" y="45.96">c</tspan><tspan class="cls-54" x="7.96" y="45.96">an be </tspan><tspan class="cls-55" x="54.99" y="45.96">e</tspan><tspan x="64.17" y="45.96">xp</tspan><tspan class="cls-55" x="82.14" y="45.96">r</tspan><tspan x="88.46" y="45.96">essed as the quo</tspan><tspan x="217.14" y="45.96">-</tspan><tspan x="0" y="68.94">tie</tspan><tspan class="cls-52" x="19.83" y="68.94">n</tspan><tspan x="29.59" y="68.94">t or f</tspan><tspan class="cls-56" x="66.86" y="68.94">r</tspan><tspan x="73.08" y="68.94">action p/q of t</tspan><tspan class="cls-51" x="182.38" y="68.94">w</tspan><tspan x="195.57" y="68.94">o </tspan><tspan x="0" y="91.92">i</tspan><tspan class="cls-51" x="4.23" y="91.92">nt</tspan><tspan x="20.09" y="91.92">e</tspan><tspan class="cls-57" x="29.56" y="91.92">g</tspan><tspan x="38.39" y="91.92">e</tspan><tspan class="cls-53" x="47.86" y="91.92">r</tspan><tspan x="54.08" y="91.92">s, with the denomina</tspan><tspan x="216.4" y="91.92">-</tspan><tspan class="cls-51" x="0" y="114.9">t</tspan><tspan class="cls-54" x="6.11" y="114.9">or q not equal </tspan><tspan class="cls-51" x="118.79" y="114.9">t</tspan><tspan x="124.9" y="114.9">o </tspan><tspan class="cls-58" x="139.21" y="114.9">z</tspan><tspan x="146.28" y="114.9">e</tspan><tspan class="cls-53" x="155.75" y="114.9">r</tspan><tspan x="161.97" y="114.9">o.</tspan><tspan x="0" y="160.87">quotie</tspan><tspan class="cls-51" x="49.72" y="160.87">n</tspan><tspan x="59.48" y="160.87">t = dividend/divisor</tspan></text><text class="cls-50" transform="translate(84.04 235.47)">Wh<tspan class="cls-52" x="26.82" y="0">a</tspan><tspan class="cls-59" x="35.65" y="0">t is </tspan><tspan class="cls-60" x="62.23" y="0">pa</tspan><tspan class="cls-61" x="81.96" y="0">r</tspan><tspan class="cls-43" x="88.54" y="0">seI</tspan><tspan class="cls-62" x="110.92" y="0">n</tspan><tspan class="cls-63" x="121.02" y="0">t()</tspan><tspan class="cls-59" x="139.59" y="0" xml:space="preserve"> function?</tspan></text><path class="cls-64" d="M39,185.33H50.83v-4.85H39Z"/><path class="cls-64" d="M52.9,185.33h40v-4.85h-40Z"/><path class="cls-18" d="M95.12,185.33h44.45v-4.85H95.12Z"/><path class="cls-64" d="M141.63,185.33h50.93v-4.85H141.63Z"/><path class="cls-64" d="M194.63,185.33H261.5v-4.85H194.63Z"/><path class="cls-64" d="M263.56,185.33h86.67v-4.85H263.56Z"/><path class="cls-65" d="M347.95,175.36h.44v-.44A.44.44,0,0,1,347.95,175.36Z"/><path class="cls-65" d="M338.71,174.92v.44h.44A.44.44,0,0,1,338.71,174.92Z"/><path class="cls-65" d="M350.15,164.81a1.76,1.76,0,0,0-1.76-1.76h-2.64v-1.1a.66.66,0,0,0-.66-.66H342a.66.66,0,0,0-.66.66V163h-2.64a1.76,1.76,0,0,0-1.76,1.76Zm-7.92-2.64h2.64V163h-2.64Z"/><path class="cls-65" d="M346.63,173.16a.44.44,0,1,1-.88,0v-7.48H344v7.48a.44.44,0,1,1-.88,0v-7.48h-1.76v7.48a.44.44,0,1,1-.88,0v-7.48h-1.76v9.23a.44.44,0,0,0,.44.44h8.8a.44.44,0,0,0,.44-.44v-9.23h-1.76Z"/><path class="cls-66" d="M347.95,175.36h.44v-.44A.44.44,0,0,1,347.95,175.36Z"/><path class="cls-66" d="M338.71,174.92v.44h.44A.44.44,0,0,1,338.71,174.92Z"/><path class="cls-66" d="M350.15,164.81a1.76,1.76,0,0,0-1.76-1.76h-2.64v-1.1a.66.66,0,0,0-.66-.66H342a.66.66,0,0,0-.66.66V163h-2.64a1.76,1.76,0,0,0-1.76,1.76Zm-7.92-2.64h2.64V163h-2.64Z"/><path class="cls-66" d="M346.63,173.16a.44.44,0,1,1-.88,0v-7.48H344v7.48a.44.44,0,1,1-.88,0v-7.48h-1.76v7.48a.44.44,0,1,1-.88,0v-7.48h-1.76v9.23a.44.44,0,0,0,.44.44h8.8a.44.44,0,0,0,.44-.44v-9.23h-1.76Z"/><text class="cls-67" transform="translate(88.1 562.84)"><tspan class="cls-68">Y</tspan><tspan x="6.1" y="0">ou s</tspan><tspan class="cls-69" x="31.44" y="0">a</tspan><tspan x="38.58" y="0">w this </tspan><tspan class="cls-70" x="78.51" y="0">R</tspan><tspan class="cls-71" x="86.37" y="0">e</tspan><tspan class="cls-72" x="93.94" y="0">c</tspan><tspan class="cls-73" x="100.3" y="0">all 7 times. </tspan><tspan class="cls-74" x="170.09" y="0">P</tspan><tspan class="cls-75" x="177.72" y="0">r</tspan><tspan x="182.7" y="0">og</tspan><tspan class="cls-42" x="197.87" y="0">r</tspan><tspan class="cls-71" x="202.93" y="0">ess L</tspan><tspan class="cls-69" x="232.23" y="0">e</tspan><tspan class="cls-72" x="239.73" y="0">v</tspan><tspan x="246.32" y="0">el </tspan><tspan x="0" y="18.38">is 4/8. N</tspan><tspan class="cls-76" x="50.84" y="18.38">e</tspan><tspan class="cls-77" x="58.19" y="18.38">x</tspan><tspan class="cls-71" x="64.67" y="18.38">t time due in 47 d</tspan><tspan class="cls-75" x="173.33" y="18.38">a</tspan><tspan class="cls-78" x="180.24" y="18.38">y</tspan><tspan x="186.81" y="18.38">s </tspan></text><polygon class="cls-12" points="58.12 564.52 56.44 562.85 61.07 558.22 63.44 560.59 66.98 557.04 69.35 559.4 73.49 555.27 75.16 556.94 69.35 562.75 66.98 560.38 63.44 563.93 61.07 561.57 58.12 564.52"/><rect class="cls-12" x="56.34" y="568.17" width="18.92" height="1.18"/><line class="cls-79" x1="198.48" y1="646.99" x2="198.48" y2="597.34"/></g></g></svg>