<svg xmlns="http://www.w3.org/2000/svg" viewBox="0 0 18.93 14.88"><defs><style>.cls-1{fill:#231f20;}</style></defs><title>Asset 26</title><g id="Layer_2" data-name="Layer 2"><g id="Layer_1-2" data-name="Layer 1"><path class="cls-1" d="M18.72,6C18,9.32,15.93,11.45,13,12.91a10.37,10.37,0,0,1-4.63,1.14,9.48,9.48,0,0,1-3-.5,12.23,12.23,0,0,0-1.94-.83c-.53,0-1.16,2.16-2.08,2.16-.67,0-.87-.33-1.15-.81A.8.8,0,0,1,0,13.6c0-1.1,2.09-2,2.09-2.57,0-.09-.28-.65-.32-.87a6.35,6.35,0,0,1-.09-1.1c0-3.36,2.67-5.76,5.67-6.75,2.17-.72,6.77.12,8.24-1.28.58-.54.87-1,1.75-1,1.19,0,1.58,3.1,1.58,4A10.35,10.35,0,0,1,18.72,6Zm-5.88-.62C9.11,5.41,6.7,7,4.26,9.67a.67.67,0,0,0-.2.48.68.68,0,0,0,.68.68.67.67,0,0,0,.48-.2c.52-.46,1-1,1.49-1.45a8.19,8.19,0,0,1,6.15-2.41.68.68,0,1,0,0-1.35Z"/></g></g></svg>