<svg xmlns="http://www.w3.org/2000/svg" viewBox="0 0 517.52 374.26"><defs><style>.cls-1{isolation:isolate;}.cls-2{opacity:0.05;mix-blend-mode:multiply;}.cls-3,.cls-6{fill:none;stroke-miterlimit:10;stroke-width:34.44px;}.cls-3{stroke:#000;}.cls-4{opacity:0.97;}.cls-5{fill:#fff;}.cls-6{stroke:#95c8b1;}.cls-7{fill:#263238;}.cls-8{fill:#ec2227;}.cls-9{fill:#fbb03b;}.cls-10{fill:#95c8b1;}</style></defs><title>Asset 26pile of recalls</title><g class="cls-1"><g id="Layer_2" data-name="Layer 2"><g id="Layer_1-2" data-name="Layer 1"><g class="cls-2"><rect x="38.59" y="52.79" width="322" height="189.29" transform="translate(-22.09 35.94) rotate(-9.75)"/><rect class="cls-3" x="38.59" y="52.79" width="322" height="189.29" transform="translate(-22.09 35.94) rotate(-9.75)"/><path d="M134,117.73l13.22-2.27,1.65,9.62-13.22,2.27Zm2.53,14.72,13.22-2.27,7.61,44.26-13.22,2.27Z"/><path d="M154.45,114.64l21.67-3.72c14.72-2.53,25,3.12,27.19,15.92l3.19,18.58c2.23,13-5.6,21.54-20.32,24.07l-21.67,3.72ZM184,156.93c6.52-1.12,8.7-5.46,8.14-8.72L188.87,129c-.58-3.35-4.07-6.63-10.59-5.51L171,124.71l5.75,33.47Z"/><path d="M206.16,105.75l23.68-4.07c10-1.73,16.93,3.81,18.73,14.27,1.64,9.54-2.31,16.16-10.12,18.8l18.43,21.54.17,1-2.51.43-19-22.07-20.91,3.59,4.23,24.6-2.68.46Zm28.33,27.51c8.53-1.47,12.9-7.64,11.32-16.84-1.55-9-7.42-13.63-15.87-12.17l-20.67,3.55,5,28.94Z"/><rect x="146.9" y="189.03" width="13.4" height="7.23" transform="translate(-30.41 28.8) rotate(-9.75)"/><rect x="167.19" y="185.2" width="14.75" height="7.23" transform="translate(-29.46 32.3) rotate(-9.75)"/><rect x="187.74" y="176.68" width="72.83" height="7.23" transform="translate(-27.3 40.57) rotate(-9.75)"/></g><g class="cls-4"><rect class="cls-5" x="33.59" y="45.79" width="322" height="189.29" transform="translate(-20.97 34.99) rotate(-9.75)"/><rect class="cls-6" x="33.59" y="45.79" width="322" height="189.29" transform="translate(-20.97 34.99) rotate(-9.75)"/></g><path class="cls-7" d="M129,110.73l13.22-2.27,1.65,9.62-13.22,2.27Zm2.53,14.72,13.22-2.27,7.61,44.26-13.22,2.27Z"/><path class="cls-7" d="M149.45,107.64l21.67-3.72c14.72-2.53,25,3.12,27.19,15.92l3.19,18.58c2.23,13-5.6,21.54-20.32,24.07l-21.67,3.72ZM179,149.93c6.52-1.12,8.7-5.46,8.14-8.72L183.87,122c-.58-3.35-4.07-6.63-10.59-5.51L166,117.71l5.75,33.47Z"/><path class="cls-7" d="M201.16,98.75l23.68-4.07c10-1.73,16.93,3.81,18.73,14.27,1.64,9.54-2.31,16.16-10.12,18.8l18.43,21.54.17,1-2.51.43-19-22.07-20.91,3.59,4.23,24.6-2.68.46Zm28.33,27.51c8.53-1.47,12.9-7.64,11.32-16.84-1.55-9-7.42-13.63-15.87-12.17l-20.67,3.55,5,28.94Z"/><rect class="cls-8" x="141.9" y="182.03" width="13.4" height="7.23" transform="translate(-29.3 27.85) rotate(-9.75)"/><rect class="cls-9" x="162.19" y="178.2" width="14.75" height="7.23" transform="translate(-28.35 31.35) rotate(-9.75)"/><rect class="cls-10" x="182.74" y="169.68" width="72.83" height="7.23" transform="translate(-26.19 39.62) rotate(-9.75)"/><g class="cls-2"><rect x="198.57" y="-10.41" width="189.29" height="322" transform="translate(94.68 413.73) rotate(-80.15)"/><rect class="cls-3" x="198.57" y="-10.41" width="189.29" height="322" transform="translate(94.68 413.73) rotate(-80.15)"/><path d="M241.36,100.6l13.22,2.29-1.67,9.62-13.22-2.29Zm-2.56,14.72L252,117.61l-7.68,44.24-13.22-2.29Z"/><path d="M261.69,104.56l21.67,3.76c14.72,2.56,22.5,11.32,20.28,24.12L300.41,151c-2.25,13-12.5,18.41-27.22,15.86l-21.67-3.76Zm13.68,49.77c6.52,1.13,10-2.22,10.6-5.48l3.34-19.24c.58-3.35-1.61-7.61-8.13-8.74l-7.28-1.26-5.81,33.46Z"/><path d="M313.39,113.54l23.67,4.11c10,1.74,14.67,9.27,12.86,19.73-1.66,9.53-7.59,14.45-15.84,14.31l10.14,26.48-.17,1-2.51-.44-10.45-27.15L310.17,148l-4.27,24.59-2.67-.46ZM330.85,149c8.53,1.48,14.71-2.87,16.31-12.06,1.57-9-2.42-15.33-10.87-16.79l-20.66-3.59-5,28.93Z"/><rect x="231.11" y="171.06" width="7.23" height="13.4" transform="translate(19.43 378.61) rotate(-80.15)"/><rect x="252.14" y="173.81" width="7.23" height="14.75" transform="translate(33.49 402.17) rotate(-80.15)"/><rect x="301.71" y="153.38" width="7.23" height="72.83" transform="translate(66.1 458.15) rotate(-80.15)"/></g><g class="cls-4"><rect class="cls-5" x="193.57" y="-17.41" width="189.29" height="322" transform="translate(97.43 403) rotate(-80.15)"/><rect class="cls-6" x="193.57" y="-17.41" width="189.29" height="322" transform="translate(97.43 403) rotate(-80.15)"/></g><path class="cls-7" d="M236.36,93.6l13.22,2.29-1.67,9.62-13.22-2.29Zm-2.56,14.72L247,110.61l-7.68,44.24-13.22-2.29Z"/><path class="cls-7" d="M256.69,97.56l21.67,3.76c14.72,2.56,22.5,11.32,20.28,24.12L295.41,144c-2.25,13-12.5,18.41-27.22,15.86l-21.67-3.76Zm13.68,49.77c6.52,1.13,10-2.22,10.6-5.48l3.34-19.24c.58-3.35-1.61-7.61-8.13-8.74l-7.28-1.26-5.81,33.46Z"/><path class="cls-7" d="M308.39,106.54l23.67,4.11c10,1.74,14.67,9.27,12.86,19.73-1.66,9.53-7.59,14.45-15.84,14.31l10.14,26.48-.17,1-2.51-.44-10.45-27.15L305.17,141l-4.27,24.59-2.67-.46ZM325.85,142c8.53,1.48,14.71-2.87,16.31-12.06,1.57-9-2.42-15.33-10.87-16.79l-20.66-3.59-5,28.93Z"/><rect class="cls-8" x="226.11" y="164.06" width="7.23" height="13.4" transform="translate(22.18 367.88) rotate(-80.15)"/><rect class="cls-9" x="247.14" y="166.81" width="7.23" height="14.75" transform="translate(36.24 391.44) rotate(-80.15)"/><rect class="cls-10" x="296.71" y="146.38" width="7.23" height="72.83" transform="translate(68.86 447.42) rotate(-80.15)"/><g class="cls-2"><rect x="228.15" y="72.56" width="189.29" height="322" transform="translate(37.45 511.64) rotate(-80.15)"/><rect class="cls-3" x="228.15" y="72.56" width="189.29" height="322" transform="translate(37.45 511.64) rotate(-80.15)"/><path d="M270.93,183.57l13.22,2.29-1.67,9.62-13.22-2.29Zm-2.56,14.72,13.22,2.29-7.68,44.24-13.22-2.29Z"/><path d="M291.27,187.53l21.67,3.76c14.72,2.56,22.5,11.32,20.28,24.12L330,234c-2.25,13-12.5,18.41-27.22,15.86l-21.67-3.76Zm13.68,49.77c6.52,1.13,10-2.22,10.6-5.48l3.34-19.24c.58-3.35-1.61-7.61-8.13-8.74l-7.28-1.26L297.66,236Z"/><path d="M343,196.5l23.67,4.11c10,1.74,14.67,9.27,12.86,19.73-1.66,9.53-7.59,14.45-15.84,14.31l10.14,26.48-.17,1-2.51-.44-10.45-27.14-20.91-3.63-4.27,24.59L332.8,255Zm17.46,35.42c8.53,1.48,14.71-2.87,16.31-12.06,1.57-9-2.42-15.33-10.87-16.79l-20.66-3.59-5,28.93Z"/><rect x="260.68" y="254.02" width="7.23" height="13.4" transform="translate(-37.8 476.52) rotate(-80.15)"/><rect x="281.72" y="256.77" width="7.23" height="14.75" transform="translate(-23.74 500.09) rotate(-80.15)"/><rect x="331.29" y="236.34" width="7.23" height="72.83" transform="translate(8.88 556.06) rotate(-80.15)"/></g><g class="cls-4"><rect class="cls-5" x="223.15" y="65.56" width="189.29" height="322" transform="translate(40.2 500.91) rotate(-80.15)"/><rect class="cls-6" x="223.15" y="65.56" width="189.29" height="322" transform="translate(40.2 500.91) rotate(-80.15)"/></g><path class="cls-7" d="M265.93,176.57l13.22,2.29-1.67,9.62-13.22-2.29Zm-2.56,14.72,13.22,2.29-7.68,44.24-13.22-2.29Z"/><path class="cls-7" d="M286.27,180.53l21.67,3.76c14.72,2.56,22.5,11.32,20.28,24.12L325,227c-2.25,13-12.5,18.41-27.22,15.86l-21.67-3.76Zm13.68,49.77c6.52,1.13,10-2.22,10.6-5.48l3.34-19.24c.58-3.35-1.61-7.61-8.13-8.74l-7.28-1.26L292.66,229Z"/><path class="cls-7" d="M338,189.5l23.67,4.11c10,1.74,14.67,9.27,12.86,19.73-1.66,9.53-7.59,14.45-15.84,14.31l10.14,26.48-.17,1-2.51-.44-10.45-27.15-20.91-3.63-4.27,24.59L327.8,248Zm17.46,35.42c8.53,1.48,14.71-2.87,16.31-12.06,1.57-9-2.42-15.33-10.87-16.79l-20.66-3.59-5,28.93Z"/><rect class="cls-8" x="255.68" y="247.02" width="7.23" height="13.4" transform="translate(-35.04 465.8) rotate(-80.15)"/><rect class="cls-9" x="276.72" y="249.77" width="7.23" height="14.75" transform="translate(-20.98 489.36) rotate(-80.15)"/><rect class="cls-10" x="326.29" y="229.34" width="7.23" height="72.83" transform="translate(11.63 545.33) rotate(-80.15)"/><g class="cls-2"><rect x="158.19" y="-13.3" width="189.29" height="322" transform="translate(103.21 399.41) rotate(-89.56)"/><rect class="cls-3" x="158.19" y="-13.3" width="189.29" height="322" transform="translate(103.21 399.41) rotate(-89.56)"/><path d="M193.5,106.87l13.41.1-.07,9.76-13.41-.1Zm-.11,14.94,13.41.1-.34,44.9-13.41-.1Z"/><path d="M214.2,107.45l22,.17c14.94.11,24,7.49,23.95,20.48L260,146.94c-.1,13.15-9.32,20.21-24.26,20.09l-22-.17Zm21.63,46.86c6.62.05,9.53-3.84,9.56-7.14l.15-19.52c0-3.4-2.83-7.24-9.45-7.3l-7.39-.06-.26,34Z"/><path d="M266.67,107.85l24,.18c10.18.08,16,6.75,15.91,17.36-.07,9.68-5.13,15.5-13.29,16.71l14.33,24.46v1l-2.55,0-14.75-25.07-21.22-.16-.19,25-2.71,0Zm23,32.09c8.65.07,14-5.23,14.12-14.57.07-9.17-4.9-14.72-13.47-14.79l-21-.16-.22,29.36Z"/><rect x="195.96" y="177.37" width="7.23" height="13.4" transform="translate(13.99 382.24) rotate(-89.56)"/><rect x="217.27" y="176.63" width="7.23" height="14.75" transform="translate(35.2 403.49) rotate(-89.56)"/><rect x="267.58" y="147.98" width="7.23" height="72.83" transform="translate(84.75 454.18) rotate(-89.56)"/></g><g class="cls-4"><rect class="cls-5" x="153.19" y="-20.3" width="189.29" height="322" transform="translate(105.25 387.46) rotate(-89.56)"/><rect class="cls-6" x="153.19" y="-20.3" width="189.29" height="322" transform="translate(105.25 387.46) rotate(-89.56)"/></g><path class="cls-7" d="M188.5,99.87l13.41.1-.07,9.76-13.41-.1Zm-.11,14.94,13.41.1-.34,44.9-13.41-.1Z"/><path class="cls-7" d="M209.2,100.45l22,.17c14.94.11,24,7.49,23.95,20.48L255,139.94c-.1,13.15-9.32,20.21-24.26,20.09l-22-.17Zm21.63,46.86c6.62.05,9.53-3.84,9.56-7.14l.15-19.52c0-3.4-2.83-7.24-9.45-7.3l-7.39-.06-.26,34Z"/><path class="cls-7" d="M261.67,100.85l24,.18c10.18.08,16,6.75,15.91,17.36-.07,9.68-5.13,15.5-13.29,16.71l14.33,24.46v1l-2.55,0-14.75-25.07-21.22-.16-.19,25-2.71,0Zm23,32.09c8.65.07,14-5.23,14.12-14.57.07-9.17-4.9-14.72-13.47-14.79l-21-.16-.22,29.36Z"/><rect class="cls-8" x="190.96" y="170.37" width="7.23" height="13.4" transform="translate(16.03 370.29) rotate(-89.56)"/><rect class="cls-9" x="212.27" y="169.63" width="7.23" height="14.75" transform="translate(37.24 391.54) rotate(-89.56)"/><rect class="cls-10" x="262.58" y="140.98" width="7.23" height="72.83" transform="translate(86.79 442.23) rotate(-89.56)"/></g></g></g></svg>