<?xml version="1.0" encoding="utf-8"?>
<!-- Generator: Adobe Illustrator 20.0.0, SVG Export Plug-In . SVG Version: 6.00 Build 0)  -->
<svg version="1.1" id="Слой_1" xmlns="http://www.w3.org/2000/svg" xmlns:xlink="http://www.w3.org/1999/xlink" x="0px" y="0px"
	 viewBox="0 0 512.5 367.3" style="enable-background:new 0 0 512.5 367.3;" xml:space="preserve">
<style type="text/css">
	.st0{opacity:5.000000e-02;}
	.st1{fill:none;stroke:#000000;stroke-width:34.44;stroke-miterlimit:10;}
	.st2{opacity:0.97;}
	.st3{fill:#FFFFFF;}
	.st4{fill:none;stroke:#95C8B1;stroke-width:34.44;stroke-miterlimit:10;}
	.st5{fill:#263238;}
	.st6{fill:#EC2227;}
	.st7{fill:#FBB03B;}
	.st8{fill:#95C8B1;}
</style>
<title>Монтажная область 125</title>
<g>
	<g id="Layer_1">
		<g class="st0">
			<rect x="38.6" y="52.8" transform="matrix(0.9856 -0.1693 0.1693 0.9856 -22.0869 35.9293)" width="322" height="189.3"/>
			
				<rect x="38.6" y="52.8" transform="matrix(0.9856 -0.1693 0.1693 0.9856 -22.0869 35.9293)" class="st1" width="322" height="189.3"/>
			<path d="M134,117.7l13.2-2.3l1.6,9.6l-13.2,2.3L134,117.7z M136.5,132.4l13.2-2.3l7.6,44.3l-13.2,2.3L136.5,132.4z"/>
			<path d="M154.4,114.6l21.7-3.7c14.7-2.5,25,3.1,27.2,15.9l3.2,18.6c2.2,13-5.6,21.5-20.3,24.1l-21.7,3.7L154.4,114.6z M184,156.9
				c6.5-1.1,8.7-5.5,8.1-8.7l-3.3-19.2c-0.6-3.3-4.1-6.6-10.6-5.5l-7.3,1.2l5.8,33.5L184,156.9z"/>
			<path d="M206.2,105.8l23.7-4.1c10-1.7,16.9,3.8,18.7,14.3c1.6,9.5-2.3,16.2-10.1,18.8l18.4,21.5l0.2,1l-2.5,0.4l-19-22.1
				l-20.9,3.6l4.2,24.6l-2.7,0.5L206.2,105.8z M234.5,133.3c8.5-1.5,12.9-7.6,11.3-16.8c-1.6-9-7.4-13.6-15.9-12.2l-20.7,3.6l5,28.9
				L234.5,133.3z"/>
			<rect x="147.7" y="189.8" transform="matrix(0.9856 -0.1692 0.1692 0.9856 -30.5049 28.9212)" width="13.5" height="7.3"/>
			<rect x="167.2" y="185.2" transform="matrix(0.9856 -0.1693 0.1693 0.9856 -29.4561 32.2889)" width="14.8" height="7.2"/>
			<rect x="187.7" y="176.7" transform="matrix(0.9856 -0.1693 0.1693 0.9856 -27.2962 40.564)" width="72.8" height="7.2"/>
		</g>
		<g class="st2">
			
				<rect x="33.6" y="45.8" transform="matrix(0.9856 -0.1693 0.1693 0.9856 -20.9733 34.9826)" class="st3" width="322" height="189.3"/>
			
				<rect x="33.6" y="45.8" transform="matrix(0.9856 -0.1693 0.1693 0.9856 -20.9733 34.9826)" class="st4" width="322" height="189.3"/>
		</g>
		<path class="st5" d="M129,110.7l13.2-2.3l1.6,9.6l-13.2,2.3L129,110.7z M131.5,125.5l13.2-2.3l7.6,44.3l-13.2,2.3L131.5,125.5z"/>
		<path class="st5" d="M149.4,107.6l21.7-3.7c14.7-2.5,25,3.1,27.2,15.9l3.2,18.6c2.2,13-5.6,21.5-20.3,24.1l-21.7,3.7L149.4,107.6z
			 M179,149.9c6.5-1.1,8.7-5.5,8.1-8.7l-3.3-19.2c-0.6-3.3-4.1-6.6-10.6-5.5l-7.3,1.2l5.8,33.5L179,149.9z"/>
		<path class="st5" d="M201.2,98.8l23.7-4.1c10-1.7,16.9,3.8,18.7,14.3c1.6,9.5-2.3,16.2-10.1,18.8l18.4,21.5l0.2,1l-2.5,0.4
			l-19-22.1l-20.9,3.6l4.2,24.6l-2.7,0.5L201.2,98.8z M229.5,126.3c8.5-1.5,12.9-7.6,11.3-16.8c-1.6-9-7.4-13.6-15.9-12.2l-20.7,3.6
			l5,28.9L229.5,126.3z"/>
		
			<rect x="142.6" y="182.7" transform="matrix(0.9856 -0.1692 0.1692 0.9856 -29.3877 27.9685)" class="st6" width="13.5" height="7.3"/>
		
			<rect x="162.2" y="178.2" transform="matrix(0.9856 -0.1693 0.1693 0.9856 -28.3426 31.3405)" class="st7" width="14.8" height="7.2"/>
		
			<rect x="182.7" y="169.7" transform="matrix(0.9856 -0.1693 0.1693 0.9856 -26.1826 39.6155)" class="st8" width="72.8" height="7.2"/>
		<g class="st0">
			<rect x="198.6" y="-10.4" transform="matrix(0.1711 -0.9853 0.9853 0.1711 94.6723 413.7238)" width="189.3" height="322"/>
			
				<rect x="198.6" y="-10.4" transform="matrix(0.1711 -0.9853 0.9853 0.1711 94.6723 413.7238)" class="st1" width="189.3" height="322"/>
			<path d="M241.4,100.6l13.2,2.3l-1.7,9.6l-13.2-2.3L241.4,100.6z M238.8,115.3l13.2,2.3l-7.7,44.2l-13.2-2.3L238.8,115.3z"/>
			<path d="M261.7,104.6l21.7,3.8c14.7,2.6,22.5,11.3,20.3,24.1l-3.2,18.6c-2.3,13-12.5,18.4-27.2,15.9l-21.7-3.8L261.7,104.6z
				 M275.4,154.3c6.5,1.1,10-2.2,10.6-5.5l3.3-19.2c0.6-3.3-1.6-7.6-8.1-8.7l-7.3-1.3l-5.8,33.5L275.4,154.3z"/>
			<path d="M313.4,113.5l23.7,4.1c10,1.7,14.7,9.3,12.9,19.7c-1.7,9.5-7.6,14.4-15.8,14.3l10.1,26.5l-0.2,1l-2.5-0.4l-10.5-27.1
				l-20.9-3.6l-4.3,24.6l-2.7-0.5L313.4,113.5z M330.9,149c8.5,1.5,14.7-2.9,16.3-12.1c1.6-9-2.4-15.3-10.9-16.8l-20.7-3.6l-5,28.9
				L330.9,149z"/>
			<rect x="231.1" y="171.1" transform="matrix(0.1711 -0.9853 0.9853 0.1711 19.4357 378.6099)" width="7.2" height="13.4"/>
			<rect x="252.1" y="173.8" transform="matrix(0.1711 -0.9853 0.9853 0.1711 33.4945 402.1718)" width="7.2" height="14.8"/>
			<rect x="301.7" y="153.4" transform="matrix(0.1711 -0.9853 0.9853 0.1711 66.1004 458.1541)" width="7.2" height="72.8"/>
		</g>
		<g class="st2">
			
				<rect x="193.6" y="-17.4" transform="matrix(0.1711 -0.9853 0.9853 0.1711 97.4239 402.9919)" class="st3" width="189.3" height="322"/>
			
				<rect x="193.6" y="-17.4" transform="matrix(0.1711 -0.9853 0.9853 0.1711 97.4239 402.9919)" class="st4" width="189.3" height="322"/>
		</g>
		<path class="st5" d="M236.4,93.6l13.2,2.3l-1.7,9.6l-13.2-2.3L236.4,93.6z M233.8,108.3l13.2,2.3l-7.7,44.2l-13.2-2.3L233.8,108.3
			z"/>
		<path class="st5" d="M256.7,97.6l21.7,3.8c14.7,2.6,22.5,11.3,20.3,24.1l-3.2,18.6c-2.3,13-12.5,18.4-27.2,15.9l-21.7-3.8
			L256.7,97.6z M270.4,147.3c6.5,1.1,10-2.2,10.6-5.5l3.3-19.2c0.6-3.3-1.6-7.6-8.1-8.7l-7.3-1.3l-5.8,33.5L270.4,147.3z"/>
		<path class="st5" d="M308.4,106.5l23.7,4.1c10,1.7,14.7,9.3,12.9,19.7c-1.7,9.5-7.6,14.4-15.8,14.3l10.1,26.5l-0.2,1l-2.5-0.4
			l-10.5-27.1l-20.9-3.6l-4.3,24.6l-2.7-0.5L308.4,106.5z M325.9,142c8.5,1.5,14.7-2.9,16.3-12.1c1.6-9-2.4-15.3-10.9-16.8
			l-20.7-3.6l-5,28.9L325.9,142z"/>
		
			<rect x="226.1" y="164.1" transform="matrix(0.1711 -0.9853 0.9853 0.1711 22.1873 367.8779)" class="st6" width="7.2" height="13.4"/>
		
			<rect x="247.1" y="166.8" transform="matrix(0.1711 -0.9853 0.9853 0.1711 36.246 391.4398)" class="st7" width="7.2" height="14.8"/>
		
			<rect x="296.7" y="146.4" transform="matrix(0.1711 -0.9853 0.9853 0.1711 68.8602 447.4321)" class="st8" width="7.2" height="72.8"/>
		<g class="st0">
			<rect x="228.1" y="72.6" transform="matrix(0.1711 -0.9853 0.9853 0.1711 37.453 511.6328)" width="189.3" height="322"/>
			
				<rect x="228.1" y="72.6" transform="matrix(0.1711 -0.9853 0.9853 0.1711 37.453 511.6328)" class="st1" width="189.3" height="322"/>
			<path d="M270.9,183.6l13.2,2.3l-1.7,9.6l-13.2-2.3L270.9,183.6z M268.4,198.3l13.2,2.3l-7.7,44.2l-13.2-2.3L268.4,198.3z"/>
			<path d="M291.3,187.5l21.7,3.8c14.7,2.6,22.5,11.3,20.3,24.1L330,234c-2.3,13-12.5,18.4-27.2,15.9l-21.7-3.8L291.3,187.5z
				 M304.9,237.3c6.5,1.1,10-2.2,10.6-5.5l3.3-19.2c0.6-3.4-1.6-7.6-8.1-8.7l-7.3-1.3l-5.8,33.4L304.9,237.3z"/>
			<path d="M343,196.5l23.7,4.1c10,1.7,14.7,9.3,12.9,19.7c-1.7,9.5-7.6,14.4-15.8,14.3l10.1,26.5l-0.2,1l-2.5-0.4l-10.5-27.1
				l-20.9-3.6l-4.3,24.6l-2.7-0.5L343,196.5z M360.5,231.9c8.5,1.5,14.7-2.9,16.3-12.1c1.6-9-2.4-15.3-10.9-16.8l-20.7-3.6l-5,28.9
				L360.5,231.9z"/>
			<rect x="260.7" y="254" transform="matrix(0.1711 -0.9853 0.9853 0.1711 -37.8012 476.5142)" width="7.2" height="13.4"/>
			<rect x="281.7" y="256.8" transform="matrix(0.1711 -0.9853 0.9853 0.1711 -23.7313 500.0696)" width="7.2" height="14.8"/>
			<rect x="331.3" y="236.3" transform="matrix(0.1711 -0.9853 0.9853 0.1711 8.8829 556.0618)" width="7.2" height="72.8"/>
			<polygon points="349.5,169.2 405.4,210.6 516.5,156.8 399,268.8 			"/>
			<polygon points="375.4,200.1 401.7,253.2 466.4,191.5 404.3,221.5 			"/>
		</g>
		<g class="st2">
			
				<rect x="223.1" y="65.6" transform="matrix(0.1711 -0.9853 0.9853 0.1711 40.2045 500.9009)" class="st3" width="189.3" height="322"/>
			
				<rect x="223.1" y="65.6" transform="matrix(0.1711 -0.9853 0.9853 0.1711 40.2045 500.9009)" class="st4" width="189.3" height="322"/>
		</g>
		<path class="st5" d="M265.9,176.6l13.2,2.3l-1.7,9.6l-13.2-2.3L265.9,176.6z M263.4,191.3l13.2,2.3l-7.7,44.2l-13.2-2.3
			L263.4,191.3z"/>
		<path class="st5" d="M286.3,180.5l21.7,3.8c14.7,2.6,22.5,11.3,20.3,24.1L325,227c-2.3,13-12.5,18.4-27.2,15.9l-21.7-3.8
			L286.3,180.5z M299.9,230.3c6.5,1.1,10-2.2,10.6-5.5l3.3-19.2c0.6-3.4-1.6-7.6-8.1-8.7l-7.3-1.3l-5.8,33.4L299.9,230.3z"/>
		<path class="st5" d="M338,189.5l23.7,4.1c10,1.7,14.7,9.3,12.9,19.7c-1.7,9.5-7.6,14.4-15.8,14.3l10.1,26.5l-0.2,1l-2.5-0.4
			l-10.5-27.1l-20.9-3.6l-4.3,24.6l-2.7-0.5L338,189.5z M355.5,224.9c8.5,1.5,14.7-2.9,16.3-12.1c1.6-9-2.4-15.3-10.9-16.8
			l-20.7-3.6l-5,28.9L355.5,224.9z"/>
		
			<rect x="255.7" y="247" transform="matrix(0.1711 -0.9853 0.9853 0.1711 -35.0414 465.7921)" class="st6" width="7.2" height="13.4"/>
		
			<rect x="276.7" y="249.8" transform="matrix(0.1711 -0.9853 0.9853 0.1711 -20.9813 489.3559)" class="st7" width="7.2" height="14.8"/>
		
			<rect x="326.3" y="229.3" transform="matrix(0.1711 -0.9853 0.9853 0.1711 11.6344 545.3299)" class="st8" width="7.2" height="72.8"/>
		<polygon class="st3" points="344.5,162.2 400.4,203.6 511.5,149.8 394,261.8 		"/>
		<polygon class="st7" points="370.4,193.1 396.7,246.2 461.4,184.5 399.3,214.5 		"/>
		<g class="st0">
			<rect x="158.2" y="-13.3" transform="matrix(7.679416e-03 -1 1 7.679416e-03 103.1932 399.4221)" width="189.3" height="322"/>
			
				<rect x="158.2" y="-13.3" transform="matrix(7.679416e-03 -1 1 7.679416e-03 103.1932 399.4221)" class="st1" width="189.3" height="322"/>
			<path d="M193.5,106.9l13.4,0.1l-0.1,9.8l-13.4-0.1L193.5,106.9z M193.4,121.8l13.4,0.1l-0.3,44.9l-13.4-0.1L193.4,121.8z"/>
			<path d="M214.2,107.4l22,0.2c14.9,0.1,24,7.5,23.9,20.5l-0.1,18.8c-0.1,13.1-9.3,20.2-24.3,20.1l-22-0.2L214.2,107.4z
				 M235.8,154.3c6.6,0.1,9.5-3.8,9.6-7.1l0.1-19.5c0-3.4-2.8-7.2-9.4-7.3l-7.4-0.1l-0.3,34L235.8,154.3z"/>
			<path d="M266.7,107.8l24,0.2c10.2,0.1,16,6.8,15.9,17.4c-0.1,9.7-5.1,15.5-13.3,16.7l14.3,24.5v1h-2.5l-14.8-25.1l-21.2-0.2
				l-0.2,25h-2.7L266.7,107.8z M289.7,139.9c8.6,0.1,14-5.2,14.1-14.6c0.1-9.2-4.9-14.7-13.5-14.8l-21-0.2l-0.2,29.4L289.7,139.9z"
				/>
			<rect x="196" y="177.4" transform="matrix(7.679416e-03 -1 1 7.679416e-03 13.9755 382.252)" width="7.2" height="13.4"/>
			<rect x="217.3" y="176.6" transform="matrix(7.679416e-03 -1 1 7.679416e-03 35.1804 403.5007)" width="7.2" height="14.8"/>
			<rect x="267.6" y="148" transform="matrix(7.679416e-03 -1 1 7.679416e-03 84.7357 454.2071)" width="7.2" height="72.8"/>
		</g>
		
			<rect x="153.2" y="-20.3" transform="matrix(7.679416e-03 -1 1 7.679416e-03 105.2371 387.474)" class="st3" width="189.3" height="322"/>
		
			<rect x="153.2" y="-20.3" transform="matrix(7.679416e-03 -1 1 7.679416e-03 105.2371 387.474)" class="st4" width="189.3" height="322"/>
		<path class="st5" d="M188.5,99.9l13.4,0.1l-0.1,9.8l-13.4-0.1L188.5,99.9z M188.4,114.8l13.4,0.1l-0.3,44.9l-13.4-0.1L188.4,114.8
			z"/>
		<path class="st5" d="M209.2,100.4l22,0.2c14.9,0.1,24,7.5,23.9,20.5l-0.1,18.8c-0.1,13.1-9.3,20.2-24.3,20.1l-22-0.2L209.2,100.4z
			 M230.8,147.3c6.6,0.1,9.5-3.8,9.6-7.1l0.1-19.5c0-3.4-2.8-7.2-9.4-7.3l-7.4-0.1l-0.3,34L230.8,147.3z"/>
		<path class="st5" d="M261.7,100.8l24,0.2c10.2,0.1,16,6.8,15.9,17.4c-0.1,9.7-5.1,15.5-13.3,16.7l14.3,24.5v1h-2.5l-14.8-25.1
			l-21.2-0.2l-0.2,25h-2.7L261.7,100.8z M284.7,132.9c8.6,0.1,14-5.2,14.1-14.6c0.1-9.2-4.9-14.7-13.5-14.8l-21-0.2l-0.2,29.4
			L284.7,132.9z"/>
		
			<rect x="191" y="170.4" transform="matrix(7.679416e-03 -1 1 7.679416e-03 16.0193 370.3039)" class="st6" width="7.2" height="13.4"/>
		
			<rect x="212.3" y="169.6" transform="matrix(7.679416e-03 -1 1 7.679416e-03 37.2242 391.5526)" class="st7" width="7.2" height="14.8"/>
		
			<rect x="262.6" y="141" transform="matrix(7.679416e-03 -1 1 7.679416e-03 86.7796 442.2589)" class="st8" width="7.2" height="72.8"/>
		<polygon class="st3" points="261.5,63.7 321.9,98.2 425.8,31.6 322.4,156.8 		"/>
		<polygon class="st7" points="290.9,91.3 323.3,141 380.2,72 322.1,109.2 		"/>
	</g>
</g>
</svg>
