<svg xmlns="http://www.w3.org/2000/svg" viewBox="0 0 167.64 204.24"><defs><style>.cls-1{fill:#263238;}.cls-2{fill:#fbb03b;}.cls-3{fill:#ec2227;}.cls-4{fill:#95c8b1;}</style></defs><title>Asset 5iDR-illustration</title><g id="Layer_2" data-name="Layer 2"><g id="Layer_1_copy" data-name="Layer 1 copy"><path class="cls-1" d="M36.25,50.73a8.74,8.74,0,0,0-.63-3.83c-.14-.48-1.37-5.37-1.44-5.39A45.93,45.93,0,0,0,23.63,39.3c-3.24-.24-6.79.15-9.17,2.37a14.72,14.72,0,0,0-3,4.85c-1.32,2.89-3.9,6.56-3.61,9.79.22,2.52,1.6,4.44,2.92,6.52C14.16,68.25,18,73.57,23.09,77.51l11.5-11.64c-1.49,1.5-13.1-10.48-13.89-12a13.17,13.17,0,0,0,7.92-7.28l3.05,2.27a.77.77,0,0,1,.32.37.78.78,0,0,1-.23.64,38,38,0,0,0-3.3,4.47c2.73.76,5.2.73,6.93-1.7A4.66,4.66,0,0,0,36.25,50.73Z"/><path class="cls-2" d="M38.15,200.45l29.19-17.13,5.93-8.6V113.95l19.43,2.16s43.73,0,43.92-.78-17.35,6.48-17.35,6.48v78.65S115,203.54,106,203.54C72.52,203.54,38.15,200.45,38.15,200.45Z"/><polygon class="cls-3" points="63.44 104.91 95.43 121.74 84.16 155.33 67.4 135.75 63.44 104.91"/><path class="cls-1" d="M60.45,179.84c1.12,5.86,11.32,4.65,14.74,2a10.92,10.92,0,0,0,2-2c4.43-5.75,2.06-13.9,8.46-18.73a10.17,10.17,0,0,0,2.06-1.71c1.73-2.24.05-5.57-2.19-7.29s-5.09-2.76-6.75-5c-1.47-2-1.74-4.63-2.21-7.08A38.6,38.6,0,0,0,65.62,119.7c6.65-.16,13.75-.4,19.83-3.4,1.39-.69,2.67-2,4-2.61s3.35-.35,5-.4c4-.11,7.93-.29,11.9-.36,4.94-.08,9.87-.28,14.8-.53,1.7-.09,5.47.42,6.91-.5,1.85-1.19,2-6.05,2.22-8,.4-3.83.22-7.69.32-11.53a88.74,88.74,0,0,0-1.41-19.28c-2.38-12.22-8-23.59-14.69-34.11a68,68,0,0,0-10.38-13.28A83.52,83.52,0,0,0,94.27,18L74.54,4.32c-2.07-1.44-4.34-2.94-6.86-2.86-3.4.11-6,3-8.9,4.66-3.84,2.2-9.07,2.94-13.42,3A9.26,9.26,0,0,0,46.93,4,62.65,62.65,0,0,1,30.38,2C26,.81,20.79-.63,16.26.3A18.26,18.26,0,0,0,5.47,7.48C1.74,12.58.39,19,0,25.35a22.57,22.57,0,0,1,8.26,2.53L11,37.7A7.93,7.93,0,0,1,15.59,36s3.44,3.43,4.25,3.75a11.3,11.3,0,0,0,5.59.72c5.14-.95,7-5.3,7.65-9.92q5.65-.62,11.33-.89l.69,4.74c-8.25,2.73-6.79,19.4-6.78,26.38,0,1.38.46,2.62-.18,4a6.84,6.84,0,0,1-1.26,1.65c-4,4.3-8,8.75-12.12,12.93C21.6,82.49,18,86.18,13.79,88c-1.83.78-3.88,1.28-5.22,2.74a9.82,9.82,0,0,0-1.92,4.59c-1.46,6.41-2.86,13.43.06,19.33,1.27,2.58,2.8,4.15,5.41,4.88.78.22,8.72.69,8.75,0a26.14,26.14,0,0,0-.7-7.29H18.72l-.08,2.74-4.16-.63a1.18,1.18,0,0,1-.62-.22,1.16,1.16,0,0,1-.28-.83,28.37,28.37,0,0,1,.36-6.45c9.74-.91,15.46,8.56,22,14.38,10.13,9,20.09,18.28,29.39,28.17,2.43,2.58,4.86,5.29,6.15,8.59a16.07,16.07,0,0,1-.92,13.19A19.21,19.21,0,0,1,60.45,179.84ZM57.71,80c2.57-5.21,4.73-12.6,8.41-17.07,1.8-2.18,2.19-1.75,5.17-1.8,2.3,0,4.67-.19,7-.28s4.91,6.5,6.47,7.75c1.79,1.43,2.46.75,3.57,3.07.93,2,1,4.92,1.07,7C89.39,76.11,61,80,57.71,80Z"/><polygon class="cls-4" points="112.94 121.14 98 204.24 167.64 204.24 151.03 119.73 112.94 121.14"/><polygon class="cls-1" points="127.61 101.01 130.52 108.89 150.55 113.95 151.03 121.06 95.24 121.74 72.53 112.04 127.61 101.01"/></g></g></svg>