<svg xmlns="http://www.w3.org/2000/svg" xmlns:xlink="http://www.w3.org/1999/xlink" viewBox="0 0 310.04 443.04"><defs><style>.cls-1{isolation:isolate;}.cls-2{fill:#eee;}.cls-3{fill:#c7c7c7;}.cls-4{fill:url(#linear-gradient);}.cls-5{fill:url(#linear-gradient-2);}.cls-6{fill:url(#linear-gradient-3);}.cls-7{fill:url(#linear-gradient-4);}.cls-8{mix-blend-mode:multiply;fill:url(#linear-gradient-5);}.cls-9{fill:url(#linear-gradient-6);}.cls-10{fill:url(#linear-gradient-7);}.cls-11{fill:url(#linear-gradient-8);}.cls-12{opacity:0.25;}.cls-13{fill:url(#linear-gradient-9);}.cls-14{fill:#fff;}.cls-15,.cls-19{fill:#95c8b1;}.cls-15,.cls-24{opacity:0.35;}.cls-16{fill:#263238;}.cls-17{fill:#4c665a;}.cls-18{fill:#333;}.cls-20{fill:#e6e6e6;}.cls-21{fill:#fbb03b;}.cls-22{fill:none;stroke:#95c8b1;stroke-miterlimit:10;stroke-width:0.88px;}.cls-23{fill:url(#linear-gradient-10);}.cls-25{fill:url(#radial-gradient);}.cls-26{fill:url(#radial-gradient-2);}.cls-27{fill:url(#linear-gradient-11);}.cls-28{fill:url(#radial-gradient-3);}.cls-29{fill:url(#radial-gradient-4);}.cls-30{fill:url(#radial-gradient-5);}.cls-31{fill:url(#radial-gradient-6);}.cls-32{fill:url(#radial-gradient-7);}.cls-33{fill:url(#radial-gradient-8);}.cls-34{fill:url(#radial-gradient-9);}.cls-35{fill:url(#radial-gradient-10);}.cls-36{fill:url(#radial-gradient-11);}.cls-37{fill:url(#linear-gradient-12);}</style><linearGradient id="linear-gradient" x1="-0.51" y1="221.35" x2="310.25" y2="221.35" gradientUnits="userSpaceOnUse"><stop offset="0" stop-color="#595959"/><stop offset="1" stop-color="#b3b3b3"/></linearGradient><linearGradient id="linear-gradient-2" x1="0.25" y1="221.38" x2="309.79" y2="221.38" gradientUnits="userSpaceOnUse"><stop offset="0" stop-color="#b3b3b3"/><stop offset="1" stop-color="#d7d7d7"/></linearGradient><linearGradient id="linear-gradient-3" x1="155.02" y1="1.3" x2="155.02" y2="419.17" gradientUnits="userSpaceOnUse"><stop offset="0"/><stop offset="1" stop-color="#0a0a0a"/></linearGradient><linearGradient id="linear-gradient-4" x1="155.06" y1="1.6" x2="155.06" y2="440.94" gradientUnits="userSpaceOnUse"><stop offset="0" stop-color="#404040"/><stop offset="0.01" stop-color="#404040" stop-opacity="0.94"/><stop offset="0.06" stop-color="#404040" stop-opacity="0.59"/><stop offset="0.11" stop-color="#404040" stop-opacity="0.33"/><stop offset="0.18" stop-color="#404040" stop-opacity="0.14"/><stop offset="0.28" stop-color="#404040" stop-opacity="0.03"/><stop offset="0.53" stop-color="#404040" stop-opacity="0"/><stop offset="0.66" stop-color="#404040" stop-opacity="0.05"/><stop offset="0.77" stop-color="#404040" stop-opacity="0.22"/><stop offset="0.88" stop-color="#404040" stop-opacity="0.5"/><stop offset="0.98" stop-color="#404040" stop-opacity="0.89"/><stop offset="1" stop-color="#404040"/></linearGradient><linearGradient id="linear-gradient-5" x1="273.63" y1="0.13" x2="291.27" y2="0.13" gradientUnits="userSpaceOnUse"><stop offset="0.06" stop-color="#dfdfdf" stop-opacity="0"/><stop offset="0.08" stop-color="#ddd" stop-opacity="0.02"/><stop offset="0.1" stop-color="#d5d5d5" stop-opacity="0.08"/><stop offset="0.12" stop-color="#c8c8c8" stop-opacity="0.19"/><stop offset="0.14" stop-color="#b7b7b7" stop-opacity="0.34"/><stop offset="0.15" stop-color="#a4a4a4" stop-opacity="0.5"/><stop offset="0.16" stop-color="#ababab" stop-opacity="0.57"/><stop offset="0.18" stop-color="#b8b8b8" stop-opacity="0.68"/><stop offset="0.21" stop-color="#c2c2c2" stop-opacity="0.78"/><stop offset="0.23" stop-color="#cbcbcb" stop-opacity="0.86"/><stop offset="0.27" stop-color="#d2d2d2" stop-opacity="0.92"/><stop offset="0.31" stop-color="#d7d7d7" stop-opacity="0.97"/><stop offset="0.36" stop-color="#d9d9d9" stop-opacity="0.99"/><stop offset="0.52" stop-color="#dadada"/><stop offset="0.6" stop-color="#dadada" stop-opacity="0.99"/><stop offset="0.66" stop-color="#d8d8d8" stop-opacity="0.94"/><stop offset="0.73" stop-color="#d5d5d5" stop-opacity="0.87"/><stop offset="0.79" stop-color="#d2d2d2" stop-opacity="0.76"/><stop offset="0.84" stop-color="#cdcdcd" stop-opacity="0.63"/><stop offset="0.89" stop-color="#c9c9c9" stop-opacity="0.51"/><stop offset="0.89" stop-color="#cacaca" stop-opacity="0.5"/><stop offset="0.9" stop-color="#dadada" stop-opacity="0.35"/><stop offset="0.91" stop-color="#e8e8e8" stop-opacity="0.22"/><stop offset="0.93" stop-color="#f2f2f2" stop-opacity="0.12"/><stop offset="0.94" stop-color="#f9f9f9" stop-opacity="0.05"/><stop offset="0.96" stop-color="#fefefe" stop-opacity="0.01"/><stop offset="1" stop-color="#fff" stop-opacity="0"/></linearGradient><linearGradient id="linear-gradient-6" x1="155.77" y1="434.32" x2="155.77" y2="424.17" gradientUnits="userSpaceOnUse"><stop offset="0" stop-color="#5d5d5d"/><stop offset="0.2" stop-color="#585858"/><stop offset="0.44" stop-color="#494949"/><stop offset="0.71" stop-color="#313131"/><stop offset="0.89" stop-color="#1b1b1b"/><stop offset="1" stop-color="#1b1b1b" stop-opacity="0"/></linearGradient><linearGradient id="linear-gradient-7" x1="155.77" y1="433.88" x2="155.77" y2="424.1" gradientUnits="userSpaceOnUse"><stop offset="0" stop-color="#666"/><stop offset="1" stop-color="#666" stop-opacity="0"/></linearGradient><linearGradient id="linear-gradient-8" x1="155.75" y1="413.37" x2="155.75" y2="423.6" gradientUnits="userSpaceOnUse"><stop offset="0" stop-color="#141a14"/><stop offset="1" stop-color="#1a1a1a" stop-opacity="0"/></linearGradient><linearGradient id="linear-gradient-9" x1="155.75" y1="421.15" x2="155.75" y2="426.24" gradientUnits="userSpaceOnUse"><stop offset="0" stop-color="#45474a"/><stop offset="0.24" stop-color="#4d4e52"/><stop offset="0.6" stop-color="#626367"/><stop offset="1" stop-color="#818085"/></linearGradient><linearGradient id="linear-gradient-10" x1="221.93" y1="-2.89" x2="221.93" y2="432.28" gradientUnits="userSpaceOnUse"><stop offset="0" stop-color="#fff" stop-opacity="0.6"/><stop offset="0.04" stop-color="#fff" stop-opacity="0.51"/><stop offset="0.14" stop-color="#fff" stop-opacity="0.36"/><stop offset="0.23" stop-color="#fff" stop-opacity="0.23"/><stop offset="0.33" stop-color="#fff" stop-opacity="0.13"/><stop offset="0.43" stop-color="#fff" stop-opacity="0.06"/><stop offset="0.53" stop-color="#fff" stop-opacity="0.01"/><stop offset="0.65" stop-color="#fff" stop-opacity="0"/></linearGradient><radialGradient id="radial-gradient" cx="728.96" cy="611.29" r="9.3" gradientTransform="matrix(-1, 0, 0, 1, 884.59, -587.95)" gradientUnits="userSpaceOnUse"><stop offset="0" stop-color="#595959"/><stop offset="0.45" stop-color="#2d2d2d"/><stop offset="0.85" stop-color="#020202"/></radialGradient><radialGradient id="radial-gradient-2" cx="729.05" cy="611.6" r="7.21" gradientTransform="matrix(-1, 0, 0, 1, 884.82, -587.68)" xlink:href="#radial-gradient"/><linearGradient id="linear-gradient-11" x1="728.99" y1="610.55" x2="728.99" y2="606.15" gradientTransform="matrix(-1, 0, 0, 1, 884.54, -588)" gradientUnits="userSpaceOnUse"><stop offset="0" stop-color="#595959"/><stop offset="0.16" stop-color="#535353"/><stop offset="0.37" stop-color="#424242"/><stop offset="0.61" stop-color="#262626"/><stop offset="0.85" stop-color="#020202"/></linearGradient><radialGradient id="radial-gradient-3" cx="728.96" cy="605.07" r="3.8" gradientTransform="matrix(-1, 0, 0, 1, 884.73, -587.79)" gradientUnits="userSpaceOnUse"><stop offset="0.13" stop-color="#454545"/><stop offset="0.31" stop-color="#3f3f3f"/><stop offset="0.56" stop-color="#2e2e2e"/><stop offset="0.85" stop-color="#121212"/><stop offset="1"/></radialGradient><radialGradient id="radial-gradient-4" cx="728.96" cy="608.28" r="2.47" gradientTransform="matrix(-1, 0, 0, 1, 884.97, -587.4)" gradientUnits="userSpaceOnUse"><stop offset="0.45" stop-color="#454545"/><stop offset="0.54" stop-color="#454545" stop-opacity="0.91"/><stop offset="0.65" stop-color="#454545" stop-opacity="0.66"/><stop offset="0.78" stop-color="#454545" stop-opacity="0.26"/><stop offset="0.85" stop-color="#454545" stop-opacity="0"/></radialGradient><radialGradient id="radial-gradient-5" cx="728.96" cy="607.74" r="2.05" gradientTransform="matrix(-1, 0, 0, 1, 884.58, -587.94)" gradientUnits="userSpaceOnUse"><stop offset="0" stop-color="#97bada"/><stop offset="0.06" stop-color="#91b5d5"/><stop offset="0.13" stop-color="#80a7c6"/><stop offset="0.21" stop-color="#6490ad"/><stop offset="0.23" stop-color="#5c89a6"/><stop offset="0.36" stop-color="#3a5f7c"/><stop offset="0.36" stop-color="#3e6380"/><stop offset="0.38" stop-color="#476f8c"/><stop offset="0.41" stop-color="#4c7593"/><stop offset="0.49" stop-color="#4e7795"/><stop offset="0.5" stop-color="#4c7592"/><stop offset="0.51" stop-color="#3f6581"/><stop offset="0.52" stop-color="#355a75"/><stop offset="0.54" stop-color="#30546e"/><stop offset="0.58" stop-color="#2e526c"/><stop offset="0.59" stop-color="#284860"/><stop offset="0.6" stop-color="#1f3b4f"/><stop offset="0.62" stop-color="#193144"/><stop offset="0.65" stop-color="#162c3d"/><stop offset="0.71" stop-color="#152a3b"/><stop offset="0.83" stop-color="#395d77"/><stop offset="0.83" stop-color="#34546d"/><stop offset="0.84" stop-color="#294157"/><stop offset="0.84" stop-color="#213146"/><stop offset="0.85" stop-color="#1b273b"/><stop offset="0.87" stop-color="#182134"/><stop offset="0.91" stop-color="#171f32"/><stop offset="0.95" stop-color="#a2c2cd"/><stop offset="0.96" stop-color="#99b6c0"/><stop offset="0.99" stop-color="#495154"/><stop offset="1" stop-color="#292929"/></radialGradient><radialGradient id="radial-gradient-6" cx="729.38" cy="608.3" r="1.99" gradientTransform="matrix(-1, 0, 0, 1, 885.11, -587.3)" gradientUnits="userSpaceOnUse"><stop offset="0" stop-color="#152a3b" stop-opacity="0"/><stop offset="0.42" stop-color="#152a3b" stop-opacity="0.04"/><stop offset="0.58" stop-color="#152839" stop-opacity="0.17"/><stop offset="0.68" stop-color="#162537" stop-opacity="0.41"/><stop offset="0.77" stop-color="#162234" stop-opacity="0.74"/><stop offset="0.82" stop-color="#171f32"/></radialGradient><radialGradient id="radial-gradient-7" cx="729.03" cy="607.81" r="1.66" gradientTransform="matrix(-0.71, 0.71, 0.71, 0.71, 241.47, -925.23)" gradientUnits="userSpaceOnUse"><stop offset="0.02" stop-color="#fff" stop-opacity="0"/><stop offset="0.12" stop-color="#fcfeff" stop-opacity="0.02"/><stop offset="0.25" stop-color="#f5fcff" stop-opacity="0.09"/><stop offset="0.4" stop-color="#eaf8ff" stop-opacity="0.2"/><stop offset="0.56" stop-color="#daf3ff" stop-opacity="0.36"/><stop offset="0.6" stop-color="#d6f2ff" stop-opacity="0.39"/><stop offset="0.65" stop-color="#d7f3ff" stop-opacity="0.41"/><stop offset="0.73" stop-color="#daf4ff" stop-opacity="0.48"/><stop offset="0.81" stop-color="#dff6ff" stop-opacity="0.58"/><stop offset="0.83" stop-color="#e0f7ff" stop-opacity="0.6"/><stop offset="1" stop-color="#fff" stop-opacity="0.87"/></radialGradient><radialGradient id="radial-gradient-8" cx="728.98" cy="607.81" r="1.76" gradientTransform="matrix(-0.71, 0.71, 0.71, 0.71, 241.47, -925.23)" gradientUnits="userSpaceOnUse"><stop offset="0.38" stop-color="#fff"/><stop offset="0.56" stop-color="#fff" stop-opacity="0.99"/><stop offset="0.63" stop-color="#fdfeff" stop-opacity="0.97"/><stop offset="0.67" stop-color="#fafdff" stop-opacity="0.93"/><stop offset="0.71" stop-color="#f6fcff" stop-opacity="0.87"/><stop offset="0.74" stop-color="#f1faff" stop-opacity="0.79"/><stop offset="0.77" stop-color="#eaf8ff" stop-opacity="0.69"/><stop offset="0.8" stop-color="#e3f6ff" stop-opacity="0.58"/><stop offset="0.82" stop-color="#daf3ff" stop-opacity="0.45"/><stop offset="0.83" stop-color="#d6f2ff" stop-opacity="0.39"/><stop offset="0.86" stop-color="#cbefff" stop-opacity="0.41"/><stop offset="0.89" stop-color="#ace7ff" stop-opacity="0.48"/><stop offset="0.92" stop-color="#7ad9ff" stop-opacity="0.58"/><stop offset="0.93" stop-color="#70d6ff" stop-opacity="0.6"/><stop offset="1" stop-color="#fff" stop-opacity="0"/></radialGradient><radialGradient id="radial-gradient-9" cx="2117.73" cy="-124.26" r="0.51" gradientTransform="matrix(-1, 0, 0, 1, 2273.77, 145.38)" gradientUnits="userSpaceOnUse"><stop offset="0.02" stop-color="#fff" stop-opacity="0"/><stop offset="0.12" stop-color="#fff" stop-opacity="0.02"/><stop offset="0.26" stop-color="#fff" stop-opacity="0.09"/><stop offset="0.41" stop-color="#fff" stop-opacity="0.2"/><stop offset="0.58" stop-color="#fff" stop-opacity="0.36"/><stop offset="0.76" stop-color="#fff" stop-opacity="0.56"/><stop offset="0.95" stop-color="#fff" stop-opacity="0.8"/><stop offset="1" stop-color="#fff" stop-opacity="0.87"/></radialGradient><radialGradient id="radial-gradient-10" cx="2117.74" cy="-125.02" r="0.3" gradientTransform="matrix(-1, 0, 0, 1, 2273.59, 145.77)" gradientUnits="userSpaceOnUse"><stop offset="0" stop-color="#fff" stop-opacity="0.87"/><stop offset="0.09" stop-color="#fff" stop-opacity="0.84"/><stop offset="0.25" stop-color="#fff" stop-opacity="0.74"/><stop offset="0.44" stop-color="#fff" stop-opacity="0.59"/><stop offset="0.66" stop-color="#fff" stop-opacity="0.38"/><stop offset="0.9" stop-color="#fff" stop-opacity="0.11"/><stop offset="1" stop-color="#fff" stop-opacity="0"/></radialGradient><radialGradient id="radial-gradient-11" cx="2117.76" cy="-125.93" r="0.21" gradientTransform="matrix(-1, 0, 0, 1, 2272.99, 152.63)" gradientUnits="userSpaceOnUse"><stop offset="0" stop-color="#fff" stop-opacity="0.87"/><stop offset="0.12" stop-color="#fff" stop-opacity="0.79"/><stop offset="0.36" stop-color="#fff" stop-opacity="0.6"/><stop offset="0.71" stop-color="#fff" stop-opacity="0.29"/><stop offset="1" stop-color="#fff" stop-opacity="0"/></radialGradient><linearGradient id="linear-gradient-12" x1="-0.6" y1="443.01" x2="340.95" y2="443.01" xlink:href="#linear-gradient"/></defs><title>Asset 21</title><g class="cls-1"><g id="Layer_2" data-name="Layer 2"><g id="Layer_1_copy" data-name="Layer 1 copy"><path class="cls-2" d="M293.44,1.3a15.19,15.19,0,0,1,15.18,15.18V426a15.19,15.19,0,0,1-15.18,15.18H16.6A15.19,15.19,0,0,1,1.43,426V16.48A15.19,15.19,0,0,1,16.6,1.3H293.44m0-1.3H16.6A16.48,16.48,0,0,0,.12,16.48V426A16.48,16.48,0,0,0,16.6,442.45H293.44A16.48,16.48,0,0,0,309.92,426V16.48A16.48,16.48,0,0,0,293.44,0Z"/><path class="cls-3" d="M293.47,1H16.64A15.45,15.45,0,0,0,1.21,16.44v409.5a15.45,15.45,0,0,0,15.43,15.43H293.47a15.45,15.45,0,0,0,15.43-15.43V16.44A15.45,15.45,0,0,0,293.47,1Zm15.18,424.93a15.2,15.2,0,0,1-15.18,15.18H16.64A15.19,15.19,0,0,1,1.46,425.94V16.44A15.19,15.19,0,0,1,16.64,1.27H293.47a15.2,15.2,0,0,1,15.18,15.18Z"/><path class="cls-4" d="M293.44,0H16.6A16.62,16.62,0,0,0,0,16.61V426.1a16.62,16.62,0,0,0,16.6,16.6H293.44A16.62,16.62,0,0,0,310,426.1V16.61A16.62,16.62,0,0,0,293.44,0Zm16.35,426.1a16.37,16.37,0,0,1-16.35,16.35H16.6A16.37,16.37,0,0,1,.25,426.1V16.61A16.37,16.37,0,0,1,16.6.25H293.44a16.37,16.37,0,0,1,16.35,16.35Z"/><path class="cls-5" d="M293.43.28H16.6A16.37,16.37,0,0,0,.25,16.64v409.5A16.37,16.37,0,0,0,16.6,442.48H293.43a16.37,16.37,0,0,0,16.35-16.35V16.64A16.37,16.37,0,0,0,293.43.28Zm16.1,425.85a16.12,16.12,0,0,1-16.1,16.1H16.6A16.12,16.12,0,0,1,.5,426.13V16.64A16.12,16.12,0,0,1,16.6.53H293.43a16.12,16.12,0,0,1,16.1,16.1Z"/><rect class="cls-6" x="1.43" y="1.3" width="307.19" height="439.85" rx="15.18" ry="15.18"/><path class="cls-7" d="M293.47,2A14.56,14.56,0,0,1,308,16.52V426a14.56,14.56,0,0,1-14.55,14.55H16.64A14.56,14.56,0,0,1,2.09,426V16.52A14.56,14.56,0,0,1,16.64,2H293.47m0-.38H16.64A14.94,14.94,0,0,0,1.71,16.52V426a14.94,14.94,0,0,0,14.93,14.93H293.47A14.94,14.94,0,0,0,308.4,426V16.52A14.94,14.94,0,0,0,293.47,1.6Z"/><rect class="cls-8" x="273.63" width="17.63" height="0.25"/><circle class="cls-9" cx="155.77" cy="424.39" r="9.93"/><path class="cls-10" d="M155.77,433.91a9.92,9.92,0,0,1-9.92-9.72c0,.07,0,.14,0,.21a9.93,9.93,0,0,0,19.86,0c0-.07,0-.14,0-.21A9.92,9.92,0,0,1,155.77,433.91Z"/><path class="cls-11" d="M155.76,413.91a9.93,9.93,0,0,1,9.9,9.73c0-.06,0-.13,0-.19a9.91,9.91,0,0,0-19.83,0c0,.06,0,.13,0,.19A9.92,9.92,0,0,1,155.76,413.91Z"/><g class="cls-12"><path d="M157.91,421.75a.92.92,0,0,1,.92.93V427a.92.92,0,0,1-.92.93H153.6a.93.93,0,0,1-.93-.93v-4.31a.93.93,0,0,1,.93-.93h4.31m0-.38H153.6a1.31,1.31,0,0,0-1.3,1.31V427a1.3,1.3,0,0,0,1.3,1.3h4.31a1.3,1.3,0,0,0,1.3-1.3v-4.31a1.31,1.31,0,0,0-1.3-1.31Z"/></g><path class="cls-13" d="M157.91,421.4a.92.92,0,0,1,.92.93v4.31a.92.92,0,0,1-.92.93H153.6a.93.93,0,0,1-.93-.93v-4.31a.93.93,0,0,1,.93-.93h4.31m0-.38H153.6a1.31,1.31,0,0,0-1.3,1.31v4.31a1.3,1.3,0,0,0,1.3,1.3h4.31a1.3,1.3,0,0,0,1.3-1.3v-4.31a1.31,1.31,0,0,0-1.3-1.31Z"/><rect class="cls-14" x="16.91" y="40.59" width="274.92" height="360.65"/><rect class="cls-15" x="16.91" y="59.39" width="274.92" height="341.84"/><path class="cls-16" d="M21.85,50.89l-1.38-2.07.36-.36a1.28,1.28,0,0,1,.83-.36H23.8A1.86,1.86,0,0,0,25,47.62l2-1.4L23.21,50a3,3,0,0,0-1.25.78Zm1.83,1.62-.48.48L23,52.74l-.24.24c-.07.07-.25,0-.42-.18a1,1,0,0,1-.16-.21c-.29.28-.56.45-.62.39s.11-.32.39-.62a1,1,0,0,1-.21-.16c-.16-.16-.25-.35-.18-.42l.24-.24-.24-.24.48-.48a2.85,2.85,0,0,1,1.24-.76l4.14-4.14.82-.58c.83-.6,1.31-.6,1.43-.48s.12.6-.48,1.43l-.58.82-4.14,4.14A2.85,2.85,0,0,1,23.69,52.51Zm4.61-5-1.4,2a1.86,1.86,0,0,0-.48,1.19v2.14a1.3,1.3,0,0,1-.36.83l-.36.36-2.07-1.38.11-.11a3,3,0,0,0,.78-1.25Zm-.09-1.22a.6.6,0,0,1,.15.54l.41-.19a.75.75,0,0,0-.91-.91l-.19.41A.6.6,0,0,1,28.21,46.31Z"/><rect class="cls-17" x="16.89" y="400.16" width="275.52" height="2.73"/><path class="cls-18" d="M47,310.15v-4.83c0-3.45,2.35-5.45,6-5.45s6,2,6,5.45v4.83a5.12,5.12,0,0,1-1.7,4.09L59,316.81v1h-3l-1.55-2.39a8.21,8.21,0,0,1-1.49.15C49.39,315.6,47,313.6,47,310.15Zm9,.15v-5.13c0-1.29-.9-2.5-3-2.5s-3,1.21-3,2.5v5.13c0,1.29.91,2.5,3,2.5S56,311.59,56,310.3Z"/><rect class="cls-16" x="17.14" y="376.99" width="275.25" height="23.32"/><path class="cls-18" d="M69.66,305.55h4.51c1.86,0,3,1.26,3,3.25S76,312,74.17,312H71v4.3H69.66Zm4.28,5.3a2.07,2.07,0,0,0,0-4.11H71v4.11Z"/><path class="cls-18" d="M79,308.41h.65l.45,1a3.61,3.61,0,0,1,2.59-1.23h.2v1.2h-.17a3,3,0,0,0-2.48,1.11v5.79H79Z"/><path class="cls-18" d="M84.16,313.57v-2.4c0-1.66,1.11-2.94,3.29-2.94s3.28,1.28,3.28,2.94v2.4c0,1.66-1.09,2.94-3.28,2.94S84.16,315.23,84.16,313.57Zm5.34,0v-2.31a1.82,1.82,0,0,0-2-1.86,1.84,1.84,0,0,0-2.06,1.86v2.31a1.84,1.84,0,0,0,2.06,1.86A1.82,1.82,0,0,0,89.5,313.52Z"/><path class="cls-18" d="M99.5,311.14v2.46a2.66,2.66,0,0,1-2.83,2.91,3.27,3.27,0,0,1-2.51-1.15v3.43H92.93V308.41h.74l.43,1a3.48,3.48,0,0,1,2.62-1.23A2.65,2.65,0,0,1,99.5,311.14Zm-1.23,2.37v-2.28a1.74,1.74,0,0,0-1.77-1.88,3.33,3.33,0,0,0-2.34,1.25v3.54a3.3,3.3,0,0,0,2.32,1.25A1.74,1.74,0,0,0,98.27,313.51Z"/><path class="cls-18" d="M108.23,316.32h-.74l-.45-1a3.39,3.39,0,0,1-2.59,1.23,2.65,2.65,0,0,1-2.71-3v-5.13H103v5c0,1.37.75,2,1.72,2a3.19,3.19,0,0,0,2.29-1.25v-5.73h1.23Z"/><path class="cls-18" d="M110.78,305.47H112v10.85h-1.23Z"/><path class="cls-18" d="M114.11,313.65h1.23c0,1.2,1.08,1.74,2.31,1.74s1.85-.51,1.85-1.2-.35-.86-1.23-1.09l-2-.51c-1.08-.28-1.89-.77-1.89-2s1.14-2.33,3.06-2.33,3.13.92,3.13,2.79h-1.23c0-1.14-.85-1.66-2-1.66s-1.74.52-1.74,1.12.31.83,1.12,1l1.92.48c1.23.31,2,.83,2,2.09,0,1.43-1.2,2.42-3.17,2.42S114.11,315.55,114.11,313.65Z"/><path class="cls-18" d="M123,305.47h1.23v1.69H123Zm0,2.94h1.23v7.91H123Z"/><path class="cls-18" d="M126.4,313.57v-2.4c0-1.66,1.11-2.94,3.29-2.94s3.28,1.28,3.28,2.94v2.4c0,1.66-1.09,2.94-3.28,2.94S126.4,315.23,126.4,313.57Zm5.34,0v-2.31a1.82,1.82,0,0,0-2-1.86,1.84,1.84,0,0,0-2.06,1.86v2.31a1.84,1.84,0,0,0,2.06,1.86A1.82,1.82,0,0,0,131.75,313.52Z"/><path class="cls-18" d="M135.18,308.41h.74l.43,1a3.45,3.45,0,0,1,2.6-1.23,2.66,2.66,0,0,1,2.74,3v5.13h-1.23v-5c0-1.37-.77-2-1.75-2a3.19,3.19,0,0,0-2.29,1.25v5.73h-1.23Z"/><path class="cls-18" d="M147.63,313.6v-2.43c0-1.76,1.23-2.94,3.29-2.94s3.2,1.14,3.2,2.91v1.65h-5.27v.79c0,1.06.71,1.82,2.06,1.82a1.7,1.7,0,0,0,1.92-1.43h1.23c-.14,1.55-1.25,2.56-3.16,2.56C148.86,316.51,147.63,315.37,147.63,313.6Zm5.27-1.82v-.65c0-1-.68-1.79-2-1.79a1.77,1.77,0,0,0-2,1.79v.65Z"/><path class="cls-18" d="M156.31,308.41H157l.43,1a3.45,3.45,0,0,1,2.6-1.23,2.66,2.66,0,0,1,2.74,3v5.13h-1.23v-5c0-1.37-.77-2-1.75-2a3.19,3.19,0,0,0-2.29,1.25v5.73h-1.23Z"/><path class="cls-18" d="M165.23,316.39h1.23c0,.77.68,1.46,2,1.46a1.72,1.72,0,0,0,2-1.91v-1.36a3.27,3.27,0,0,1-2.51,1.16,2.66,2.66,0,0,1-2.83-2.91v-1.69a2.65,2.65,0,0,1,2.79-2.91,3.4,3.4,0,0,1,2.6,1.23l.45-1h.74v7.5c0,2.08-1.26,3.06-3.19,3.06S165.26,318,165.23,316.39Zm5.16-3v-2.8a3.22,3.22,0,0,0-2.29-1.23,1.73,1.73,0,0,0-1.82,1.86v1.54a1.73,1.73,0,0,0,1.82,1.86A3.22,3.22,0,0,0,170.39,313.38Z"/><path class="cls-18" d="M174.17,305.47h1.23v1.69h-1.23Zm0,2.94h1.23v7.91h-1.23Z"/><path class="cls-18" d="M178,308.41h.74l.43,1a3.45,3.45,0,0,1,2.6-1.23,2.66,2.66,0,0,1,2.74,3v5.13h-1.23v-5c0-1.37-.77-2-1.75-2a3.19,3.19,0,0,0-2.29,1.25v5.73H178Z"/><path class="cls-18" d="M186.58,313.6v-2.43c0-1.76,1.23-2.94,3.29-2.94s3.2,1.14,3.2,2.91v1.65h-5.27v.79c0,1.06.71,1.82,2.06,1.82A1.7,1.7,0,0,0,191.8,314H193c-.14,1.55-1.25,2.56-3.16,2.56C187.81,316.51,186.58,315.37,186.58,313.6Zm5.27-1.82v-.65c0-1-.68-1.79-2-1.79a1.77,1.77,0,0,0-2,1.79v.65Z"/><path class="cls-18" d="M199.46,313.75v-4.26h-1.29v-1.08h1.29v-1.65h1.23v1.65h2v1.08h-2v4.23c0,1.06.49,1.48,1.29,1.48h.74v1.12H202A2.29,2.29,0,0,1,199.46,313.75Z"/><path class="cls-18" d="M205.91,318.33l.88-2-3-7.33v-.59H205l2.42,6.25,2.37-6.25h1.12V309l-3.94,9.79h-1Z"/><path class="cls-18" d="M219.08,311.14v2.46a2.66,2.66,0,0,1-2.83,2.91,3.27,3.27,0,0,1-2.51-1.15v3.43h-1.23V308.41h.74l.43,1a3.48,3.48,0,0,1,2.62-1.23A2.65,2.65,0,0,1,219.08,311.14Zm-1.23,2.37v-2.28a1.74,1.74,0,0,0-1.77-1.88,3.33,3.33,0,0,0-2.34,1.25v3.54a3.3,3.3,0,0,0,2.32,1.25A1.74,1.74,0,0,0,217.85,313.51Z"/><path class="cls-18" d="M221.05,313.6v-2.43c0-1.76,1.23-2.94,3.29-2.94s3.2,1.14,3.2,2.91v1.65h-5.27v.79c0,1.06.71,1.82,2.06,1.82a1.7,1.7,0,0,0,1.92-1.43h1.23c-.14,1.55-1.25,2.56-3.16,2.56C222.28,316.51,221.05,315.37,221.05,313.6Zm5.27-1.82v-.65c0-1-.68-1.79-2-1.79a1.77,1.77,0,0,0-2,1.79v.65Z"/><path class="cls-18" d="M229.27,313.65h1.23c0,1.2,1.08,1.74,2.31,1.74s1.85-.51,1.85-1.2-.35-.86-1.23-1.09l-2-.51c-1.08-.28-1.89-.77-1.89-2s1.14-2.33,3.06-2.33,3.13.92,3.13,2.79h-1.23c0-1.14-.85-1.66-2-1.66s-1.74.52-1.74,1.12.31.83,1.12,1l1.92.48c1.23.31,2,.83,2,2.09,0,1.43-1.2,2.42-3.17,2.42S229.27,315.55,229.27,313.65Z"/><path class="cls-18" d="M237.78,314.29h1.45v2h-1.45Z"/><path class="cls-18" d="M241.52,314.29H243v2h-1.45Z"/><path class="cls-18" d="M245.26,314.29h1.45v2h-1.45Z"/><path class="cls-19" d="M104.31,223.34l-23.58-35.4,6.1-6.11a21.79,21.79,0,0,1,14.23-6.1h36.61s12.21,0,20.34-8.14l34.07-23.9-64.52,64.52c-7.32,2.1-14.94,6.8-21.42,13.29ZM135.65,251l-8.14,8.13-4.06-4.06-4.07,4.06c-1.15,1.15-4.32-.25-7.12-3a16.63,16.63,0,0,1-2.67-3.56c-5,4.77-9.54,7.63-10.55,6.6s1.84-5.52,6.61-10.54a16.62,16.62,0,0,1-3.56-2.68c-2.8-2.79-4.2-6-3.05-7.12l4.07-4.06L99,230.65l8.13-8.14c6.68-6.67,14.18-11.12,21.11-13L199,138.8c5.53-3.88,10.49-7.44,13.92-9.85,14.24-10.17,22.37-10.17,24.41-8.13s2,10.16-8.14,24.4c-2.42,3.43-6,8.4-9.86,13.92l-70.74,70.74C146.77,236.81,142.32,244.32,135.65,251Zm78.81-84.92-23.9,34.07c-8.14,8.14-8.14,20.34-8.14,20.34V257.1a22.19,22.19,0,0,1-6.1,14.23l-6.1,6.09-35.4-23.57,1.85-1.85c6.48-6.48,11.18-14.11,13.28-21.42Zm-1.52-20.85a10.2,10.2,0,0,1,2.48,9.22l7.06-3.23A12.89,12.89,0,0,0,207,135.69l-3.24,7.05A10.22,10.22,0,0,1,212.93,145.22Z"/><path class="cls-20" d="M32.09,54.53h255.5v-2.3H32.09Z"/><path class="cls-19" d="M31.79,54.53H56.9v-2.3H31.79Z"/><polygon class="cls-21" points="90.25 381.72 92.49 385.64 96.91 386.56 93.87 389.9 94.37 394.38 90.25 392.52 86.14 394.38 86.64 389.9 83.6 386.56 88.02 385.64 90.25 381.72"/><polygon class="cls-21" points="119.12 381.72 121.36 385.64 125.78 386.56 122.74 389.9 123.24 394.38 119.12 392.52 115.01 394.38 115.51 389.9 112.47 386.56 116.89 385.64 119.12 381.72"/><polygon class="cls-21" points="147.99 381.72 150.23 385.64 154.65 386.56 151.61 389.9 152.11 394.38 147.99 392.52 143.88 394.38 144.38 389.9 141.34 386.56 145.76 385.64 147.99 381.72"/><polygon class="cls-21" points="176.86 381.72 179.1 385.64 183.52 386.56 180.48 389.9 180.97 394.38 176.86 392.52 172.75 394.38 173.24 389.9 170.2 386.56 174.63 385.64 176.86 381.72"/><polygon class="cls-17" points="205.73 381.72 207.97 385.64 212.39 386.56 209.35 389.9 209.84 394.38 205.73 392.52 201.62 394.38 202.11 389.9 199.07 386.56 203.49 385.64 205.73 381.72"/><line class="cls-22" x1="281.24" y1="43.76" x2="287.32" y2="49.84"/><line class="cls-22" x1="287.32" y1="43.76" x2="281.24" y2="49.84"/><path class="cls-16" d="M34.83,48.68a.46.46,0,0,1,0,.09.25.25,0,0,1,0,.06l0,0h-2l0,0a.13.13,0,0,1,0-.06.42.42,0,0,1,0-.1.91.91,0,0,1,0-.09.22.22,0,0,1,0-.07l0-.06.05-.07.7-.72a4.66,4.66,0,0,0,.39-.45,2.4,2.4,0,0,0,.22-.36,1.14,1.14,0,0,0,.1-.29,1.34,1.34,0,0,0,0-.25.61.61,0,0,0,0-.22.54.54,0,0,0-.11-.18.52.52,0,0,0-.18-.12.68.68,0,0,0-.26,0,1,1,0,0,0-.31,0l-.24.1-.17.1a.21.21,0,0,1-.1,0h0l0,0a.26.26,0,0,1,0-.06.69.69,0,0,1,0-.1s0-.05,0-.07a.23.23,0,0,1,0-.05l0,0,0,0,.11-.08.2-.1.26-.08a1.39,1.39,0,0,1,.3,0,1.25,1.25,0,0,1,.44.07.9.9,0,0,1,.32.2.82.82,0,0,1,.19.29,1,1,0,0,1,.06.35,1.92,1.92,0,0,1,0,.33,1.33,1.33,0,0,1-.13.36,2.68,2.68,0,0,1-.28.43,6,6,0,0,1-.48.54l-.55.58h1.56l0,0a.18.18,0,0,1,0,.06A.44.44,0,0,1,34.83,48.68Z"/><path class="cls-16" d="M37.68,45.59s0,.06,0,.09v.08l0,.07,0,.07-1.26,2.9,0,.05-.05,0-.08,0h-.26l-.07,0a0,0,0,0,1,0,0,.18.18,0,0,1,0-.06l1.32-3H35.5a.08.08,0,0,1-.08-.05.35.35,0,0,1,0-.15.6.6,0,0,1,0-.09l0-.06,0,0h2.14l0,0a.19.19,0,0,1,0,.06A.44.44,0,0,1,37.68,45.59Z"/><path class="cls-19" d="M38.39,49.53a.15.15,0,0,1,0,.06l0,0-.07,0H38l-.07,0a.07.07,0,0,1,0,0,.1.1,0,0,1,0-.06L39.59,45a.15.15,0,0,1,0-.06l0,0,.07,0h.21l.07,0a.07.07,0,0,1,0,0,.11.11,0,0,1,0,.06Z"/><path class="cls-19" d="M42.62,45.59s0,.06,0,.09v.08l0,.07,0,.07-1.26,2.9,0,.05-.05,0-.08,0h-.26l-.07,0a0,0,0,0,1,0,0,.18.18,0,0,1,0-.06l1.32-3H40.44a.08.08,0,0,1-.08-.05.35.35,0,0,1,0-.15.6.6,0,0,1,0-.09l0-.06,0,0h2.14l0,0a.19.19,0,0,1,0,.06A.44.44,0,0,1,42.62,45.59Z"/><path class="cls-19" d="M45.45,48a1,1,0,0,1-.08.4.81.81,0,0,1-.23.3,1,1,0,0,1-.38.18,1.94,1.94,0,0,1-.51.06,1.87,1.87,0,0,1-.48-.06,1,1,0,0,1-.36-.17.73.73,0,0,1-.23-.27.83.83,0,0,1-.08-.37.82.82,0,0,1,.05-.3.87.87,0,0,1,.16-.25,1.31,1.31,0,0,1,.25-.22,2.89,2.89,0,0,1,.33-.19,2,2,0,0,1-.29-.18,1.06,1.06,0,0,1-.21-.2.81.81,0,0,1-.13-.23.78.78,0,0,1,0-.27.88.88,0,0,1,.07-.34.76.76,0,0,1,.2-.28,1,1,0,0,1,.34-.19,1.53,1.53,0,0,1,.48-.07,1.48,1.48,0,0,1,.46.06.9.9,0,0,1,.32.17.65.65,0,0,1,.18.26.84.84,0,0,1,.06.32.77.77,0,0,1,0,.26.85.85,0,0,1-.13.24,1.17,1.17,0,0,1-.21.21,2,2,0,0,1-.29.19,3,3,0,0,1,.34.19,1.32,1.32,0,0,1,.25.21.85.85,0,0,1,.15.24A.73.73,0,0,1,45.45,48ZM45,48a.53.53,0,0,0,0-.22.59.59,0,0,0-.14-.19,1.28,1.28,0,0,0-.23-.17l-.32-.17-.3.17a1.12,1.12,0,0,0-.21.17.67.67,0,0,0-.12.19.56.56,0,0,0,0,.22.49.49,0,0,0,.18.41.85.85,0,0,0,.54.14.81.81,0,0,0,.52-.14A.48.48,0,0,0,45,48Zm-.11-1.84a.51.51,0,0,0,0-.21.42.42,0,0,0-.11-.16.5.5,0,0,0-.19-.1.89.89,0,0,0-.25,0,.64.64,0,0,0-.44.13.46.46,0,0,0-.15.36.52.52,0,0,0,0,.2.55.55,0,0,0,.11.17,1.07,1.07,0,0,0,.19.16l.28.16a1.37,1.37,0,0,0,.42-.31A.56.56,0,0,0,44.86,46.19Z"/><rect class="cls-19" x="17.1" y="353.34" width="274.84" height="23.32"/><path class="cls-16" d="M106.07,366v2.55h-1v-6.15h2.27a2.43,2.43,0,0,1,1.59.46,1.62,1.62,0,0,1,.56,1.33,1.37,1.37,0,0,1-.25.82,1.69,1.69,0,0,1-.72.55,1.29,1.29,0,0,1,.75.54,1.73,1.73,0,0,1,.23.92v.51a2.08,2.08,0,0,0,.07.53.75.75,0,0,0,.23.39v.1h-1.05a.68.68,0,0,1-.22-.44,3.67,3.67,0,0,1,0-.59v-.49a1,1,0,0,0-.27-.75,1,1,0,0,0-.74-.28Zm0-.82h1.19a1.39,1.39,0,0,0,.9-.24.89.89,0,0,0,.28-.72,1,1,0,0,0-.28-.73,1.19,1.19,0,0,0-.85-.26h-1.25Z"/><path class="cls-16" d="M114.09,367.14h-2.41l-.49,1.44h-1l2.26-6.15h1l2.23,6.15h-1Zm-2.11-.86h1.82l-.89-2.62h0Z"/><path class="cls-16" d="M120.53,363.25h-1.86v5.32h-1v-5.32h-1.86v-.82h4.74Z"/><path class="cls-16" d="M125.05,365.81h-2.69v1.94h3.12v.82h-4.15v-6.15h4.12v.82h-3.09V365h2.69Z"/><path class="cls-16" d="M130.5,365.41l1.49-3h1.14l-2.13,4v2.16h-1v-2.21l-2.1-3.93H129Z"/><path class="cls-16" d="M138.52,366.05a2.59,2.59,0,0,1-.71,1.87,2.42,2.42,0,0,1-1.83.74,2.34,2.34,0,0,1-1.8-.74,2.63,2.63,0,0,1-.69-1.87v-1.11a2.64,2.64,0,0,1,.69-1.87,2.33,2.33,0,0,1,1.79-.74,2.43,2.43,0,0,1,1.84.74,2.59,2.59,0,0,1,.71,1.87Zm-1-1.11a1.91,1.91,0,0,0-.41-1.26,1.37,1.37,0,0,0-1.11-.49,1.29,1.29,0,0,0-1.07.49,2,2,0,0,0-.39,1.26v1.11a2,2,0,0,0,.39,1.27,1.3,1.3,0,0,0,1.07.5,1.37,1.37,0,0,0,1.11-.49,1.94,1.94,0,0,0,.41-1.27Z"/><path class="cls-16" d="M144.3,362.43v4.12a1.91,1.91,0,0,1-.67,1.57,2.67,2.67,0,0,1-1.74.55,2.58,2.58,0,0,1-1.71-.55,1.93,1.93,0,0,1-.65-1.57v-4.12h1v4.12a1.23,1.23,0,0,0,.36,1,1.41,1.41,0,0,0,1,.33,1.49,1.49,0,0,0,1-.33,1.21,1.21,0,0,0,.38-1v-4.12Z"/><path class="cls-16" d="M146.55,366v2.55h-1v-6.15h2.27a2.43,2.43,0,0,1,1.59.46,1.62,1.62,0,0,1,.56,1.33,1.37,1.37,0,0,1-.25.82,1.69,1.69,0,0,1-.72.55,1.29,1.29,0,0,1,.75.54,1.73,1.73,0,0,1,.23.92v.51a2.08,2.08,0,0,0,.07.53.75.75,0,0,0,.23.39v.1h-1.05a.68.68,0,0,1-.22-.44,3.67,3.67,0,0,1,0-.59v-.49a1,1,0,0,0-.27-.75,1,1,0,0,0-.74-.28Zm0-.82h1.19a1.39,1.39,0,0,0,.9-.24.89.89,0,0,0,.28-.72,1,1,0,0,0-.28-.73,1.19,1.19,0,0,0-.85-.26h-1.25Z"/><path class="cls-16" d="M154.42,366v2.55h-1v-6.15h2.27a2.43,2.43,0,0,1,1.59.46,1.62,1.62,0,0,1,.56,1.33,1.37,1.37,0,0,1-.25.82,1.69,1.69,0,0,1-.72.55,1.29,1.29,0,0,1,.75.54,1.73,1.73,0,0,1,.23.92v.51a2.08,2.08,0,0,0,.07.53.75.75,0,0,0,.23.39v.1h-1.05a.68.68,0,0,1-.22-.44,3.67,3.67,0,0,1,0-.59v-.49a1,1,0,0,0-.27-.75,1,1,0,0,0-.74-.28Zm0-.82h1.19a1.39,1.39,0,0,0,.9-.24.89.89,0,0,0,.28-.72,1,1,0,0,0-.28-.73,1.19,1.19,0,0,0-.85-.26h-1.25Z"/><path class="cls-16" d="M162.83,365.81h-2.69v1.94h3.12v.82h-4.15v-6.15h4.12v.82h-3.09V365h2.69Z"/><path class="cls-16" d="M167.46,367a.79.79,0,0,0-.28-.63,2.67,2.67,0,0,0-1-.44,4.25,4.25,0,0,1-1.58-.72A1.42,1.42,0,0,1,164,364a1.49,1.49,0,0,1,.61-1.22,2.49,2.49,0,0,1,1.58-.48,2.36,2.36,0,0,1,1.63.55,1.63,1.63,0,0,1,.59,1.31v0h-1a1,1,0,0,0-.32-.77,1.31,1.31,0,0,0-.92-.29,1.34,1.34,0,0,0-.86.24.78.78,0,0,0-.3.63.69.69,0,0,0,.33.58,3.63,3.63,0,0,0,1.08.44,3.59,3.59,0,0,1,1.51.73,1.54,1.54,0,0,1,.52,1.19,1.44,1.44,0,0,1-.61,1.22,2.65,2.65,0,0,1-1.61.45,2.85,2.85,0,0,1-1.69-.51,1.57,1.57,0,0,1-.71-1.4v0h1a1,1,0,0,0,.39.84,1.7,1.7,0,0,0,1,.28,1.48,1.48,0,0,0,.89-.23A.72.72,0,0,0,167.46,367Z"/><path class="cls-16" d="M170.59,366.24v2.33h-1v-6.15H172a2.27,2.27,0,0,1,1.59.53,2,2,0,0,1,0,2.77,2.29,2.29,0,0,1-1.59.52Zm0-.82H172a1.12,1.12,0,0,0,.86-.3,1.08,1.08,0,0,0,.29-.77,1,1,0,0,0-1.14-1.09h-1.38Z"/><path class="cls-16" d="M179.94,366.05a2.59,2.59,0,0,1-.71,1.87,2.42,2.42,0,0,1-1.83.74,2.34,2.34,0,0,1-1.8-.74,2.63,2.63,0,0,1-.69-1.87v-1.11a2.64,2.64,0,0,1,.69-1.87,2.33,2.33,0,0,1,1.79-.74,2.43,2.43,0,0,1,1.84.74,2.59,2.59,0,0,1,.71,1.87Zm-1-1.11a1.91,1.91,0,0,0-.41-1.26,1.37,1.37,0,0,0-1.11-.49,1.29,1.29,0,0,0-1.07.49,2,2,0,0,0-.39,1.26v1.11a2,2,0,0,0,.39,1.27,1.3,1.3,0,0,0,1.07.5,1.37,1.37,0,0,0,1.11-.49,1.94,1.94,0,0,0,.41-1.27Z"/><path class="cls-16" d="M185.85,368.57h-1l-2.73-4.49h0v4.48h-1v-6.15h1l2.73,4.48h0v-4.47h1Z"/><path class="cls-16" d="M190.53,367a.79.79,0,0,0-.28-.63,2.67,2.67,0,0,0-1-.44,4.25,4.25,0,0,1-1.58-.72,1.42,1.42,0,0,1-.56-1.17,1.49,1.49,0,0,1,.61-1.22,2.49,2.49,0,0,1,1.58-.48,2.36,2.36,0,0,1,1.63.55,1.63,1.63,0,0,1,.59,1.31v0h-1a1,1,0,0,0-.32-.77,1.31,1.31,0,0,0-.92-.29,1.34,1.34,0,0,0-.86.24.78.78,0,0,0-.3.63.69.69,0,0,0,.33.58,3.63,3.63,0,0,0,1.08.44,3.59,3.59,0,0,1,1.51.73,1.54,1.54,0,0,1,.52,1.19,1.44,1.44,0,0,1-.61,1.22,2.65,2.65,0,0,1-1.61.45,2.85,2.85,0,0,1-1.69-.51,1.57,1.57,0,0,1-.71-1.4v0h1a1,1,0,0,0,.39.84,1.7,1.7,0,0,0,1,.28,1.48,1.48,0,0,0,.89-.23A.72.72,0,0,0,190.53,367Z"/><path class="cls-16" d="M196.35,365.81h-2.69v1.94h3.12v.82h-4.15v-6.15h4.12v.82h-3.09V365h2.69Z"/><path class="cls-23" d="M293.44,2.56H136.5l170.86,419V16.48A13.93,13.93,0,0,0,293.44,2.56Z"/><path class="cls-24" d="M291.28,38.9H19.89a1.65,1.65,0,0,0-1.65,1.64V403a1.65,1.65,0,0,0,1.65,1.64H291.28a1.65,1.65,0,0,0,1.64-1.64V40.54A1.65,1.65,0,0,0,291.28,38.9ZM292.65,403a1.37,1.37,0,0,1-1.37,1.37H19.89A1.37,1.37,0,0,1,18.52,403V40.54a1.37,1.37,0,0,1,1.37-1.37H291.28a1.37,1.37,0,0,1,1.37,1.37Z"/><circle class="cls-25" cx="155.77" cy="19.97" r="3.79" transform="translate(31.48 115.97) rotate(-44.99)"/><circle class="cls-26" cx="155.77" cy="19.97" r="3.38" transform="translate(31.52 116.01) rotate(-45.01)"/><circle class="cls-27" cx="155.75" cy="19.99" r="2.83" transform="translate(31.45 115.95) rotate(-44.98)"/><circle class="cls-28" cx="155.77" cy="19.97" r="2.6" transform="translate(31.5 116) rotate(-45)"/><circle class="cls-29" cx="155.71" cy="19.91" r="2.6" transform="translate(31.58 116) rotate(-45.03)"/><circle class="cls-30" cx="155.76" cy="19.95" r="2.06" transform="translate(31.49 115.95) rotate(-44.99)"/><circle class="cls-31" cx="155.76" cy="19.95" r="1.3" transform="translate(31.57 116.06) rotate(-45.04)"/><path class="cls-32" d="M154.65,21.27a1.43,1.43,0,0,1,2.41-.69,1.6,1.6,0,0,1,.17.21,1.65,1.65,0,0,1-.3.4A1.67,1.67,0,0,1,154.65,21.27Z"/><path class="cls-33" d="M156.94,18.74l-.53.54a1,1,0,0,0-.31-.19l.19-.73A1.68,1.68,0,0,1,156.94,18.74Zm-2.26,0,.54.54A.92.92,0,0,1,156,19l.2-.73A1.67,1.67,0,0,0,154.68,18.69Z"/><ellipse class="cls-34" cx="155.91" cy="21.22" rx="0.35" ry="0.26" transform="translate(-1.23 29.24) rotate(-10.67)"/><ellipse class="cls-35" cx="155.81" cy="20.37" rx="0.21" ry="0.15" transform="translate(-1.08 29.23) rotate(-10.68)"/><ellipse class="cls-36" cx="155.65" cy="19.44" rx="0.14" ry="0.11" transform="translate(-0.87 29.69) rotate(-10.87)"/><path class="cls-2" d="M14.92,443h0Z"/><path class="cls-2" d="M15.76,443l.85,0Z"/><path class="cls-37" d="M15,443l.78-.06Z"/></g></g></g></svg>