<svg xmlns="http://www.w3.org/2000/svg" viewBox="0 0 297.47 219.19"><defs><style>.cls-1,.cls-2,.cls-5{fill:#fff;}.cls-1{opacity:0.15;}.cls-2{opacity:0.55;}.cls-10,.cls-3,.cls-6,.cls-7,.cls-8,.cls-9{fill:none;}.cls-4{fill:#263238;opacity:0.35;}.cls-5{opacity:0.75;}.cls-10,.cls-6{stroke:#263238;}.cls-6,.cls-7,.cls-8,.cls-9{stroke-linecap:round;}.cls-10,.cls-6,.cls-7,.cls-8,.cls-9{stroke-miterlimit:10;}.cls-6,.cls-9{stroke-width:5.73px;}.cls-7,.cls-8,.cls-9{stroke:#ec2227;}.cls-7,.cls-8{stroke-width:4px;}.cls-8{stroke-dasharray:2 8;}.cls-10{stroke-width:6px;}.cls-11{fill:#ec2227;}.cls-12{fill:#fbb03b;}.cls-13{fill:#95c8b1;}</style></defs><title>Asset 2iDR-illustration</title><g id="Layer_2" data-name="Layer 2"><g id="Layer_1_copy" data-name="Layer 1 copy"><path class="cls-1" d="M56.22,102.47C19.14,49.62,4.47,2.87,4.47,2.87V199.67s24-.17,52-.3v.3s41.69-.15,93.77-.28h5C112,171.43,79.57,135.75,56.22,102.47Z"/><path class="cls-2" d="M155.87,106.32C108,72.75,73.47,36.41,56.47,2.87v99.6c25,33.28,57.45,70.72,100.71,99.72h-1.71v-2.81c46-.11,100-.21,138-.17v-20C241.47,158.7,194.49,133.41,155.87,106.32Z"/><path class="cls-3" d="M155.28,199.38l.45.3v-.3Z"/><path class="cls-4" d="M150.19,199.39a37.67,37.67,0,0,1,5.54.28l-.45-.3Z"/><path class="cls-5" d="M155.47,2.87V106.32c39,27.09,86,52.38,138,72.92V97.52C203.47,46.37,155.47,2.87,155.47,2.87Z"/><path class="cls-6" d="M155.28,199.38C112,171.43,79.72,135.75,56.37,102.47"/><path class="cls-6" d="M293.3,179.24c-52.06-20.54-99-45.83-137.57-72.92"/><line class="cls-7" x1="156.47" y1="3.19" x2="156.47" y2="4.19"/><line class="cls-8" x1="156.47" y1="11.19" x2="156.47" y2="101.19"/><line class="cls-7" x1="156.47" y1="105.19" x2="156.47" y2="106.19"/><line class="cls-7" x1="57.47" y1="3.19" x2="57.47" y2="4.19"/><line class="cls-8" x1="57.47" y1="12.19" x2="57.47" y2="97.19"/><line class="cls-7" x1="57.47" y1="101.19" x2="57.47" y2="102.19"/><path class="cls-9" d="M155.73,106.32c-47.85-33.57-83-69.91-99.36-103.46"/><polyline class="cls-10" points="3.47 5.19 3.47 201.19 294.47 201.19 294.47 97.19"/><path class="cls-9" d="M293.3,97.52C203.5,46.37,155.73,2.87,155.73,2.87"/><path class="cls-9" d="M56.37,102.47C19.29,49.62,2.87,2.87,2.87,2.87"/><rect class="cls-11" x="4.78" y="203.54" width="50.64" height="15.5"/><path class="cls-12" d="M54.46,219H156.68v-15.5H54.46Z"/><path class="cls-13" d="M156.68,219H294.26v-15.5H156.68Z"/><line class="cls-10" x1="3.47" y1="202.19" x2="3.47" y2="219.19"/><line class="cls-10" x1="55.47" y1="202.19" x2="55.47" y2="219.19"/><line class="cls-10" x1="156.47" y1="202.19" x2="156.47" y2="219.19"/><line class="cls-10" x1="294.47" y1="202.19" x2="294.47" y2="219.19"/></g></g></svg>