<svg xmlns="http://www.w3.org/2000/svg" viewBox="0 0 314 128.73"><defs><style>.cls-1{fill:#ec2227;}.cls-1,.cls-5,.cls-6{stroke:#263238;stroke-miterlimit:10;stroke-width:7.05px;}.cls-2,.cls-7{opacity:0.25;}.cls-3,.cls-7{fill:#263238;}.cls-4{fill:#fff;}.cls-5{fill:#fbb03b;}.cls-6{fill:#95c8b1;}</style></defs><title>Asset 4iDR-illustration</title><g id="Layer_2" data-name="Layer 2"><g id="Layer_1_copy" data-name="Layer 1 copy"><circle class="cls-1" cx="64.36" cy="64.36" r="60.84"/><g class="cls-2"><path class="cls-3" d="M98.68,69.23c-6.71,11.06-19,18.5-32,18.5s-25.25-7.48-32-18.5a4.71,4.71,0,0,1,0-5c6.71-11,19-18.5,32-18.5s25.25,7.48,32,18.5a4.71,4.71,0,0,1,0,5ZM80.84,53.83a16.35,16.35,0,1,1-28.25,0,36.84,36.84,0,0,0-13.9,12.88c6.24,9.63,16.31,16.35,28,16.35s21.79-6.71,28-16.35A36.84,36.84,0,0,0,80.84,53.83ZM66.71,50.95A11.14,11.14,0,0,0,55.62,62a1.75,1.75,0,0,0,3.5,0,7.63,7.63,0,0,1,7.59-7.59,1.75,1.75,0,1,0,0-3.5Z"/></g><path class="cls-4" d="M96.33,66.88c-6.71,11.06-19,18.5-32,18.5s-25.25-7.48-32-18.5a4.71,4.71,0,0,1,0-5c6.71-11,19-18.5,32-18.5s25.25,7.48,32,18.5a4.71,4.71,0,0,1,0,5ZM78.49,51.48a16.35,16.35,0,1,1-28.25,0,36.84,36.84,0,0,0-13.9,12.88c6.24,9.63,16.31,16.35,28,16.35s21.79-6.71,28-16.35A36.84,36.84,0,0,0,78.49,51.48ZM64.36,48.6A11.14,11.14,0,0,0,53.27,59.69a1.75,1.75,0,0,0,3.5,0,7.63,7.63,0,0,1,7.59-7.59,1.75,1.75,0,0,0,0-3.5Z"/><circle class="cls-5" cx="157" cy="64.36" r="60.84"/><circle class="cls-6" cx="249.64" cy="64.36" r="60.84"/><path class="cls-7" d="M177.22,64,146.91,94.31H131.76V79.15l30.31-30.31ZM148.3,86.33l-8.56-8.56-3.31,3.31V85h4.66v4.66H145ZM163.23,55a.85.85,0,0,0-.62.25L142.87,75a.85.85,0,0,0-.25.62.76.76,0,0,0,.8.8.85.85,0,0,0,.62-.25l19.74-19.74a.85.85,0,0,0,.25-.62A.76.76,0,0,0,163.23,55Zm22.37.58-6,6L164.4,46.52l6-6a4.57,4.57,0,0,1,3.28-1.38A4.72,4.72,0,0,1,177,40.5L185.6,49a4.84,4.84,0,0,1,1.35,3.31A4.69,4.69,0,0,1,185.6,55.62Z"/><path class="cls-7" d="M250,86.73a2.43,2.43,0,0,1-2.41,2.41,2.4,2.4,0,0,1-1.7-.72L233.34,75.87h-9.88A2.43,2.43,0,0,1,221,73.46V59a2.43,2.43,0,0,1,2.41-2.41h9.88L245.9,44a2.4,2.4,0,0,1,1.7-.72A2.43,2.43,0,0,1,250,45.69Zm8.64-11.65a2.11,2.11,0,0,1-.94.19,2.41,2.41,0,0,1-2.41-2.41c0-2.87,4.38-2.07,4.38-6.64s-4.38-3.77-4.38-6.64a2.41,2.41,0,0,1,2.41-2.41,2.11,2.11,0,0,1,.94.19,9.64,9.64,0,0,1,0,17.73Zm3.81,8.9a2.8,2.8,0,0,1-.94.19,2.42,2.42,0,0,1-1-4.64,19.56,19.56,0,0,0,2.87-1.66,14.43,14.43,0,0,0,0-23.31,19.56,19.56,0,0,0-2.87-1.66,2.42,2.42,0,0,1,.94-4.64,2.83,2.83,0,0,1,1,.19,19.34,19.34,0,0,1,0,35.53Zm3.81,8.86a2.83,2.83,0,0,1-1,.19,2.42,2.42,0,0,1-.94-4.64c.53-.3,1.13-.49,1.7-.79a26.36,26.36,0,0,0,3.09-1.92,24.16,24.16,0,0,0,0-38.92A26.36,26.36,0,0,0,266,44.83c-.57-.3-1.17-.49-1.7-.79a2.42,2.42,0,0,1,.94-4.64,2.83,2.83,0,0,1,1,.19,29,29,0,0,1,0,53.26Z"/><path class="cls-4" d="M174.87,61.65,144.56,92H129.41V76.8L159.72,46.5ZM145.95,84l-8.56-8.56-3.31,3.31v3.9h4.66v4.66h3.9Zm14.93-31.29a.85.85,0,0,0-.62.25L140.52,72.69a.85.85,0,0,0-.25.62.76.76,0,0,0,.8.8.85.85,0,0,0,.62-.25l19.74-19.74a.85.85,0,0,0,.25-.62A.76.76,0,0,0,160.88,52.69Zm22.37.58-6,6L162,44.16l6-6a4.57,4.57,0,0,1,3.28-1.38,4.72,4.72,0,0,1,3.31,1.38l8.56,8.52A4.84,4.84,0,0,1,184.6,50,4.69,4.69,0,0,1,183.25,53.27Z"/><path class="cls-4" d="M247.66,84.38a2.43,2.43,0,0,1-2.41,2.41,2.4,2.4,0,0,1-1.7-.72L231,73.52H221.1a2.43,2.43,0,0,1-2.41-2.41V56.62a2.43,2.43,0,0,1,2.41-2.41H231l12.56-12.56a2.4,2.4,0,0,1,1.7-.72,2.43,2.43,0,0,1,2.41,2.41Zm8.64-11.65a2.11,2.11,0,0,1-.94.19,2.41,2.41,0,0,1-2.41-2.41c0-2.87,4.38-2.07,4.38-6.64s-4.38-3.77-4.38-6.64a2.41,2.41,0,0,1,2.41-2.41,2.11,2.11,0,0,1,.94.19,9.64,9.64,0,0,1,0,17.73Zm3.81,8.9a2.8,2.8,0,0,1-.94.19,2.42,2.42,0,0,1-1-4.64A19.56,19.56,0,0,0,261,75.52a14.43,14.43,0,0,0,0-23.31,19.56,19.56,0,0,0-2.87-1.66,2.42,2.42,0,0,1,.94-4.64,2.83,2.83,0,0,1,1,.19,19.34,19.34,0,0,1,0,35.53Zm3.81,8.86a2.83,2.83,0,0,1-1,.19A2.42,2.42,0,0,1,262,86c.53-.3,1.13-.49,1.7-.79a26.36,26.36,0,0,0,3.09-1.92,24.16,24.16,0,0,0,0-38.92,26.36,26.36,0,0,0-3.09-1.92c-.57-.3-1.17-.49-1.7-.79a2.42,2.42,0,0,1,.94-4.64,2.83,2.83,0,0,1,1,.19,29,29,0,0,1,0,53.26Z"/></g></g></svg>