<svg xmlns="http://www.w3.org/2000/svg" viewBox="0 0 46 40"><defs><style>.cls-1{fill:#95c8b1;}</style></defs><rect class="cls-1" y="14" width="7.87" height="21.86"/><rect class="cls-1" x="6.97" y="21.06" width="7.88" height="21.82" transform="translate(42.88 21.06) rotate(90)"/><rect class="cls-1" x="38.13" y="4" width="7.87" height="21.86" transform="translate(84.13 29.86) rotate(180)"/><rect class="cls-1" x="31.15" y="-2.97" width="7.88" height="21.82" transform="translate(27.15 43.03) rotate(-90)"/><rect class="cls-1" x="1.5" y="2.5" width="2" height="5" transform="translate(-2.5 7.5) rotate(-90)"/><rect class="cls-1" x="9.5" y="2.5" width="2" height="5" transform="translate(5.5 15.5) rotate(-90)"/><rect class="cls-1" x="17.5" y="2.5" width="2" height="5" transform="translate(13.5 23.5) rotate(-90)"/><rect class="cls-1" x="26.5" y="32.5" width="2" height="5" transform="translate(-7.5 62.5) rotate(-90)"/><rect class="cls-1" x="34.5" y="32.5" width="2" height="5" transform="translate(0.5 70.5) rotate(-90)"/><rect class="cls-1" x="42.5" y="32.5" width="2" height="5" transform="translate(8.5 78.5) rotate(-90)"/></svg>